<?xml version="1.0" encoding="utf-8"?>
<!-- Generator: Adobe Illustrator 25.2.0, SVG Export Plug-In . SVG Version: 6.00 Build 0)  -->
<svg version="1.1" id="Capa_1" xmlns="http://www.w3.org/2000/svg" xmlns:xlink="http://www.w3.org/1999/xlink" x="0px" y="0px"
	 viewBox="0 0 100 100" style="enable-background:new 0 0 100 100;" xml:space="preserve">
<style type="text/css">
	.st0{fill:#F14900;}
	.st1{fill:none;stroke:#F14900;stroke-width:3;stroke-linecap:round;stroke-miterlimit:10;}
	.st2{fill:none;stroke:#FED339;stroke-width:6;stroke-linecap:round;stroke-miterlimit:10;}
</style>
<g>
	<path class="st0" d="M24.3,10.4c0,0-20.3,10.2-21.4,40.8c-1,27.7,26.9,51,52,43.8c0,0,8.5-3.4,7.5-10.9c-1.1-6.8-12.1-5-12.1-5
		s-29.5,0.8-29.2-26.2C21.3,28,39.2,21.2,39.2,21.2S47.8,18,45,11C40.6-0.4,24.3,10.4,24.3,10.4z"/>
	<line class="st1" x1="42.2" y1="11.5" x2="45.7" y2="5.5"/>
	<line class="st1" x1="41.9" y1="10.8" x2="48.7" y2="12.1"/>
	<line class="st1" x1="60.7" y1="87.2" x2="64.1" y2="81.2"/>
	<line class="st1" x1="60.4" y1="86.5" x2="67.2" y2="87.7"/>
	<path class="st2" d="M29.8,34.1c0,0,5,3.1,4.8,7.8"/>
	<path class="st2" d="M52.3,37.9c0,0,4.3,4,3.4,8.5"/>
	<path class="st2" d="M86.8,69.9c0,0-1,5.8-5.4,7.4"/>
	<path class="st2" d="M81.8,62.5c0,0,5.8-1.1,8.8,2.4"/>
	<path class="st2" d="M72.6,57.9c0,0-3.4-4.8-1.4-9"/>
	<path class="st2" d="M46.3,46.1c0,0,2.7,2.1,2.2,4.8"/>
	<path class="st2" d="M76.4,82.7c0,0-1.6,3-4.3,3"/>
	<path class="st2" d="M65.9,73.4c0,0-3-1.5-3.1-4.3"/>
	<path class="st2" d="M64.1,52.6c0,0-1.1-3.2,0.7-5.2"/>
	<path class="st2" d="M51.1,60.2c0,0,1.7-5.6,6.2-6.7"/>
	<path class="st2" d="M62.1,61.3c0,0-2.2,2.6-4.9,1.9"/>
	<path class="st2" d="M52.5,69.5c0,0,0,5.4,4.7,5.8"/>
	<path class="st2" d="M37.7,60.6c0,0-2.9,4.5,0.9,7.4"/>
	<path class="st2" d="M45.2,69.1c0,0,0.4,3.4-1.8,4.9"/>
	<path class="st2" d="M44.4,62.3c0,0,0.5-6.1-2.3-8.8"/>
	<path class="st2" d="M33.8,53.8c0,0,1.6-5.7,6-6.9"/>
	<path class="st2" d="M30.5,67.8c0,0-2.1-2.6-1-5.2"/>
	<path class="st2" d="M27.5,56.2c0,0-3-1.7-2.9-4.4"/>
	<path class="st2" d="M27.5,40.7c0,0-2,3.1,0,5.3"/>
	<path class="st2" d="M41.6,40.7c0,0,1.3-2.7,3.8-2.8"/>
	<path class="st2" d="M34.7,28.7c0,0,3.7,0.5,6.1,3.5"/>
	<path class="st2" d="M69,42.4c0,0,1.7-6.4-1.3-9.3"/>
	<path class="st2" d="M59.7,36c0,0,2.8,0.9,3.2,3.5"/>
	<path class="st2" d="M48.5,32c0,0,6-2.8,8.4-2.2"/>
	<path class="st2" d="M41.8,24.5c0,0,6-3.1,10-0.3"/>
	<path class="st2" d="M63.5,26.7c0,0,1.2-1.5,0.3-6"/>
	<path class="st2" d="M86.8,31.9c0,0,1.6,0.3,2.9-1.1"/>
	<path class="st2" d="M80.2,18c0,0,4.3,4,3.4,8.5"/>
	<path class="st2" d="M70.9,25.9c0,0,3.1,1.3,3.4,4"/>
	<path class="st2" d="M89.8,50.1c0,0,4.5,3.8,3.7,8.3"/>
	<path class="st2" d="M52.5,15.9c0,0,4,0.2,4.7,4.8"/>
	<path class="st2" d="M90.6,37.9c0,0,1,4.2,3.1,6.3"/>
	<path class="st2" d="M70.1,10.7c0,0,4.3,4,3.4,8.5"/>
	<path class="st2" d="M62.1,12.4c0,0-1-2.8,0.8-4.6"/>
	<path class="st2" d="M51.3,6.6c0,0,2.7-1.2,4.7,0.5"/>
	<path class="st2" d="M70.8,78.6c0,0,1.9-5.1,6-6.3"/>
	<path class="st2" d="M75.6,65.2c0,0-2.9,1.8-5.2,0.4"/>
	<path class="st2" d="M76,36.3c0,0,3.9-0.6,4.6-1.7"/>
	<path class="st2" d="M76,43.3c0,0,6.7-0.7,9.1,1.7"/>
	<path class="st2" d="M79.2,52.5c0,0,3.8,0.7,5.1,2.6"/>
</g>
</svg>
