<?xml version="1.0" encoding="utf-8"?>
<!-- Generator: Adobe Illustrator 25.0.1, SVG Export Plug-In . SVG Version: 6.00 Build 0)  -->
<svg version="1.1" xmlns="http://www.w3.org/2000/svg" xmlns:xlink="http://www.w3.org/1999/xlink" x="0px" y="0px"
	 viewBox="0 0 100 100" style="enable-background:new 0 0 100 100;" xml:space="preserve">
<style type="text/css">
	.st0{display:none;}
	.st1{fill:#FAFAFA;}
	.st2{fill:#FE7139;}
	.st3{fill:none;stroke:#000000;stroke-miterlimit:10;}
	.st4{fill:#FED339;}
	.st5{fill:#FAFAFA;stroke:#000000;stroke-miterlimit:10;}
	.st6{fill:#FFFFFF;stroke:#000000;stroke-miterlimit:10;}
	.st7{fill:#754C24;stroke:#000000;stroke-miterlimit:10;}
	.st8{fill:#FFFFFF;}
	.st9{fill:none;stroke:#FFFFFF;stroke-width:2;stroke-miterlimit:10;}
	.st10{fill:none;}
	.st11{fill:#3964FE;}
	.st12{fill:none;stroke:#3964FE;stroke-miterlimit:10;}
	.st13{fill:none;stroke:#FE7139;stroke-miterlimit:10;}
</style>
<g id="Capa_2" class="st0">
</g>
<g id="CHICOPAN">
</g>
<g id="CHICAPASTEL">
</g>
<g id="CHICAMOBIL">
</g>
<g id="CHICOREVIEW">
</g>
<g id="CHICAESTADISTICAS">
</g>
<g id="HAMBURGUESA">
</g>
<g id="PIZZA">
</g>
<g id="TACO">
</g>
<g id="POKE">
</g>
<g id="INDIO">
	<g>
		<polygon class="st3" points="71.01,93.47 29.05,93.47 24.51,45.66 75.54,45.66 		"/>
		<line class="st3" x1="29.05" y1="93.47" x2="75.54" y2="45.66"/>
		<line class="st3" x1="71.01" y1="93.47" x2="52.29" y2="69.57"/>
		<polygon class="st3" points="84.25,28.01 75.54,45.66 72.34,37.1 80.06,28.01 		"/>
		<polygon class="st3" points="15.75,28.01 24.46,45.66 27.65,37.1 19.94,28.01 		"/>
		<line class="st13" x1="59.32" y1="27.69" x2="69.72" y2="5.92"/>
		<line class="st13" x1="64.58" y1="27.69" x2="74.16" y2="7.82"/>
		<path class="st3" d="M68.23,28.01H31.82l-6.78,16.47c-0.25,0.55,0.15,1.18,0.76,1.18h48.73c0.47,0,0.78-0.49,0.59-0.92
			L68.23,28.01z"/>
	</g>
</g>
</svg>
