<?xml version="1.0" encoding="utf-8"?>
<!-- Generator: Adobe Illustrator 25.0.1, SVG Export Plug-In . SVG Version: 6.00 Build 0)  -->
<svg version="1.1" id="Capa_1" xmlns="http://www.w3.org/2000/svg" xmlns:xlink="http://www.w3.org/1999/xlink" x="0px" y="0px"
	 viewBox="0 0 100 100" style="enable-background:new 0 0 100 100;" xml:space="preserve">
<style type="text/css">
	.st0{display:none;}
	.st1{fill:none;stroke:#000000;stroke-miterlimit:10;}
	.st2{fill:none;stroke:#F14900;stroke-width:2;stroke-miterlimit:10;}
</style>
<g id="Capa_2_1_" class="st0">
</g>
<g id="CHICOPAN">
</g>
<g id="CHICAPASTEL">
</g>
<g id="CHICAMOBIL">
</g>
<g id="CHICOREVIEW">
</g>
<g id="CHICAESTADISTICAS">
</g>
<g id="HAMBURGUESA">
</g>
<g id="PIZZA">
</g>
<g id="TACO">
</g>
<g id="POKE">
</g>
<g id="INDIO">
	<g>
		<polygon class="st1" points="71,93.5 29,93.5 24.5,45.7 75.5,45.7 		"/>
		<line class="st1" x1="29" y1="93.5" x2="75.5" y2="45.7"/>
		<line class="st1" x1="71" y1="93.5" x2="52.3" y2="69.6"/>
		<polygon class="st1" points="84.2,28 75.5,45.7 72.3,37.1 80.1,28 		"/>
		<polygon class="st1" points="15.8,28 24.5,45.7 27.6,37.1 19.9,28 		"/>
		<line class="st2" x1="58.9" y1="28" x2="69.3" y2="6.2"/>
		<line class="st2" x1="64.2" y1="28" x2="73.8" y2="8.1"/>
		<path class="st1" d="M68.2,28H31.8L25,44.5c-0.2,0.5,0.1,1.2,0.8,1.2h48.7c0.5,0,0.8-0.5,0.6-0.9L68.2,28z"/>
	</g>
</g>
</svg>
