<?xml version="1.0" encoding="utf-8"?>
<!-- Generator: Adobe Illustrator 25.0.1, SVG Export Plug-In . SVG Version: 6.00 Build 0)  -->
<svg version="1.1" id="Capa_1" xmlns="http://www.w3.org/2000/svg" xmlns:xlink="http://www.w3.org/1999/xlink" x="0px" y="0px"
	 viewBox="0 0 100 100" style="enable-background:new 0 0 100 100;" xml:space="preserve">
<style type="text/css">
	.st0{fill:#F14900;}
	.st1{fill:#FED339;}
</style>
<path class="st0" d="M78.3,23.4c-0.2,0.1-0.4,0.1-0.6,0.2c3.1-3.7-2.1-9.3-6-6.2c3-4.7-4.4-9.4-7.4-4.7c2.3-5.3-6.1-8.6-8.1-3.2
	c-0.6-4.7-7.8-4.8-8.6-0.2c-0.4-5.2-8.5-5-8.7,0.1C37,4.4,29.3,6.9,30.6,12c-3.2-4.1-9.9,0.4-7.2,4.9c-3.3-3.3-9.1,1-6.9,5.2
	c-4.7-3.2-9.7,4.4-4.8,7.4c-5.1-2.1-8.4,6-3.3,8.1c-4.9-0.2-6,7.3-1.3,8.6c-6,0.9-3.7,10.4,2.1,8.5c4.1-1.1,4-7.3-0.1-8.4
	c4.2-0.5,4.9-6.8,1-8.3c4.3,0.2,6-5.9,2.3-8.1c3.5,1.5,7.3-2.6,5.5-6c3.6,2.6,8.6-2,6.2-5.8c2.9,2.9,8.3-0.2,7.2-4.2
	c0.7,0.9,1.9,1.5,3,1.6c1.2,0.1,2.3-0.3,3.2-1l0,0c0.9-0.8,1.5-1.9,1.5-3c1.4,3.9,7.6,3.4,8.3-0.7c0.3,4.5,7,5.3,8.4,1.1
	c0.5,3.8,5.9,5,7.9,1.7c-1.8,3.9,3.2,7.9,6.6,5.2c-2.3,3.5,1.9,8.2,5.6,6.2C73.5,28,77,33.1,81,31.7C86.4,30.1,83.7,21.5,78.3,23.4z
	"/>
<path class="st1" d="M77.9,35.3l-64,20.4c-1.8,0.6-3.6-0.5-4-2.2c-9.1-41,53.8-61,70.1-22.3C80.7,32.8,79.7,34.8,77.9,35.3z"/>
<path class="st0" d="M90.9,85.3c-0.2-0.1-0.4-0.1-0.6-0.2c4.8-0.6,4.8-8.2-0.2-8.7c5.3-1.4,3.2-9.8-2.2-8.5
	c5.3-2.3,1.3-10.5-3.8-7.9c2.8-3.8-2.4-8.8-6.1-6c3.2-4.1-2.8-9.5-6.5-5.8c0.7-2.1-0.1-4.5-2.2-5.5c-2.1-1-4.6-0.1-5.7,1.8
	c0.5-5.2-7.5-6.4-8.6-1.3c-0.2-4.6-7.3-5.5-8.5-0.9c-1.3-5.6-10.1-3.4-8.5,2.2c-2.4-5-10.3-1.3-7.9,3.7c-3.5-3.5-9.3,1.3-6.8,5.4
	c-5.1-3.4-9.8,5.1-4.2,7.6c3.8,1.9,7.9-2.7,5.6-6.2c3.5,2.5,8.2-1.7,6.4-5.4c3,3.1,8.4-0.3,7.2-4.3c1.6,3.5,7.1,3,8.1-0.7
	c0.9,4.4,7.6,4.4,8.5,0c0.2,4.1,6.2,5.5,8.2,1.8c-0.1,1.2,0.3,2.3,1.1,3.2l0,0c0.4,0.4,0.9,0.8,1.4,1c0.3,0.1,0.5,0.2,0.8,0.3
	c0.3,0.1,0.6,0.1,0.9,0.1c1.2,0,2.3-0.4,3.2-1.2c-1.6,3.9,3.3,7.6,6.6,5.1c-2.8,3.5,1.5,8.7,5.4,6.6c-2.3,3.1,0.9,7.7,4.6,6.7
	c-3.9,1.6-3,7.9,1.3,8.3c-4.1,1-4.2,7.3-0.1,8.4c-4.1,0.5-5,6.6-1.1,8.3C92.3,95.8,96.1,87.6,90.9,85.3z"/>
<path class="st1" d="M82.6,93.8L21.7,65.3c-1.7-0.8-2.4-2.8-1.5-4.4c21.1-36.3,80.9-8.3,66.6,31.2C86.2,93.9,84.3,94.6,82.6,93.8z"
	/>
</svg>
