<?xml version="1.0" encoding="utf-8"?>
<!-- Generator: Adobe Illustrator 25.2.0, SVG Export Plug-In . SVG Version: 6.00 Build 0)  -->
<svg version="1.1" xmlns="http://www.w3.org/2000/svg" xmlns:xlink="http://www.w3.org/1999/xlink" x="0px" y="0px"
	 viewBox="0 0 100 100" style="enable-background:new 0 0 100 100;" xml:space="preserve">
<style type="text/css">
	.st0{display:none;}
	.st1{fill:#FAFAFA;}
	.st2{fill:#FE7139;}
	.st3{fill:none;stroke:#000000;stroke-miterlimit:10;}
	.st4{fill:#FED339;}
	.st5{fill:#FAFAFA;stroke:#000000;stroke-miterlimit:10;}
	.st6{fill:#FFFFFF;stroke:#000000;stroke-miterlimit:10;}
	.st7{fill:#754C24;stroke:#000000;stroke-miterlimit:10;}
	.st8{fill:#FFFFFF;}
	.st9{fill:none;stroke:#FFFFFF;stroke-width:2;stroke-miterlimit:10;}
	.st10{fill:none;}
	.st11{fill:#3964FE;}
	.st12{fill:none;stroke:#3964FE;stroke-miterlimit:10;}
	.st13{fill:none;stroke:#FE7139;stroke-miterlimit:10;}
	.st14{fill:none;stroke:#FED339;stroke-miterlimit:10;}
	.st15{fill:none;stroke:#FED339;stroke-width:2;stroke-miterlimit:10;}
	.st16{fill:#FAFAFA;stroke:#000000;stroke-width:2;stroke-miterlimit:10;}
	.st17{fill:#FF0000;}
</style>
<g id="Capa_2" class="st0">
</g>
<g id="CHICOPAN">
</g>
<g id="CHICAPASTEL">
</g>
<g id="CHICAMOBIL">
</g>
<g id="CHICOREVIEW">
</g>
<g id="CHICAESTADISTICAS">
</g>
<g id="AMERICANO">
</g>
<g id="PIZZA">
</g>
<g id="MEXICANO">
</g>
<g id="POKE">
</g>
<g id="INDIO">
</g>
<g id="GRIEGO">
</g>
<g id="TAILANDES">
</g>
<g id="COREANA">
</g>
<g id="COLOMPIANA">
	<g>
		<path class="st2" d="M78.29,23.36c-0.19,0.06-0.37,0.15-0.55,0.24c0.85-1.1,1.16-2.59,0.71-4.01c-0.74-2.31-3.21-3.58-5.52-2.85
			c-0.44,0.14-0.83,0.36-1.19,0.62c0.62-1.04,0.83-2.33,0.43-3.58c-0.74-2.31-3.21-3.58-5.52-2.85c-0.97,0.31-1.74,0.94-2.28,1.72
			c0.38-0.92,0.46-1.97,0.14-2.99C63.78,7.35,61.31,6.07,59,6.81c-1.31,0.42-2.27,1.41-2.74,2.6C56.23,9.2,56.2,9,56.13,8.79
			c-0.74-2.31-3.21-3.58-5.52-2.85c-1.54,0.49-2.61,1.76-2.93,3.23c-0.03-0.29-0.09-0.59-0.18-0.88c-0.74-2.31-3.21-3.58-5.52-2.85
			c-1.76,0.56-2.92,2.14-3.04,3.88c-0.06-0.15-0.14-0.28-0.22-0.42c-0.02-0.03-0.03-0.06-0.05-0.09c-0.13-0.23-0.28-0.44-0.45-0.64
			c-0.01-0.02-0.03-0.03-0.04-0.05c-1.11-1.28-2.9-1.87-4.62-1.32c-0.01,0-0.01,0.01-0.02,0.01s-0.01,0-0.02,0
			c-1.72,0.55-2.84,2.06-3,3.75c0,0.02,0,0.04,0,0.07c-0.02,0.26-0.02,0.52,0.01,0.78c0,0.04,0.01,0.07,0.01,0.11
			c0.02,0.16,0.03,0.31,0.06,0.47c-1.11-1.35-2.96-1.97-4.72-1.41c-2.31,0.74-3.58,3.21-2.85,5.52c0.09,0.29,0.21,0.57,0.36,0.82
			c-1.12-1.01-2.72-1.43-4.26-0.94c-2.31,0.74-3.58,3.21-2.85,5.52c0.07,0.2,0.16,0.39,0.25,0.58c-1.07-0.7-2.42-0.95-3.74-0.53
			c-2.31,0.74-3.58,3.21-2.85,5.52c0.33,1.02,1,1.82,1.84,2.36c-0.89-0.33-1.88-0.39-2.85-0.08c-2.31,0.74-3.58,3.21-2.85,5.52
			c0.4,1.25,1.31,2.18,2.43,2.67c-0.44,0-0.89,0.05-1.33,0.19c-2.31,0.74-3.58,3.21-2.85,5.52c0.45,1.43,1.57,2.45,2.9,2.86
			c-0.2,0.03-0.39,0.06-0.59,0.12c-2.31,0.74-3.58,3.21-2.85,5.52c0.74,2.31,3.21,3.58,5.52,2.85c2.31-0.74,3.58-3.21,2.85-5.52
			c-0.45-1.43-1.57-2.45-2.9-2.86c0.2-0.03,0.39-0.06,0.59-0.12c2.31-0.74,3.58-3.21,2.85-5.52c-0.4-1.25-1.31-2.18-2.43-2.67
			c0.44,0,0.89-0.05,1.33-0.19c2.31-0.74,3.58-3.21,2.85-5.52c-0.33-1.02-1-1.82-1.84-2.36c0.89,0.33,1.88,0.39,2.85,0.08
			c2.31-0.74,3.58-3.21,2.85-5.52c-0.07-0.2-0.16-0.39-0.25-0.58c1.07,0.7,2.42,0.95,3.74,0.53c2.31-0.74,3.58-3.21,2.85-5.52
			c-0.09-0.29-0.21-0.57-0.36-0.82c1.12,1.01,2.72,1.43,4.27,0.94c2.19-0.7,3.43-2.96,2.92-5.17c0.75,0.92,1.85,1.48,3.02,1.59
			c0,0,0,0,0,0c0.27,0.02,0.54,0.02,0.81-0.01c0.02,0,0.05,0,0.07-0.01c0.27-0.03,0.54-0.08,0.81-0.17c0.01,0,0.01-0.01,0.02-0.01
			s0.01,0,0.02,0c0.27-0.09,0.52-0.2,0.76-0.33c0.02-0.01,0.04-0.03,0.06-0.04c0.24-0.14,0.46-0.29,0.67-0.47c0,0,0,0,0,0
			c0.9-0.76,1.47-1.86,1.55-3.04c0.86,2.1,3.18,3.22,5.37,2.52c1.54-0.49,2.61-1.76,2.93-3.23c0.03,0.29,0.09,0.59,0.18,0.88
			c0.74,2.31,3.21,3.58,5.52,2.85c1.31-0.42,2.27-1.41,2.74-2.6c0.03,0.21,0.06,0.41,0.13,0.61c0.74,2.31,3.21,3.58,5.52,2.85
			c0.97-0.31,1.74-0.94,2.28-1.72c-0.38,0.92-0.46,1.97-0.14,2.99c0.74,2.31,3.21,3.58,5.52,2.85c0.44-0.14,0.83-0.36,1.19-0.62
			c-0.63,1.04-0.83,2.33-0.43,3.58c0.74,2.31,3.21,3.58,5.52,2.85c0.19-0.06,0.37-0.15,0.55-0.24c-0.85,1.1-1.16,2.59-0.71,4.01
			c0.74,2.31,3.21,3.58,5.52,2.85c2.31-0.74,3.58-3.21,2.85-5.52C83.07,23.9,80.6,22.62,78.29,23.36z"/>
		<path class="st4" d="M77.95,35.32L13.9,55.75c-1.79,0.57-3.64-0.46-4.02-2.21C6.11,35.93,16.9,17.77,35.21,11.93
			s37.62,2.72,44.74,19.26C80.65,32.84,79.74,34.75,77.95,35.32z"/>
	</g>
	<g>
		<path class="st2" d="M90.95,85.29c-0.18-0.09-0.38-0.14-0.57-0.2c1.37-0.23,2.61-1.11,3.25-2.46c1.03-2.2,0.08-4.81-2.11-5.84
			c-0.42-0.2-0.86-0.3-1.3-0.36c1.17-0.34,2.19-1.15,2.75-2.33c1.03-2.2,0.08-4.81-2.11-5.84c-0.92-0.43-1.91-0.5-2.84-0.29
			c0.9-0.42,1.68-1.13,2.13-2.1c1.03-2.2,0.08-4.81-2.11-5.84c-1.25-0.58-2.62-0.51-3.77,0.05c0.11-0.17,0.23-0.35,0.32-0.54
			c1.03-2.2,0.08-4.81-2.11-5.84c-1.47-0.69-3.11-0.48-4.35,0.38c0.18-0.24,0.33-0.49,0.46-0.77c1.03-2.2,0.08-4.81-2.11-5.84
			c-1.68-0.79-3.59-0.41-4.87,0.79c0.06-0.15,0.08-0.3,0.12-0.46c0.01-0.03,0.02-0.07,0.03-0.1c0.06-0.26,0.09-0.51,0.11-0.77
			c0-0.02,0-0.04,0-0.07c0.06-1.7-0.86-3.34-2.49-4.11c-0.01,0-0.01,0-0.02-0.01c-0.01,0-0.01-0.01-0.02-0.01
			c-1.64-0.77-3.48-0.41-4.75,0.72c-0.02,0.01-0.03,0.03-0.05,0.05c-0.19,0.17-0.36,0.37-0.52,0.57c-0.02,0.03-0.04,0.06-0.06,0.09
			c-0.09,0.13-0.19,0.25-0.27,0.39c0.1-1.74-0.83-3.45-2.51-4.24c-2.2-1.03-4.81-0.08-5.84,2.11c-0.13,0.28-0.23,0.56-0.3,0.85
			c-0.14-1.5-1.03-2.9-2.49-3.59c-2.2-1.03-4.81-0.08-5.84,2.11c-0.09,0.19-0.15,0.39-0.21,0.59c-0.31-1.24-1.13-2.34-2.38-2.93
			c-2.2-1.03-4.81-0.08-5.84,2.11c-0.45,0.97-0.5,2.02-0.25,2.98c-0.43-0.84-1.11-1.56-2.04-2c-2.2-1.03-4.81-0.08-5.84,2.11
			c-0.56,1.19-0.52,2.49-0.03,3.61c-0.32-0.3-0.68-0.57-1.1-0.77c-2.2-1.03-4.81-0.08-5.84,2.11c-0.63,1.36-0.51,2.87,0.19,4.07
			c-0.17-0.11-0.33-0.22-0.51-0.31c-2.2-1.03-4.81-0.08-5.84,2.11c-1.03,2.2-0.08,4.81,2.11,5.84c2.2,1.03,4.81,0.08,5.84-2.11
			c0.63-1.36,0.51-2.87-0.19-4.07c0.17,0.11,0.33,0.22,0.51,0.31c2.2,1.03,4.81,0.08,5.84-2.11c0.56-1.19,0.52-2.49,0.03-3.61
			c0.32,0.3,0.68,0.57,1.1,0.77c2.2,1.03,4.81,0.08,5.84-2.11c0.45-0.97,0.5-2.02,0.25-2.98c0.43,0.84,1.11,1.56,2.04,2
			c2.2,1.03,4.81,0.08,5.84-2.11c0.09-0.19,0.15-0.39,0.21-0.59c0.31,1.24,1.13,2.34,2.38,2.93c2.2,1.03,4.81,0.08,5.84-2.11
			c0.13-0.28,0.23-0.56,0.3-0.85c0.14,1.5,1.03,2.9,2.49,3.59c2.09,0.98,4.53,0.16,5.66-1.81c-0.07,1.18,0.35,2.34,1.14,3.22
			c0,0,0,0,0,0c0.18,0.2,0.38,0.38,0.6,0.55c0.02,0.01,0.04,0.03,0.06,0.04c0.22,0.16,0.45,0.31,0.71,0.43c0.01,0,0.01,0,0.02,0.01
			c0.01,0,0.01,0.01,0.02,0.01c0.26,0.12,0.52,0.2,0.78,0.27C66.45,51,66.48,51,66.5,51.01c0.27,0.06,0.54,0.1,0.81,0.11
			c0,0,0,0,0,0c1.18,0.05,2.34-0.37,3.2-1.18c-0.79,2.12,0.14,4.53,2.23,5.5c1.47,0.69,3.11,0.48,4.35-0.38
			c-0.18,0.24-0.33,0.49-0.46,0.77c-1.03,2.2-0.08,4.81,2.11,5.84c1.25,0.58,2.62,0.51,3.77-0.05c-0.11,0.17-0.23,0.35-0.32,0.54
			c-1.03,2.2-0.08,4.81,2.11,5.84c0.92,0.43,1.91,0.5,2.84,0.29c-0.9,0.42-1.68,1.13-2.13,2.1c-1.03,2.2-0.08,4.81,2.11,5.84
			c0.42,0.2,0.86,0.3,1.3,0.36c-1.17,0.34-2.19,1.15-2.75,2.33c-1.03,2.2-0.08,4.81,2.11,5.84c0.18,0.09,0.38,0.14,0.57,0.2
			c-1.37,0.23-2.61,1.11-3.25,2.46c-1.03,2.2-0.08,4.81,2.11,5.84c2.2,1.03,4.81,0.08,5.84-2.11
			C94.09,88.93,93.14,86.31,90.95,85.29z"/>
		<path class="st4" d="M82.57,93.84L21.69,65.33c-1.7-0.8-2.36-2.82-1.45-4.36c9.19-15.48,29.44-21.49,46.85-13.34
			s25.76,27.55,19.75,44.52C86.25,93.85,84.27,94.63,82.57,93.84z"/>
	</g>
</g>
<g id="PERUANO">
</g>
<g id="Turco">
</g>
</svg>
