<?xml version="1.0" encoding="utf-8"?>
<!-- Generator: Adobe Illustrator 25.0.1, SVG Export Plug-In . SVG Version: 6.00 Build 0)  -->
<svg version="1.1" id="Capa_1" xmlns="http://www.w3.org/2000/svg" xmlns:xlink="http://www.w3.org/1999/xlink" x="0px" y="0px"
	 viewBox="0 0 100 100" style="enable-background:new 0 0 100 100;" xml:space="preserve">
<style type="text/css">
	.st0{display:none;}
	.st1{fill:#FED339;}
	.st2{fill:#FAFAFA;stroke:#000000;stroke-width:2;stroke-miterlimit:10;}
	.st3{fill:#F14900;}
</style>
<g id="Capa_2_1_" class="st0">
</g>
<g id="CHICOPAN">
</g>
<g id="CHICAPASTEL">
</g>
<g id="CHICAMOBIL">
</g>
<g id="CHICOREVIEW">
</g>
<g id="CHICAESTADISTICAS">
</g>
<g id="AMERICANO">
</g>
<g id="PIZZA">
</g>
<g id="MEXICANO">
</g>
<g id="POKE">
</g>
<g id="INDIO">
</g>
<g id="GRIEGO">
</g>
<g id="TAILANDES">
</g>
<polygon class="st1" points="94.8,78.5 5.2,78.5 5.2,88.8 11.3,88.8 11.3,93.1 26.6,93.1 26.6,88.8 72.9,88.8 72.9,93.1 88.2,93.1 
	88.2,88.8 94.8,88.8 "/>
<circle class="st2" cx="37.1" cy="42.1" r="12.6"/>
<circle class="st3" cx="37.1" cy="42.1" r="6.1"/>
<circle class="st2" cx="63.1" cy="42" r="12.6"/>
<circle class="st3" cx="63.1" cy="42" r="6.1"/>
<g>
	<circle class="st2" cx="50.2" cy="19.5" r="12.6"/>
	<circle class="st3" cx="50.2" cy="19.5" r="6.1"/>
</g>
<circle class="st2" cx="50" cy="64.6" r="12.6"/>
<circle class="st3" cx="50" cy="64.6" r="6.1"/>
<circle class="st2" cx="76.1" cy="64.6" r="12.6"/>
<circle class="st3" cx="76.1" cy="64.6" r="6.1"/>
<circle class="st2" cx="23.9" cy="64.6" r="12.6"/>
<circle class="st3" cx="23.9" cy="64.6" r="6.1"/>
<g id="COLOMPIANA">
</g>
<g id="PERUANO">
</g>
<g id="Turco">
</g>
</svg>
