<?xml version="1.0" encoding="utf-8"?>
<!-- Generator: Adobe Illustrator 25.0.1, SVG Export Plug-In . SVG Version: 6.00 Build 0)  -->
<svg version="1.1" id="Capa_1" xmlns="http://www.w3.org/2000/svg" xmlns:xlink="http://www.w3.org/1999/xlink" x="0px" y="0px"
	 viewBox="0 0 100 100" style="enable-background:new 0 0 100 100;" xml:space="preserve">
<style type="text/css">
	.st0{display:none;}
	.st1{fill:none;stroke:#000000;stroke-miterlimit:10;}
	.st2{fill:#F14900;}
	.st3{fill:#FED339;}
</style>
<g id="Capa_2_1_" class="st0">
</g>
<g id="CHICOPAN">
</g>
<g id="CHICAPASTEL">
</g>
<g id="CHICAMOBIL">
</g>
<g id="CHICOREVIEW">
</g>
<g id="CHICAESTADISTICAS">
</g>
<g id="AMERICANO">
</g>
<g id="PIZZA">
</g>
<g id="MEXICANO">
</g>
<g id="POKE">
</g>
<g id="INDIO">
</g>
<g>
	<g>
		<line class="st1" x1="16.7" y1="95.8" x2="89.1" y2="40.5"/>
	</g>
	<path d="M88.9,40.6c0.1,0.1,0.2,0.2,0.3,0.3l0.7-0.5c-0.1-0.1-0.2-0.2-0.3-0.3c-1.4-1.8-1-4.5,0.8-5.9c1.8-1.4,4.5-1,5.9,0.8
		s1,4.5-0.8,5.9c0,0,0,0,0,0l0.5,0.6c0,0,0,0,0,0c2.2-1.7,2.6-4.8,1-7c-1.7-2.2-4.8-2.6-7-1C87.6,35.3,87.2,38.4,88.9,40.6z"/>
</g>
<path class="st2" d="M44.3,66.2l8,10.6c0.5,0.7,0.5,1.7-0.2,2.1l-5.6,4.2c-0.6,0.5-1.6,0.3-2.1-0.4l-8-10.6
	c-0.5-0.7-0.5-1.7,0.2-2.1l5.6-4.2C42.8,65.3,43.8,65.5,44.3,66.2z"/>
<path class="st2" d="M54.7,58.1l8,10.6c0.5,0.7,0.5,1.7-0.2,2.1L57,75.1c-0.6,0.5-1.6,0.3-2.1-0.4l-8-10.6c-0.5-0.7-0.5-1.7,0.2-2.1
	l5.6-4.2C53.2,57.2,54.2,57.4,54.7,58.1z"/>
<path class="st2" d="M33.9,74.2l8,10.6c0.5,0.7,0.5,1.7-0.2,2.1l-5.6,4.2c-0.6,0.5-1.6,0.3-2.1-0.4l-8-10.6
	c-0.5-0.7-0.5-1.7,0.2-2.1l5.6-4.2C32.4,73.3,33.4,73.5,33.9,74.2z"/>
<path class="st2" d="M65.1,50.1l8,10.6c0.5,0.7,0.4,1.7-0.2,2.1L67.3,67c-0.6,0.5-1.6,0.3-2.1-0.4l-8-10.6c-0.5-0.7-0.5-1.7,0.2-2.1
	l5.6-4.2C63.6,49.2,64.6,49.4,65.1,50.1z"/>
<path class="st2" d="M75.5,42l8,10.6c0.5,0.7,0.4,1.7-0.2,2.1L77.7,59c-0.6,0.5-1.6,0.3-2.1-0.4l-8-10.6c-0.5-0.7-0.4-1.7,0.2-2.1
	l5.6-4.2C74,41.2,75,41.3,75.5,42z"/>
<path class="st3" d="M66.7,46.6L76.8,60c0.5,0.7,0.4,1.7-0.3,2.3l-0.1,0c-0.7,0.5-1.7,0.4-2.3-0.3L64,48.6c-0.5-0.7-0.4-1.7,0.3-2.3
	l0.1,0C65.1,45.8,66.1,45.9,66.7,46.6z"/>
<path class="st3" d="M56.2,54.7l10.1,13.4c0.5,0.7,0.4,1.7-0.3,2.3l-0.1,0c-0.7,0.5-1.7,0.4-2.3-0.3L53.6,56.7
	C53,56,53.2,55,53.9,54.4l0,0C54.7,53.8,55.7,54,56.2,54.7z"/>
<path class="st3" d="M45.9,62.7L56,76.1c0.5,0.7,0.4,1.7-0.3,2.3l0,0c-0.7,0.5-1.7,0.4-2.3-0.3L43.2,64.7c-0.5-0.7-0.4-1.7,0.3-2.3
	l0,0C44.3,61.9,45.3,62,45.9,62.7z"/>
<path class="st3" d="M35.5,70.8l10.1,13.3c0.5,0.7,0.4,1.7-0.3,2.3l0,0c-0.7,0.5-1.7,0.4-2.3-0.3L32.8,72.8
	c-0.5-0.7-0.4-1.7,0.3-2.3l0,0C33.9,69.9,34.9,70.1,35.5,70.8z"/>
<g>
	<g>
		<line class="st1" x1="4" y1="90.3" x2="52.8" y2="13.3"/>
	</g>
	<path d="M52.6,13.5c0.1,0.1,0.2,0.1,0.4,0.2l0.5-0.7c-0.1-0.1-0.3-0.1-0.4-0.2c-2-1.2-2.5-3.9-1.3-5.8s3.9-2.5,5.8-1.3
		s2.5,3.9,1.3,5.8c0,0,0,0,0,0l0.7,0.4c0,0,0,0,0,0C61,9.7,60.3,6.5,58,5S52.5,4.2,51,6.6S50.2,12,52.6,13.5z"/>
</g>
<path class="st2" d="M19.6,52.9l11.2,7.1c0.7,0.5,1,1.4,0.6,2L27.6,68c-0.4,0.7-1.4,0.8-2.1,0.3l-11.2-7.1c-0.7-0.5-1-1.4-0.6-2
	l3.8-5.9C18,52.6,18.9,52.5,19.6,52.9z"/>
<path class="st2" d="M26.6,41.8l11.2,7.1c0.7,0.5,1,1.4,0.6,2l-3.8,5.9c-0.4,0.7-1.4,0.8-2.1,0.3l-11.2-7.1c-0.7-0.5-1-1.4-0.6-2
	l3.8-5.9C24.9,41.4,25.9,41.3,26.6,41.8z"/>
<path class="st2" d="M12.7,64.1l11.2,7.1c0.7,0.5,1,1.4,0.6,2.1l-3.8,5.9c-0.4,0.7-1.4,0.8-2.1,0.3L7.3,72.4c-0.7-0.5-1-1.4-0.6-2.1
	l3.8-5.9C11,63.8,11.9,63.6,12.7,64.1z"/>
<path class="st2" d="M33.5,30.6l11.2,7.1c0.7,0.5,1,1.4,0.6,2l-3.8,5.9c-0.4,0.7-1.4,0.8-2.1,0.3L28.2,39c-0.7-0.5-1-1.4-0.6-2
	l3.8-5.9C31.9,30.3,32.8,30.2,33.5,30.6z"/>
<path class="st2" d="M40.5,19.5l11.2,7.1c0.7,0.5,1,1.4,0.6,2l-3.8,5.9c-0.4,0.7-1.4,0.8-2.1,0.3l-11.2-7.1c-0.7-0.5-1-1.4-0.6-2
	l3.8-5.9C38.8,19.2,39.8,19,40.5,19.5z"/>
<path class="st3" d="M33.8,26.9l14.1,9c0.8,0.5,1,1.5,0.5,2.2l0,0.1c-0.5,0.8-1.5,1-2.2,0.5l-14.1-9c-0.8-0.5-1-1.5-0.5-2.2l0-0.1
	C32.1,26.6,33.1,26.4,33.8,26.9z"/>
<path class="st3" d="M26.9,38l14.1,9c0.8,0.5,1,1.5,0.5,2.2l0,0.1c-0.5,0.8-1.5,1-2.2,0.5l-14.1-9c-0.8-0.5-1-1.5-0.5-2.2l0-0.1
	C25.1,37.8,26.1,37.5,26.9,38z"/>
<path class="st3" d="M19.9,49.2l14.1,9c0.8,0.5,1,1.5,0.5,2.2l0,0.1c-0.5,0.8-1.5,1-2.2,0.5l-14.1-9c-0.8-0.5-1-1.5-0.5-2.2l0-0.1
	C18.1,48.9,19.1,48.7,19.9,49.2z"/>
<path class="st3" d="M12.9,60.3l14.1,9c0.8,0.5,1,1.5,0.5,2.2l0,0.1c-0.5,0.8-1.5,1-2.2,0.5l-14.1-9c-0.8-0.5-1-1.5-0.5-2.2l0-0.1
	C11.2,60.1,12.2,59.8,12.9,60.3z"/>
<g id="TAILANDES">
</g>
<g id="COREANA">
</g>
<g id="COLOMPIANA">
</g>
<g id="PERUANO">
</g>
<g id="Turco">
</g>
</svg>
