<?xml version="1.0" encoding="utf-8"?>
<!-- Generator: Adobe Illustrator 25.2.0, SVG Export Plug-In . SVG Version: 6.00 Build 0)  -->
<svg version="1.1" xmlns="http://www.w3.org/2000/svg" xmlns:xlink="http://www.w3.org/1999/xlink" x="0px" y="0px"
	 viewBox="0 0 100 100" style="enable-background:new 0 0 100 100;" xml:space="preserve">
<style type="text/css">
	.st0{display:none;}
	.st1{fill:#FAFAFA;}
	.st2{fill:#FE7139;}
	.st3{fill:none;stroke:#000000;stroke-miterlimit:10;}
	.st4{fill:#FED339;}
	.st5{fill:#FAFAFA;stroke:#000000;stroke-miterlimit:10;}
	.st6{fill:#FFFFFF;stroke:#000000;stroke-miterlimit:10;}
	.st7{fill:#754C24;stroke:#000000;stroke-miterlimit:10;}
	.st8{fill:#FFFFFF;}
	.st9{fill:none;stroke:#FFFFFF;stroke-width:2;stroke-miterlimit:10;}
	.st10{fill:none;}
	.st11{fill:#3964FE;}
	.st12{fill:none;stroke:#3964FE;stroke-miterlimit:10;}
	.st13{fill:none;stroke:#FE7139;stroke-miterlimit:10;}
	.st14{fill:none;stroke:#FED339;stroke-miterlimit:10;}
	.st15{fill:none;stroke:#FED339;stroke-width:2;stroke-miterlimit:10;}
	.st16{fill:#FAFAFA;stroke:#000000;stroke-width:2;stroke-miterlimit:10;}
	.st17{fill:#FF0000;}
</style>
<g id="Capa_2" class="st0">
</g>
<g id="CHICOPAN">
</g>
<g id="CHICAPASTEL">
</g>
<g id="CHICAMOBIL">
</g>
<g id="CHICOREVIEW">
</g>
<g id="CHICAESTADISTICAS">
</g>
<g id="AMERICANO">
</g>
<g id="PIZZA">
</g>
<g id="MEXICANO">
</g>
<g id="POKE">
</g>
<g id="INDIO">
</g>
<g id="GRIEGO">
	<g>
		<g>
			<g>
				<line class="st3" x1="16.72" y1="95.83" x2="89.12" y2="40.46"/>
			</g>
			<path d="M88.86,40.62c0.09,0.12,0.19,0.23,0.28,0.34l0.66-0.5c-0.1-0.11-0.21-0.2-0.3-0.32c-1.4-1.85-1.04-4.5,0.81-5.91
				c1.85-1.4,4.5-1.04,5.91,0.81s1.04,4.5-0.81,5.91c0,0-0.01,0-0.01,0.01l0.49,0.64c0,0,0.01,0,0.01-0.01
				c2.21-1.67,2.64-4.83,0.97-7.04c-1.67-2.21-4.83-2.64-7.04-0.97C87.62,35.26,87.19,38.42,88.86,40.62z"/>
		</g>
		<path class="st2" d="M44.3,66.18l8.03,10.57c0.53,0.7,0.45,1.65-0.18,2.12l-5.61,4.25c-0.63,0.47-1.57,0.29-2.1-0.4l-8.03-10.57
			c-0.53-0.7-0.45-1.65,0.18-2.12l5.61-4.25C42.83,65.3,43.77,65.48,44.3,66.18z"/>
		<path class="st2" d="M54.72,58.12l8.03,10.57c0.53,0.7,0.45,1.65-0.18,2.12l-5.61,4.25c-0.63,0.47-1.57,0.29-2.1-0.4l-8.03-10.57
			c-0.53-0.7-0.45-1.65,0.18-2.12l5.61-4.25C53.25,57.24,54.19,57.42,54.72,58.12z"/>
		<path class="st2" d="M33.9,74.22l8.03,10.57c0.53,0.7,0.45,1.65-0.18,2.12l-5.61,4.25c-0.63,0.47-1.57,0.29-2.1-0.4l-8.03-10.57
			c-0.53-0.7-0.45-1.65,0.18-2.12l5.61-4.25C32.43,73.34,33.37,73.52,33.9,74.22z"/>
		<path class="st2" d="M65.09,50.09l8.03,10.57c0.53,0.7,0.45,1.65-0.18,2.12l-5.61,4.25c-0.63,0.47-1.57,0.29-2.1-0.4l-8.03-10.57
			c-0.53-0.7-0.45-1.65,0.18-2.12l5.61-4.25C63.62,49.21,64.56,49.39,65.09,50.09z"/>
		<path class="st2" d="M75.5,42.03l8.03,10.57c0.53,0.7,0.45,1.65-0.18,2.12l-5.61,4.25c-0.63,0.47-1.57,0.29-2.1-0.4L67.62,48
			c-0.53-0.7-0.45-1.65,0.18-2.12l5.61-4.25C74.04,41.15,74.97,41.33,75.5,42.03z"/>
		<path class="st4" d="M66.66,46.64l10.1,13.35c0.54,0.72,0.4,1.74-0.32,2.28l-0.05,0.04c-0.72,0.54-1.74,0.4-2.28-0.32l-10.1-13.35
			c-0.54-0.72-0.4-1.74,0.32-2.28l0.05-0.04C65.09,45.78,66.11,45.92,66.66,46.64z"/>
		<path class="st4" d="M56.24,54.7l10.1,13.35c0.54,0.72,0.4,1.74-0.32,2.28l-0.05,0.04c-0.72,0.54-1.74,0.4-2.28-0.32L53.59,56.7
			c-0.54-0.72-0.4-1.74,0.32-2.28l0.05-0.04C54.68,53.84,55.7,53.98,56.24,54.7z"/>
		<path class="st4" d="M45.86,62.74l10.1,13.35c0.54,0.72,0.4,1.74-0.32,2.28l-0.05,0.04c-0.72,0.54-1.74,0.4-2.28-0.32l-10.1-13.35
			c-0.54-0.72-0.4-1.74,0.32-2.28l0.05-0.04C44.29,61.88,45.31,62.02,45.86,62.74z"/>
		<path class="st4" d="M35.45,70.79l10.1,13.35c0.54,0.72,0.4,1.74-0.32,2.28l-0.05,0.04c-0.72,0.54-1.74,0.4-2.28-0.32l-10.1-13.35
			c-0.54-0.72-0.4-1.74,0.32-2.28l0.05-0.04C33.89,69.93,34.91,70.07,35.45,70.79z"/>
	</g>
	<g>
		<g>
			<g>
				<line class="st3" x1="4.04" y1="90.3" x2="52.75" y2="13.27"/>
			</g>
			<path d="M52.57,13.52c0.12,0.08,0.25,0.15,0.38,0.22l0.45-0.7c-0.13-0.07-0.27-0.12-0.39-0.2c-1.96-1.25-2.54-3.86-1.29-5.82
				c1.25-1.96,3.86-2.54,5.82-1.29s2.54,3.86,1.29,5.82c0,0,0,0.01-0.01,0.01l0.68,0.43c0,0,0-0.01,0.01-0.01
				c1.49-2.33,0.8-5.45-1.53-6.94s-5.45-0.8-6.94,1.53S50.24,12.03,52.57,13.52z"/>
		</g>
		<path class="st2" d="M19.63,52.93l11.2,7.13c0.74,0.47,1,1.39,0.57,2.05l-3.79,5.93c-0.42,0.66-1.37,0.82-2.11,0.35l-11.2-7.13
			c-0.74-0.47-1-1.39-0.57-2.05l3.79-5.93C17.95,52.61,18.89,52.46,19.63,52.93z"/>
		<path class="st2" d="M26.61,41.76l11.2,7.13c0.74,0.47,1,1.39,0.57,2.05l-3.79,5.93c-0.42,0.66-1.37,0.82-2.11,0.35l-11.2-7.13
			c-0.74-0.47-1-1.39-0.57-2.05l3.79-5.93C24.93,41.44,25.87,41.29,26.61,41.76z"/>
		<path class="st2" d="M12.67,64.08l11.2,7.13c0.74,0.47,1,1.39,0.57,2.05l-3.79,5.93c-0.42,0.66-1.37,0.82-2.11,0.35l-11.2-7.13
			c-0.74-0.47-1-1.39-0.57-2.05l3.79-5.93C10.98,63.77,11.93,63.61,12.67,64.08z"/>
		<path class="st2" d="M33.55,30.64l11.2,7.13c0.74,0.47,1,1.39,0.57,2.05l-3.79,5.93c-0.42,0.66-1.37,0.82-2.11,0.35l-11.2-7.13
			c-0.74-0.47-1-1.39-0.57-2.05l3.79-5.93C31.87,30.32,32.81,30.17,33.55,30.64z"/>
		<path class="st2" d="M40.53,19.47l11.2,7.13c0.74,0.47,1,1.39,0.57,2.05l-3.79,5.93c-0.42,0.66-1.37,0.82-2.11,0.35l-11.2-7.13
			c-0.74-0.47-1-1.39-0.57-2.05l3.79-5.93C38.85,19.15,39.79,19,40.53,19.47z"/>
		<path class="st4" d="M33.83,26.86l14.11,9.02c0.76,0.48,0.98,1.49,0.49,2.25l-0.04,0.06c-0.48,0.76-1.49,0.98-2.25,0.49
			l-14.11-9.02c-0.76-0.48-0.98-1.49-0.49-2.25l0.04-0.06C32.07,26.59,33.07,26.37,33.83,26.86z"/>
		<path class="st4" d="M26.85,38.03l14.11,9.02c0.76,0.48,0.98,1.49,0.49,2.25l-0.04,0.06c-0.48,0.76-1.49,0.98-2.25,0.49
			l-14.11-9.02c-0.76-0.48-0.98-1.49-0.49-2.25l0.04-0.06C25.09,37.76,26.1,37.54,26.85,38.03z"/>
		<path class="st4" d="M19.9,49.17L34,58.19c0.76,0.48,0.98,1.49,0.49,2.25l-0.04,0.06c-0.48,0.76-1.49,0.98-2.25,0.49l-14.11-9.02
			c-0.76-0.48-0.98-1.49-0.49-2.25l0.04-0.06C18.13,48.9,19.14,48.68,19.9,49.17z"/>
		<path class="st4" d="M12.93,60.32l14.11,9.02c0.76,0.48,0.98,1.49,0.49,2.25l-0.04,0.06c-0.48,0.76-1.49,0.98-2.25,0.49
			l-14.11-9.02c-0.76-0.48-0.98-1.49-0.49-2.25l0.04-0.06C11.17,60.06,12.17,59.84,12.93,60.32z"/>
	</g>
</g>
<g id="TAILANDES">
</g>
<g id="COREANA">
</g>
<g id="COLOMPIANA">
</g>
<g id="PERUANO">
</g>
<g id="Turco">
</g>
</svg>
