<?xml version="1.0" encoding="utf-8"?>
<!-- Generator: Adobe Illustrator 25.0.1, SVG Export Plug-In . SVG Version: 6.00 Build 0)  -->
<svg version="1.1" id="Capa_1" xmlns="http://www.w3.org/2000/svg" xmlns:xlink="http://www.w3.org/1999/xlink" x="0px" y="0px"
	 viewBox="0 0 100 100" style="enable-background:new 0 0 100 100;" xml:space="preserve">
<style type="text/css">
	.st0{display:none;}
	.st1{fill:none;stroke:#000000;stroke-miterlimit:10;}
	.st2{fill:#FED339;}
	.st3{fill:#F14900;}
</style>
<g id="Capa_2_1_" class="st0">
</g>
<g id="CHICOPAN">
</g>
<g id="CHICAPASTEL">
</g>
<g id="CHICAMOBIL">
</g>
<g id="CHICOREVIEW">
</g>
<g id="CHICAESTADISTICAS">
</g>
<g id="HAMBURGUESA">
	<g>
		<path class="st1" d="M12,70.3c0,0,1.2,8.1,6.4,8.1s62.5,0,62.5,0s6.8-1.7,7.6-8.3"/>
		<g>
			<path d="M83.6,60.6H17.3c-3.1,0-5.6-2.5-5.6-5.6s2.5-5.6,5.6-5.6h66.3c3.1,0,5.6,2.5,5.6,5.6S86.7,60.6,83.6,60.6z"/>
		</g>
		<g>
			<path class="st2" d="M83.7,49.5H17.4c-2.1,0-3.7-1.7-3.7-3.7s1.7-3.7,3.7-3.7h66.3c2.1,0,3.7,1.7,3.7,3.7S85.8,49.5,83.7,49.5z"
				/>
		</g>
		<path class="st3" d="M18.3,60.2c0,0-8.8-0.8-8.7,10c0,0,1.9,4.1,9.4,0.3s10.9-2.3,14.5-0.2s7.2,2.3,11.5,0.2s7.2-2.6,11.7,0.1
			c4.4,2.7,9.5,0.7,12-0.6c2.5-1.4,7.4-3.4,12.1-0.4c4.7,2.9,8.1,1.9,9.1,0.7c1.1-1.2,1.8-7.5-7.2-9.9L18.3,60.2z"/>
		<path class="st1" d="M85.5,42.3H16.2c0,0-6.4,0.2-3.1-5.9c2.5-4.5,12.4-15.6,36.7-15.6s36.6,11.4,38.1,15.7S88.2,42.3,85.5,42.3z"
			/>
	</g>
</g>
<g id="PIZZA">
</g>
<g id="TACO">
</g>
<g id="POKE">
</g>
<g id="INDIO">
</g>
</svg>
