<?xml version="1.0" encoding="utf-8"?>
<!-- Generator: Adobe Illustrator 25.0.1, SVG Export Plug-In . SVG Version: 6.00 Build 0)  -->
<svg version="1.1" xmlns="http://www.w3.org/2000/svg" xmlns:xlink="http://www.w3.org/1999/xlink" x="0px" y="0px"
	 viewBox="0 0 100 100" style="enable-background:new 0 0 100 100;" xml:space="preserve">
<style type="text/css">
	.st0{display:none;}
	.st1{fill:#FAFAFA;}
	.st2{fill:#FE7139;}
	.st3{fill:none;stroke:#000000;stroke-miterlimit:10;}
	.st4{fill:#FED339;}
	.st5{fill:#FAFAFA;stroke:#000000;stroke-miterlimit:10;}
	.st6{fill:#FFFFFF;stroke:#000000;stroke-miterlimit:10;}
	.st7{fill:#754C24;stroke:#000000;stroke-miterlimit:10;}
	.st8{fill:#FFFFFF;}
	.st9{fill:none;stroke:#FFFFFF;stroke-width:2;stroke-miterlimit:10;}
	.st10{fill:none;}
	.st11{fill:#3964FE;}
	.st12{fill:none;stroke:#3964FE;stroke-miterlimit:10;}
	.st13{fill:none;stroke:#FE7139;stroke-miterlimit:10;}
</style>
<g id="Capa_2" class="st0">
</g>
<g id="CHICOPAN">
</g>
<g id="CHICAPASTEL">
</g>
<g id="CHICAMOBIL">
</g>
<g id="CHICOREVIEW">
</g>
<g id="CHICAESTADISTICAS">
</g>
<g id="HAMBURGUESA">
</g>
<g id="PIZZA">
</g>
<g id="TACO">
</g>
<g id="POKE">
</g>
<g id="INDIO">
	<g>
		<path class="st2" d="M8.66,44.04c0,0-1.37-9.32,4.17-15.52c0,0-1.06,5.32,1.82,6.35c2.88,1.03-1.31-13.5,11.02-20.87
			c0,0-3.21,11.91,1.14,12.33c3.75,0.36,3.83-4.01,3.97-5.84c0,0,6.71,6.42,4.89,15.25c0,0,4.67-0.8,5.14-6.28
			c0,0,4.15,2.54,4.15,14.57H8.66z"/>
		<g>
			<path class="st4" d="M78.38,30.51c1.56-1.08,1.96-3.22,0.88-4.78c-1.08-1.56-3.22-1.96-4.78-0.88c-1.56,1.08-1.96,3.22-0.88,4.78
				C74.67,31.2,76.81,31.59,78.38,30.51z"/>
			<path class="st4" d="M62.44,38.72c-2.34,1.61-2.93,4.81-1.31,7.15c0.04,0.06,0.1,0.11,0.15,0.17c0.16-0.17,0.32-0.35,0.48-0.52
				c2.5-2.76,4.65-4.99,6.5-6.81C66.55,37.55,64.24,37.47,62.44,38.72z"/>
			<path class="st4" d="M62.67,11.09c-0.03,0-0.06,0.01-0.09,0.01c-0.09-0.01-0.18-0.03-0.27-0.04c-0.96-0.1-3,1.24-5.1,11.92
				c-0.51,2.58-1.02,5.7-1.52,9.48c-0.1,0.68-0.19,1.38-0.28,2.07c-0.88,6.69-1.53,13.9-1.81,20.35c0.53-0.64,1.07-1.29,1.61-1.93
				c0.31-5.39,0.83-11.36,1.56-17.28c2.43,1.53,5.63,1.57,8.14-0.16c3.36-2.32,4.2-6.92,1.89-10.27c-1.79-2.6-4.96-3.67-7.85-2.96
				c0.17-0.79,0.34-1.56,0.52-2.3c1.4-5.79,2.48-7.06,2.88-7.34c0.05-0.04,0.09-0.05,0.12-0.06c13.67,1.55,23.86,13.76,24.48,28.37
				c1.73,3.17,2.92,6.58,3.5,10.09c0.41-1.57,0.71-3.19,0.88-4.86C93.1,28.6,80.24,12.86,62.67,11.09z"/>
			<path class="st4" d="M82.46,59.12c-0.63-0.77-1.58-1.28-2.65-1.28c-1.9,0-3.44,1.54-3.44,3.44c0,1.44,0.88,2.66,2.13,3.18
				C79.99,62.86,81.31,61.06,82.46,59.12z"/>
			<path class="st4" d="M83.24,61.28c0-0.82-0.3-1.57-0.78-2.16c-1.15,1.94-2.47,3.73-3.96,5.34c0.4,0.17,0.84,0.26,1.31,0.26
				C81.7,64.72,83.24,63.18,83.24,61.28z"/>
			<path class="st4" d="M69.4,69.86c0-2.84-2.3-5.14-5.14-5.14s-5.14,2.3-5.14,5.14c0,1.35,0.53,2.57,1.38,3.49
				c3.04-0.22,5.98-0.98,8.72-2.21C69.32,70.73,69.4,70.31,69.4,69.86z"/>
			<path class="st4" d="M64.26,75.01c1.12,0,2.15-0.37,3-0.98c-1.42,0.36-2.88,0.61-4.37,0.77C63.32,74.92,63.78,75.01,64.26,75.01z
				"/>
			<path class="st4" d="M62.88,74.8c1.48-0.16,2.94-0.41,4.37-0.77c0.96-0.69,1.66-1.7,1.97-2.88c-2.74,1.23-5.68,1.98-8.72,2.21
				C61.14,74.04,61.96,74.54,62.88,74.8z"/>
			<path class="st4" d="M48.45,71.71c-1.88,0-3.41,1.53-3.41,3.41c0,1.88,1.53,3.41,3.41,3.41s3.41-1.53,3.41-3.41
				C51.86,73.24,50.34,71.71,48.45,71.71z"/>
			<path class="st4" d="M79.87,74.14C69.04,86.9,50.8,89.29,39.11,79.6c-0.81-1.3,3.8-8.62,10.4-17.21c1.25-1.62,2.6-3.29,3.98-4.99
				c0.01-0.34,0.03-0.69,0.04-1.03c0.02-0.49,0.04-1,0.07-1.5c-2.56,3.08-5.01,6.19-7.2,9.12c-5.42,7.16-10.47,14.86-8.52,16.52
				c0.07,0.06,0.15,0.11,0.22,0.17c0.02,0.02,0.03,0.04,0.05,0.06c6.01,5.11,13.38,7.6,20.71,7.6c9.09,0,18.12-3.83,24.45-11.29
				c6.35-7.47,8.64-17.03,7.15-26.02c-0.76,2.93-1.92,5.68-3.41,8.21C86.03,64.5,83.67,69.66,79.87,74.14z"/>
			<path class="st4" d="M55.08,55.45c1.85-2.22,3.77-4.46,5.73-6.67c1.13,2.64,3.74,4.49,6.8,4.49c4.08,0,7.39-3.31,7.39-7.39
				c0-3.16-1.99-5.84-4.79-6.89c0.58-0.55,1.16-1.09,1.73-1.6c4.44-3.98,6.05-4.4,6.54-4.4c0.06,0,0.11,0.01,0.13,0.01
				c4.14,3.6,6.84,8.3,8.13,13.42c0.03-0.24,0.08-0.47,0.1-0.71c0.16-1.62,0.17-3.21,0.11-4.78c-1.83-3.35-4.26-6.43-7.33-9.05
				c-0.02-0.02-0.05-0.03-0.08-0.05c-0.07-0.06-0.13-0.13-0.2-0.19c-0.74-0.63-3.17-0.68-10.96,6.91c-0.04,0.04-0.09,0.09-0.13,0.13
				c0.51,0.35,0.97,0.78,1.34,1.32c1.61,2.34,1.02,5.54-1.32,7.15c-2.27,1.57-5.35,1.04-7-1.14c-0.31,0.34-0.62,0.68-0.93,1.02
				c-1.71,1.9-3.44,3.87-5.14,5.88c-0.01,0.11-0.02,0.23-0.02,0.34C55.15,54.02,55.11,54.74,55.08,55.45z"/>
			<path class="st4" d="M61.75,45.52c-0.16,0.17-0.32,0.35-0.48,0.52c1.65,2.18,4.73,2.71,7,1.14c2.34-1.61,2.93-4.81,1.32-7.15
				c-0.37-0.54-0.83-0.97-1.34-1.32C66.4,40.52,64.25,42.75,61.75,45.52z"/>
			<path class="st4" d="M53.49,57.4c0.53-0.65,1.05-1.3,1.6-1.95c0.03-0.71,0.06-1.43,0.1-2.17c0.01-0.11,0.02-0.23,0.02-0.34
				c-0.54,0.64-1.08,1.28-1.61,1.93c-0.02,0.5-0.05,1.01-0.07,1.5C53.51,56.72,53.5,57.06,53.49,57.4z"/>
			<path class="st4" d="M86.85,45.72c-0.02,0.24-0.07,0.47-0.1,0.71c1.03,4.11,1.13,8.48,0.3,12.81c1.49-2.52,2.65-5.28,3.41-8.21
				c-0.58-3.51-1.77-6.92-3.5-10.09C87.02,42.51,87.01,44.11,86.85,45.72z"/>
		</g>
		<path class="st3" d="M44.96,44.04c0,10.03-8.13,18.15-18.15,18.15S8.66,54.06,8.66,44.04H44.96z"/>
	</g>
</g>
</svg>
