<?xml version="1.0" encoding="utf-8"?>
<!-- Generator: Adobe Illustrator 25.0.1, SVG Export Plug-In . SVG Version: 6.00 Build 0)  -->
<svg version="1.1" id="Capa_1" xmlns="http://www.w3.org/2000/svg" xmlns:xlink="http://www.w3.org/1999/xlink" x="0px" y="0px"
	 viewBox="0 0 100 100" style="enable-background:new 0 0 100 100;" xml:space="preserve">
<style type="text/css">
	.st0{display:none;}
	.st1{fill:#F14900;}
	.st2{fill:#FED339;}
	.st3{fill:none;stroke:#000000;stroke-miterlimit:10;}
</style>
<g id="Capa_2_1_" class="st0">
</g>
<g id="CHICOPAN">
</g>
<g id="CHICAPASTEL">
</g>
<g id="CHICAMOBIL">
</g>
<g id="CHICOREVIEW">
</g>
<g id="CHICAESTADISTICAS">
</g>
<g id="HAMBURGUESA">
</g>
<g id="PIZZA">
</g>
<g id="TACO">
</g>
<g id="POKE">
</g>
<path class="st1" d="M8.7,44c0,0-1.4-9.3,4.2-15.5c0,0-1.1,5.3,1.8,6.3s-1.3-13.5,11-20.9c0,0-3.2,11.9,1.1,12.3
	c3.8,0.4,3.8-4,4-5.8c0,0,6.7,6.4,4.9,15.2c0,0,4.7-0.8,5.1-6.3c0,0,4.2,2.5,4.2,14.6L8.7,44L8.7,44z"/>
<g>
	<path class="st2" d="M78.4,30.5c1.6-1.1,2-3.2,0.9-4.8c-1.1-1.6-3.2-2-4.8-0.9s-2,3.2-0.9,4.8C74.7,31.2,76.8,31.6,78.4,30.5z"/>
	<path class="st2" d="M62.4,38.7c-2.3,1.6-2.9,4.8-1.3,7.2c0,0.1,0.1,0.1,0.2,0.2c0.2-0.2,0.3-0.3,0.5-0.5c2.5-2.8,4.6-5,6.5-6.8
		C66.6,37.6,64.2,37.5,62.4,38.7z"/>
	<path class="st2" d="M62.7,11.1C62.6,11.1,62.6,11.1,62.7,11.1c-0.2,0-0.3,0-0.4,0c-1-0.1-3,1.2-5.1,11.9c-0.5,2.6-1,5.7-1.5,9.5
		c-0.1,0.7-0.2,1.4-0.3,2.1c-0.9,6.7-1.5,13.9-1.8,20.3c0.5-0.6,1.1-1.3,1.6-1.9c0.3-5.4,0.8-11.4,1.6-17.3c2.4,1.5,5.6,1.6,8.1-0.2
		c3.4-2.3,4.2-6.9,1.9-10.3c-1.8-2.6-5-3.7-7.8-3c0.2-0.8,0.3-1.6,0.5-2.3c1.4-5.8,2.5-7.1,2.9-7.3c0,0,0.1-0.1,0.1-0.1
		C76.1,14.1,86.3,26.3,87,41c1.7,3.2,2.9,6.6,3.5,10.1c0.4-1.6,0.7-3.2,0.9-4.9C93.1,28.6,80.2,12.9,62.7,11.1z"/>
	<path class="st2" d="M82.5,59.1c-0.6-0.8-1.6-1.3-2.7-1.3c-1.9,0-3.4,1.5-3.4,3.4c0,1.4,0.9,2.7,2.1,3.2
		C80,62.9,81.3,61.1,82.5,59.1z"/>
	<path class="st2" d="M83.2,61.3c0-0.8-0.3-1.6-0.8-2.2c-1.2,1.9-2.5,3.7-4,5.3c0.4,0.2,0.8,0.3,1.3,0.3
		C81.7,64.7,83.2,63.2,83.2,61.3z"/>
	<path class="st2" d="M69.4,69.9c0-2.8-2.3-5.1-5.1-5.1s-5.1,2.3-5.1,5.1c0,1.3,0.5,2.6,1.4,3.5c3-0.2,6-1,8.7-2.2
		C69.3,70.7,69.4,70.3,69.4,69.9z"/>
	<path class="st2" d="M64.3,75c1.1,0,2.2-0.4,3-1c-1.4,0.4-2.9,0.6-4.4,0.8C63.3,74.9,63.8,75,64.3,75z"/>
	<path class="st2" d="M62.9,74.8c1.5-0.2,2.9-0.4,4.4-0.8c1-0.7,1.7-1.7,2-2.9c-2.7,1.2-5.7,2-8.7,2.2C61.1,74,62,74.5,62.9,74.8z"
		/>
	<path class="st2" d="M48.5,71.7c-1.9,0-3.4,1.5-3.4,3.4c0,1.9,1.5,3.4,3.4,3.4s3.4-1.5,3.4-3.4S50.3,71.7,48.5,71.7z"/>
	<path class="st2" d="M79.9,74.1C69,86.9,50.8,89.3,39.1,79.6c-0.8-1.3,3.8-8.6,10.4-17.2c1.2-1.6,2.6-3.3,4-5c0-0.3,0-0.7,0-1
		c0-0.5,0-1,0.1-1.5c-2.6,3.1-5,6.2-7.2,9.1c-5.4,7.2-10.5,14.9-8.5,16.5c0.1,0.1,0.2,0.1,0.2,0.2c0,0,0,0,0,0.1
		c6,5.1,13.4,7.6,20.7,7.6c9.1,0,18.1-3.8,24.4-11.3c6.3-7.5,8.6-17,7.2-26c-0.8,2.9-1.9,5.7-3.4,8.2C86,64.5,83.7,69.7,79.9,74.1z"
		/>
	<path class="st2" d="M55.1,55.5c1.8-2.2,3.8-4.5,5.7-6.7c1.1,2.6,3.7,4.5,6.8,4.5c4.1,0,7.4-3.3,7.4-7.4c0-3.2-2-5.8-4.8-6.9
		c0.6-0.5,1.2-1.1,1.7-1.6c4.4-4,6.1-4.4,6.5-4.4c0.1,0,0.1,0,0.1,0c4.1,3.6,6.8,8.3,8.1,13.4c0-0.2,0.1-0.5,0.1-0.7
		c0.2-1.6,0.2-3.2,0.1-4.8c-1.8-3.3-4.3-6.4-7.3-9c0,0-0.1,0-0.1,0c-0.1-0.1-0.1-0.1-0.2-0.2c-0.7-0.6-3.2-0.7-11,6.9
		c0,0-0.1,0.1-0.1,0.1c0.5,0.3,1,0.8,1.3,1.3c1.6,2.3,1,5.5-1.3,7.2c-2.3,1.6-5.3,1-7-1.1c-0.3,0.3-0.6,0.7-0.9,1
		c-1.7,1.9-3.4,3.9-5.1,5.9c0,0.1,0,0.2,0,0.3C55.2,54,55.1,54.7,55.1,55.5z"/>
	<path class="st2" d="M61.8,45.5c-0.2,0.2-0.3,0.3-0.5,0.5c1.7,2.2,4.7,2.7,7,1.1c2.3-1.6,2.9-4.8,1.3-7.2c-0.4-0.5-0.8-1-1.3-1.3
		C66.4,40.5,64.2,42.8,61.8,45.5z"/>
	<path class="st2" d="M53.5,57.4c0.5-0.7,1-1.3,1.6-2c0-0.7,0.1-1.4,0.1-2.2c0-0.1,0-0.2,0-0.3c-0.5,0.6-1.1,1.3-1.6,1.9
		c0,0.5,0,1-0.1,1.5C53.5,56.7,53.5,57.1,53.5,57.4z"/>
	<path class="st2" d="M86.8,45.7c0,0.2-0.1,0.5-0.1,0.7c1,4.1,1.1,8.5,0.3,12.8c1.5-2.5,2.7-5.3,3.4-8.2c-0.6-3.5-1.8-6.9-3.5-10.1
		C87,42.5,87,44.1,86.8,45.7z"/>
</g>
<path class="st3" d="M45,44c0,10-8.1,18.2-18.1,18.2S8.7,54.1,8.7,44H45z"/>
</svg>
