<?xml version="1.0" encoding="utf-8"?>
<!-- Generator: Adobe Illustrator 25.0.1, SVG Export Plug-In . SVG Version: 6.00 Build 0)  -->
<svg version="1.1" xmlns="http://www.w3.org/2000/svg" xmlns:xlink="http://www.w3.org/1999/xlink" x="0px" y="0px"
	 viewBox="0 0 100 100" style="enable-background:new 0 0 100 100;" xml:space="preserve">
<style type="text/css">
	.st0{display:none;}
	.st1{fill:#FAFAFA;}
	.st2{fill:#FE7139;}
	.st3{fill:none;stroke:#000000;stroke-miterlimit:10;}
	.st4{fill:#FED339;}
	.st5{fill:#FAFAFA;stroke:#000000;stroke-miterlimit:10;}
	.st6{fill:#FFFFFF;stroke:#000000;stroke-miterlimit:10;}
	.st7{fill:#754C24;stroke:#000000;stroke-miterlimit:10;}
	.st8{fill:#FFFFFF;}
	.st9{fill:none;stroke:#FFFFFF;stroke-width:2;stroke-miterlimit:10;}
	.st10{fill:none;}
	.st11{fill:#3964FE;}
	.st12{fill:none;stroke:#3964FE;stroke-miterlimit:10;}
	.st13{fill:none;stroke:#FE7139;stroke-miterlimit:10;}
</style>
<g id="Capa_2" class="st0">
</g>
<g id="CHICOPAN">
</g>
<g id="CHICAPASTEL">
</g>
<g id="CHICAMOBIL">
</g>
<g id="CHICOREVIEW">
</g>
<g id="CHICAESTADISTICAS">
</g>
<g id="HAMBURGUESA">
</g>
<g id="PIZZA">
</g>
<g id="TACO">
</g>
<g id="POKE">
</g>
<g id="INDIO">
	<g>
		<path d="M91.09,56.64l-9.97-17.27l-9.97-17.27c-1.65-2.86-4.53-4.28-7.42-4.28c-2.88,0-5.77,1.43-7.42,4.28l-9.52,16.49l0.9,1.55
			l9.97-17.27c1.27-2.2,3.54-3.51,6.07-3.51c2.53,0,4.8,1.31,6.07,3.51l9.97,17.27l9.97,17.27c1.27,2.2,1.27,4.82,0,7.01
			c-1.27,2.2-3.54,3.51-6.07,3.51h-5.55v1.55h5.55C90.27,69.49,94.39,62.35,91.09,56.64z"/>
		<path class="st4" d="M51.7,47.09l2.45,4.25l9.58,16.59l0.39,0.68c0.15,0.26,0.27,0.53,0.39,0.8h12.05v-1.48V47.09H51.7z"/>
		<path d="M10.74,76.4c-1.27-2.2-1.27-4.82,0-7.01l9.97-17.27l9.97-17.27c1.27-2.2,3.54-3.51,6.07-3.51s4.8,1.31,6.07,3.51l3.06,5.3
			l0.45-0.77l0.45-0.78l-2.61-4.52c-1.65-2.86-4.53-4.28-7.42-4.28c-2.88,0-5.77,1.43-7.42,4.28l-9.97,17.27L9.4,68.61
			c-3.3,5.71,0.82,12.85,7.42,12.85h5.55V79.9h-5.55C14.28,79.9,12.01,78.59,10.74,76.4z"/>
		<path d="M62.78,76.4c-1.27,2.2-3.54,3.51-6.07,3.51h-5.55v1.55h5.55c6.29,0,10.31-6.49,7.81-12.05h-1.73
			C64.05,71.6,64.04,74.21,62.78,76.4z"/>
		<polygon points="49.33,46.1 50.89,48.79 50.89,47.09 51.7,47.09 50.78,45.49 49.33,45.49 		"/>
		<polygon points="47.69,40.14 46.79,41.69 49.33,46.1 49.33,45.49 50.78,45.49 47.69,40.14 		"/>
		<polygon points="45.89,40.14 46.79,41.69 47.69,40.14 47.69,40.14 46.79,38.58 46.34,39.36 		"/>
		<polygon points="50.89,48.79 52.81,52.11 61.94,67.93 63.73,67.93 63.73,67.93 54.15,51.34 51.7,47.09 50.89,47.09 		"/>
		<path d="M63.73,67.93L63.73,67.93h-1.79l0.84,1.46c0,0.01,0.01,0.02,0.01,0.03h1.73c-0.12-0.27-0.24-0.54-0.39-0.8L63.73,67.93z"
			/>
		<polygon class="st4" points="49.33,59.07 37.02,59.07 35.42,59.07 23.92,59.07 23.92,79.9 23.92,81.39 49.6,81.39 49.6,79.9 
			49.6,59.07 		"/>
	</g>
</g>
</svg>
