<?xml version="1.0" encoding="utf-8"?>
<!-- Generator: Adobe Illustrator 25.0.1, SVG Export Plug-In . SVG Version: 6.00 Build 0)  -->
<svg version="1.1" xmlns="http://www.w3.org/2000/svg" xmlns:xlink="http://www.w3.org/1999/xlink" x="0px" y="0px"
	 viewBox="0 0 100 100" style="enable-background:new 0 0 100 100;" xml:space="preserve">
<style type="text/css">
	.st0{display:none;}
	.st1{fill:#FAFAFA;}
	.st2{fill:#FE7139;}
	.st3{fill:none;stroke:#000000;stroke-miterlimit:10;}
	.st4{fill:#FED339;}
	.st5{fill:#FAFAFA;stroke:#000000;stroke-miterlimit:10;}
	.st6{fill:#FFFFFF;stroke:#000000;stroke-miterlimit:10;}
	.st7{fill:#754C24;stroke:#000000;stroke-miterlimit:10;}
	.st8{fill:#FFFFFF;}
	.st9{fill:none;stroke:#FFFFFF;stroke-width:2;stroke-miterlimit:10;}
	.st10{fill:none;}
	.st11{fill:#3964FE;}
	.st12{fill:none;stroke:#3964FE;stroke-miterlimit:10;}
	.st13{fill:none;stroke:#FE7139;stroke-miterlimit:10;}
</style>
<g id="Capa_2" class="st0">
</g>
<g id="CHICOPAN">
</g>
<g id="CHICAPASTEL">
</g>
<g id="CHICAMOBIL">
</g>
<g id="CHICOREVIEW">
</g>
<g id="CHICAESTADISTICAS">
</g>
<g id="HAMBURGUESA">
</g>
<g id="PIZZA">
</g>
<g id="TACO">
</g>
<g id="POKE">
</g>
<g id="INDIO">
	<g>
		<path class="st3" d="M50,89.55c20.9,0,38.05-1.4,39.96-18.72H10.04C11.95,88.14,29.1,89.55,50,89.55z"/>
		<path class="st4" d="M81.36,54.6H17.5c-0.65,0.78-1.25,1.51-1.82,2.19h67.5C82.61,56.1,82.01,55.38,81.36,54.6z"/>
		<path class="st2" d="M73.74,45.25H25.12c-1.89,2.36-3.74,4.64-5.45,6.71h59.51C77.48,49.89,75.63,47.62,73.74,45.25z"/>
		<path class="st4" d="M70.69,41.42H28.16c-0.44,0.55-0.87,1.11-1.31,1.66H72C71.57,42.53,71.13,41.98,70.69,41.42z"/>
		<path class="st2" d="M66.86,36.48H32c-0.42,0.55-0.85,1.1-1.27,1.66h37.41C67.71,37.59,67.28,37.03,66.86,36.48z"/>
		<path class="st4" d="M60.51,27.8H38.35c-1.34,1.95-2.9,4.1-4.58,6.34h31.32C63.41,31.9,61.85,29.75,60.51,27.8z"/>
		<path class="st2" d="M57.37,22.89H41.48c-0.34,0.6-0.73,1.25-1.17,1.95h18.23C58.1,24.14,57.72,23.5,57.37,22.89z"/>
		<path class="st3" d="M88.61,61.89h-1.14c0,0-1.7-1.99-4.29-5.1c-0.57-0.68-1.17-1.41-1.82-2.19c-0.69-0.83-1.42-1.72-2.17-2.64
			c-1.7-2.07-3.55-4.35-5.45-6.71c-0.58-0.72-1.16-1.44-1.74-2.17c-0.44-0.55-0.87-1.1-1.31-1.66c-0.86-1.09-1.72-2.19-2.56-3.28
			c-0.43-0.55-0.85-1.11-1.27-1.66c-0.6-0.79-1.19-1.57-1.77-2.34c-1.68-2.24-3.24-4.39-4.58-6.34c-0.72-1.05-1.38-2.05-1.96-2.97
			c-0.44-0.7-0.83-1.34-1.17-1.95c-0.98-1.73-1.54-3.05-1.5-3.78c0.21-3.81,1.04-6.88,1.51-8.34c0.15-0.46-0.2-0.93-0.69-0.93h-7.01
			h-0.52h-7c-0.49,0-0.84,0.47-0.69,0.93c0.47,1.46,1.3,4.52,1.51,8.33c0.04,0.73-0.52,2.06-1.5,3.78c-0.34,0.6-0.73,1.25-1.17,1.95
			c-0.58,0.92-1.24,1.91-1.96,2.97c-1.34,1.95-2.9,4.1-4.58,6.34c-0.58,0.77-1.17,1.55-1.77,2.34c-0.42,0.55-0.85,1.1-1.27,1.66
			c-0.84,1.09-1.7,2.19-2.56,3.28c-0.44,0.55-0.87,1.11-1.31,1.66c-0.58,0.73-1.16,1.46-1.74,2.17c-1.89,2.36-3.74,4.64-5.45,6.71
			c-0.76,0.92-1.49,1.81-2.17,2.64c-0.65,0.78-1.25,1.51-1.82,2.19c-2.59,3.11-4.29,5.1-4.29,5.1c-1.87,0-3.4,1.53-3.4,3.4
			c0,1.15,0.58,2.16,1.46,2.77h81.08c0.88-0.61,1.46-1.62,1.46-2.77C92,63.41,90.48,61.89,88.61,61.89z"/>
	</g>
</g>
</svg>
