<?xml version="1.0" encoding="utf-8"?>
<!-- Generator: Adobe Illustrator 25.0.1, SVG Export Plug-In . SVG Version: 6.00 Build 0)  -->
<svg version="1.1" id="Capa_1" xmlns="http://www.w3.org/2000/svg" xmlns:xlink="http://www.w3.org/1999/xlink" x="0px" y="0px"
	 viewBox="0 0 100 100" style="enable-background:new 0 0 100 100;" xml:space="preserve">
<style type="text/css">
	.st0{display:none;}
	.st1{fill:none;stroke:#000000;stroke-miterlimit:10;}
	.st2{fill:#F14900;}
	.st3{fill:#FED339;}
	.st4{fill:none;stroke:#FED339;stroke-miterlimit:10;}
</style>
<g id="Capa_2_1_" class="st0">
</g>
<g id="CHICOPAN">
</g>
<g id="CHICAPASTEL">
</g>
<g id="CHICAMOBIL">
</g>
<g id="CHICOREVIEW">
</g>
<g id="CHICAESTADISTICAS">
</g>
<g id="AMERICANO">
</g>
<g id="PIZZA">
</g>
<g id="MEXICANO">
</g>
<g id="POKE">
</g>
<g id="INDIO">
</g>
<g id="GRIEGO">
</g>
<g id="TAILANDES">
</g>
<g id="COREANA">
</g>
<g id="COLOMPIANA">
</g>
<g id="PERUANO">
	<path class="st1" d="M49.9,69.4c0,0-0.9-8.2-6.4-11.4c-15.3-9.2-13.9-19.5-16.1-19.9s-4.7,5.3-6.2,5.7c-3.1,0.8-11.3-3-13.5-0.4
		c-1.9,2.2,2.2,9,1.5,10.1c-0.7,1.1-7.2,2.8-6.2,6.7c1.4,5.4,8.1,4,9.3,9.2L49.9,69.4z"/>
	<path class="st1" d="M34,69.6c0,0-10.1-12.5-16.3-17.5"/>
	<path class="st1" d="M28.1,62c0,0-5,1.9-12.4,2.9"/>
	<path class="st1" d="M23.7,57.4c0,0,2.8-5.2,3.2-9.7"/>
	<path class="st1" d="M32.6,67.3c0,0,4.3-3.8,5-7.4"/>
	<g>
		<path class="st2" d="M75.2,52.4c1.1-2.5,3.7-6.9,8.9-8.3c-1.8-1.2-7-3.7-10.2,0.8C71.5,48.4,74.3,51.6,75.2,52.4z"/>
		<path class="st2" d="M85.2,44.9c-5.7,1-8.3,5.9-9.2,8.2c0.9,0.8,2.6,2.6,2.8,4.8c2.7-1.4,7.6-3.1,12.5-0.5c0-0.2,0-0.5,0-0.7
			C91.1,50,87.3,46.6,85.2,44.9z"/>
		<path class="st2" d="M78.8,58.9c-0.1,1.3-0.8,2.6-2.4,3.9c-0.3,0.3-0.6,0.5-1,0.6c-0.1,1.3,0.1,3.6,1.2,5.3L76,69.3l8.6,0.2
			c0,0,6.1-3.7,6.7-11.1C86.2,55.5,81.3,57.5,78.8,58.9z"/>
		<path class="st2" d="M74.5,63.9c-1.9,0.5-3.9-0.3-5.3-1.3c-1.1,0.7-3.7,2.7-4.3,5.3c0.5,0.4,1.1,0.8,1.8,1.2l9.2,0.2
			C74.7,67.5,74.4,65.3,74.5,63.9z"/>
		<path class="st2" d="M64,67.1c0.8-2.6,3.1-4.4,4.3-5.2c-0.5-0.5-0.9-0.9-1-1.3c0,0-1.4-2.2-3.4-2.2c0.6-0.4,4.7-3.3,2.5-9.3
			c0,0-4.6,2.5-4.9,6.7c0,0-0.9-4.9-5.2-5c0,0,0,6.4,5.2,8.4c0,0,0,0.2,0.1,0.4c-1.1,1.6,0.1,4.2,0.1,4.2S62.2,65.4,64,67.1z"/>
	</g>
	<g>
		<path class="st1" d="M92.5,77.4H7c-2.2,0-4-1.8-4-4l0,0c0-2.2,1.8-4,4-4h85.5c2.2,0,4,1.8,4,4l0,0C96.5,75.6,94.7,77.4,92.5,77.4z
			"/>
		<path class="st1" d="M77.8,90.6H21.7c-1.4,0-2.8-0.7-3.6-1.8L10,77.5h79.5l-8.1,11.3C80.6,90,79.2,90.6,77.8,90.6z"/>
	</g>
	<g>
		<path class="st3" d="M60.6,10.8L55,25.4l13.9-6.6C67.2,15.2,64.4,12.3,60.6,10.8z"/>
		<path class="st3" d="M60.5,9.6c8.7,3.3,13,13.3,10,22.5l3.2,1.2c4.1-10.7-1.2-22.7-11.9-26.8C51,2.4,39,7.7,34.9,18.4l3.2,1.2
			C42,10.8,51.8,6.3,60.5,9.6z"/>
		<path class="st3" d="M54,25.1l5.7-14.8c-3.9-1.4-8-1.1-11.6,0.5L54,25.1z"/>
		<path class="st3" d="M55.5,26.3l14.1,5.4c1.3-4.1,1.2-8.3-0.3-12L55.5,26.3z"/>
		<path class="st3" d="M53,25.4l-5.8-14.1c-3.5,1.8-6.5,4.8-8.2,8.7L53,25.4z"/>
	</g>
	<line class="st4" x1="45.7" y1="30.4" x2="46.2" y2="33.5"/>
	<line class="st4" x1="53.8" y1="34.7" x2="52.3" y2="37.6"/>
	<line class="st4" x1="48.4" y1="43.6" x2="49.4" y2="46.6"/>
	<line class="st4" x1="64.4" y1="33.9" x2="61.7" y2="35.6"/>
</g>
<g id="Turco">
</g>
</svg>
