<?xml version="1.0" encoding="utf-8"?>
<!-- Generator: Adobe Illustrator 25.0.1, SVG Export Plug-In . SVG Version: 6.00 Build 0)  -->
<svg version="1.1" id="Capa_1" xmlns="http://www.w3.org/2000/svg" xmlns:xlink="http://www.w3.org/1999/xlink" x="0px" y="0px"
	 viewBox="0 0 100 100" style="enable-background:new 0 0 100 100;" xml:space="preserve">
<style type="text/css">
	.st0{display:none;}
	.st1{fill:#FED339;}
	.st2{fill:none;stroke:#F14900;stroke-miterlimit:10;}
	.st3{fill:#F14900;}
	.st4{fill:none;stroke:#000000;stroke-miterlimit:10;}
</style>
<g id="Capa_2_1_" class="st0">
</g>
<g id="CHICOPAN">
</g>
<g id="CHICAPASTEL">
</g>
<g id="CHICAMOBIL">
</g>
<g id="CHICOREVIEW">
</g>
<g id="CHICAESTADISTICAS">
</g>
<g id="HAMBURGUESA">
</g>
<g id="PIZZA">
</g>
<g id="TACO">
</g>
<g id="POKE">
</g>
<g>
	<path class="st1" d="M84.6,82.7c-0.4-3.3-3.2-5.8-6.5-5.8H22c-3.4,0-6.1,2.6-6.5,5.8C15.4,82.7,84.6,82.7,84.6,82.7z"/>
	<path class="st1" d="M15.4,84.3c0.4,3.3,3.2,5.8,6.5,5.8h56.1c3.4,0,6.2-2.6,6.5-5.8H15.4z"/>
</g>
<line class="st2" x1="50" y1="31.5" x2="50" y2="12"/>
<polygon class="st3" points="54.9,22.8 50,25.5 50,12 54.9,9.3 "/>
<line class="st2" x1="50" y1="50" x2="50" y2="46.2"/>
<path class="st4" d="M71.9,43.4c0,0-7.7,6.6-21.9,6.6s-21.9-6.6-21.9-6.6l-4.1,7.8C33.2,62,50,61.5,50,61.5S66.8,62,75.9,51.2
	L71.9,43.4z"/>
<path class="st4" d="M71.8,43.4c0,0-7.7,6.6-21.9,6.6s-21.9-6.6-21.9-6.6L22.5,54C31.7,66.5,50,65.6,50,65.6S68.3,66.5,77.5,54
	L71.8,43.4z"/>
<g>
	<rect x="19.4" y="65.6" class="st4" width="61.2" height="11.2"/>
	<line class="st4" x1="80.6" y1="76.8" x2="69.6" y2="65.8"/>
	<line class="st4" x1="69.8" y1="76.8" x2="58.7" y2="65.8"/>
	<line class="st4" x1="58.7" y1="76.8" x2="47.7" y2="65.8"/>
	<line class="st4" x1="47.9" y1="76.8" x2="36.8" y2="65.8"/>
	<line class="st4" x1="36.8" y1="76.8" x2="25.8" y2="65.8"/>
	<line class="st4" x1="25.7" y1="76.8" x2="19.4" y2="70.5"/>
</g>
<g>
	<ellipse class="st4" cx="50" cy="38.8" rx="10.4" ry="7.3"/>
	<path class="st4" d="M56.1,36.4c0,0-1.6,2.5,0,5"/>
</g>
</svg>
