<?xml version="1.0" encoding="utf-8"?>
<!-- Generator: Adobe Illustrator 25.0.1, SVG Export Plug-In . SVG Version: 6.00 Build 0)  -->
<svg version="1.1" xmlns="http://www.w3.org/2000/svg" xmlns:xlink="http://www.w3.org/1999/xlink" x="0px" y="0px"
	 viewBox="0 0 100 100" style="enable-background:new 0 0 100 100;" xml:space="preserve">
<style type="text/css">
	.st0{display:none;}
	.st1{fill:#FAFAFA;}
	.st2{fill:#FE7139;}
	.st3{fill:none;stroke:#000000;stroke-miterlimit:10;}
	.st4{fill:#FED339;}
	.st5{fill:#FAFAFA;stroke:#000000;stroke-miterlimit:10;}
	.st6{fill:#FFFFFF;stroke:#000000;stroke-miterlimit:10;}
	.st7{fill:#754C24;stroke:#000000;stroke-miterlimit:10;}
	.st8{fill:#FFFFFF;}
	.st9{fill:none;stroke:#FFFFFF;stroke-width:2;stroke-miterlimit:10;}
	.st10{fill:none;}
	.st11{fill:#3964FE;}
	.st12{fill:none;stroke:#3964FE;stroke-miterlimit:10;}
	.st13{fill:none;stroke:#FE7139;stroke-miterlimit:10;}
</style>
<g id="Capa_2" class="st0">
</g>
<g id="CHICOPAN">
</g>
<g id="CHICAPASTEL">
</g>
<g id="CHICAMOBIL">
</g>
<g id="CHICOREVIEW">
</g>
<g id="CHICAESTADISTICAS">
</g>
<g id="HAMBURGUESA">
</g>
<g id="PIZZA">
</g>
<g id="TACO">
</g>
<g id="POKE">
</g>
<g id="INDIO">
	<g>
		<g>
			<path class="st4" d="M84.6,82.68c-0.4-3.27-3.17-5.84-6.54-5.84H21.95c-3.37,0-6.15,2.56-6.54,5.84H84.6z"/>
			<path class="st4" d="M15.4,84.26c0.4,3.27,3.17,5.83,6.54,5.83h56.11c3.37,0,6.15-2.56,6.54-5.83H15.4z"/>
		</g>
		<line class="st13" x1="49.96" y1="31.52" x2="49.96" y2="12.01"/>
		<polygon class="st2" points="54.86,22.76 49.96,25.47 49.96,12.01 54.86,9.3 		"/>
		<line class="st13" x1="50" y1="50.03" x2="50" y2="46.15"/>
		<path class="st3" d="M71.87,43.39c0,0-7.66,6.64-21.87,6.64s-21.87-6.64-21.87-6.64l-4.06,7.84C33.18,62.02,50,61.53,50,61.53
			s16.82,0.48,25.93-10.3L71.87,43.39z"/>
		<path class="st3" d="M71.85,43.39c0,0-7.66,6.64-21.87,6.64s-21.87-6.64-21.87-6.64l-5.57,10.57
			c9.12,12.55,27.44,11.66,27.44,11.66s18.36,0.89,27.48-11.66L71.85,43.39z"/>
		<g>
			<rect x="19.4" y="65.64" class="st3" width="61.19" height="11.2"/>
			<line class="st3" x1="80.6" y1="76.84" x2="69.56" y2="65.8"/>
			<line class="st3" x1="69.75" y1="76.84" x2="58.71" y2="65.8"/>
			<line class="st3" x1="58.71" y1="76.84" x2="47.67" y2="65.8"/>
			<line class="st3" x1="47.87" y1="76.84" x2="36.83" y2="65.8"/>
			<line class="st3" x1="36.83" y1="76.84" x2="25.79" y2="65.8"/>
			<line class="st3" x1="25.73" y1="76.84" x2="19.4" y2="70.52"/>
		</g>
		<g>
			<ellipse class="st3" cx="50" cy="38.83" rx="10.42" ry="7.31"/>
			<path class="st3" d="M56.11,36.35c0,0-1.58,2.5,0,4.95"/>
		</g>
	</g>
</g>
</svg>
