<?xml version="1.0" encoding="utf-8"?>
<!-- Generator: Adobe Illustrator 25.0.1, SVG Export Plug-In . SVG Version: 6.00 Build 0)  -->
<svg version="1.1" id="Capa_1" xmlns="http://www.w3.org/2000/svg" xmlns:xlink="http://www.w3.org/1999/xlink" x="0px" y="0px"
	 viewBox="0 0 100 100" style="enable-background:new 0 0 100 100;" xml:space="preserve">
<style type="text/css">
	.st0{display:none;}
	.st1{fill:#F14900;}
	.st2{fill:#FE7139;}
	.st3{fill:#FED339;}
	.st4{fill:none;}
</style>
<g id="Capa_2_1_" class="st0">
</g>
<g id="CHICOPAN">
</g>
<g id="CHICAPASTEL">
</g>
<g id="CHICAMOBIL">
</g>
<g id="CHICOREVIEW">
</g>
<g id="CHICAESTADISTICAS">
</g>
<g id="HAMBURGUESA">
</g>
<g id="PIZZA">
</g>
<g id="TACO">
</g>
<g id="POKE">
	<g>
		<path d="M43.1,46.7c-0.1,0.6-0.3,1.2-0.4,1.9l2.7,4.2l-3.2,2c0,0.5,0,1,0.1,1.5l4.9-3.1L43.1,46.7z"/>
		<path d="M71.3,8.5l-1.2-0.6L56.2,41.6c0.3,0.4,0.6,0.8,0.9,1.2L71.3,8.5z"/>
		<path d="M77.2,10.8l-1.2-0.6l-9.6,22.6c0.8-0.6,1.5-1.1,2.3-1.6L77.2,10.8z"/>
		<path d="M57.2,45.3c0.2-0.5,0.4-1,0.6-1.5c-0.2-0.3-0.4-0.6-0.7-1l-0.7,1.3C56.7,44.5,56.9,44.9,57.2,45.3z"/>
		<path d="M43.9,43.6c1.5-5.2,3.3-7.7,4.1-7.8c0,0,0.1,0,0.1,0c1.1,0,4.5,3.1,7.5,7.1l0.7-1.3c-3.2-4.2-6.8-7.4-8.4-7.1
			c-2,0.3-3.9,4.7-5.1,8.7c-0.2,0.6-0.4,1.3-0.5,1.9l1,1.5C43.4,45.7,43.6,44.7,43.9,43.6z"/>
		<path d="M56.4,44.2l0.7-1.3c-0.3-0.4-0.6-0.8-0.9-1.2l-0.7,1.3C55.9,43.3,56.1,43.7,56.4,44.2z"/>
		<path d="M59.2,43.8c1.2-2.8,3.3-5.5,5.7-7.8l1.6-3.2c-3.5,2.7-6.7,6.3-8.5,10.4c-0.1,0.2-0.1,0.4-0.2,0.6c0.3,0.5,0.6,0.9,0.9,1.4
			C58.8,44.7,59,44.2,59.2,43.8z"/>
		<path d="M56.3,52.9l1.2-2.4c0-1.2,0.2-2.4,0.6-3.7c-0.3-0.5-0.6-1-0.9-1.5C56.2,48.2,56,50.7,56.3,52.9z"/>
		<path d="M79.3,28.6c-2.4-1.1-6.4,0.1-10.5,2.6l-1.3,2.5c3.4-2.6,7.1-4.3,9.6-4.3c0.6,0,1.2,0.1,1.6,0.3c3.9,1.7,6.7,15,2.7,23.9
			c-3.5,7.9-10,10.9-16.8,7.8c-1-0.5-1.9-1-2.7-1.6c-0.2,0.4-0.4,0.8-0.7,1.2c0.9,0.7,1.8,1.2,2.8,1.7c1.8,0.8,3.8,1.3,5.8,1.3
			c4.7,0,9.6-2.6,12.8-9.8C86.8,44.9,84.1,30.8,79.3,28.6z"/>
		<path d="M67.5,33.8l1.3-2.5c-0.8,0.5-1.5,1-2.3,1.6L64.9,36C65.7,35.2,66.6,34.4,67.5,33.8z"/>
		<path d="M58.1,46.8c0.2-0.5,0.3-1.1,0.5-1.7c-0.3-0.5-0.6-0.9-0.9-1.4c-0.2,0.5-0.4,1-0.6,1.5C57.5,45.8,57.8,46.3,58.1,46.8z"/>
		<ellipse class="st1" cx="69.6" cy="50.4" rx="6.8" ry="6.8"/>
		<path d="M42.8,48.6c0.1-0.6,0.2-1.2,0.4-1.9l-1-1.5c-0.2,0.6-0.3,1.2-0.4,1.8L42.8,48.6z"/>
		<path class="st1" d="M27.3,38.9c0.3,1.3,0.2,2.6-0.3,3.7l4.5-2.9l1.4-0.9l1.6-1c-0.2-2.8-2.3-5-4.9-5c-1.9,0-3.5,1.2-4.3,3
			C26.2,36.5,26.9,37.6,27.3,38.9z"/>
		<path class="st1" d="M23.1,41.6c0.5,0.2,1.1,0.5,1.5,0.8c0.4,0.2,0.7,0.5,1.1,0.8c0.1,0.1,0.1,0.1,0.2,0.2l0.2-0.2l0.6-0.4
			c-1.2-1-2-2.6-2-4.5c0-0.9,0.2-1.8,0.6-2.5c-1.2-1-2.7-1.4-4.1-1c-2.6,0.7-4.1,3.5-3.4,6.5c0.7-0.2,1.4-0.3,2.1-0.3
			C21,40.9,22.1,41.2,23.1,41.6z"/>
		<path class="st2" d="M26.8,42.8l0.2-0.2c0.5-1.1,0.6-2.4,0.3-3.7s-1-2.4-2-3.1c-0.4,0.8-0.6,1.6-0.6,2.5
			C24.7,40.2,25.5,41.8,26.8,42.8z"/>
		<path d="M17.7,41.2c-0.1,0-0.1,0-0.2,0c0.1,0.4,0.3,0.8,0.6,1.2c0,0,0,0,0,0c-0.2-0.4-0.3-0.7-0.4-1.1
			C17.7,41.3,17.7,41.2,17.7,41.2z"/>
		<path d="M24,43.4c0.1-0.1,0.1-0.2,0.2-0.3c-0.4-0.5-0.8-1-1-1.6c-1-0.4-2.1-0.6-3.3-0.6c-0.7,0-1.4,0.1-2.1,0.3c0,0,0,0.1,0,0.1
			c0.1,0.4,0.2,0.8,0.4,1.1c0.5-0.1,1.1-0.2,1.7-0.2C21.4,42.3,22.8,42.7,24,43.4z"/>
		<path d="M10.7,50.1c0,5,4.1,9.1,9.1,9.1c2.4,0,4.5-0.9,6.2-2.4l-0.7-1.1c-1.4,1.4-3.3,2.2-5.4,2.2c-4.3,0-7.8-3.5-7.8-7.8
			c0-3.2,2-6,4.8-7.2c-0.2-0.4-0.4-0.8-0.5-1.2C13,43,10.7,46.3,10.7,50.1z"/>
		<path d="M25.8,45c1.2,1.4,1.9,3.1,1.9,5.1c0,1.7-0.5,3.2-1.5,4.5l0.8,1.2c1.3-1.6,2-3.5,2-5.7c0-2-0.6-3.8-1.7-5.3
			c-0.3,0-0.6-0.1-0.9-0.2L25.8,45z"/>
		<path d="M23.1,41.6c0.3,0.6,0.6,1.2,1,1.6c0.2-0.3,0.4-0.5,0.5-0.8C24.2,42,23.7,41.8,23.1,41.6z"/>
		<path d="M27.3,44.8c-0.1-0.2-0.2-0.4-0.4-0.5l-0.5,0.3C26.7,44.7,27,44.8,27.3,44.8z"/>
		<path d="M26,43.3c-0.1-0.1-0.1-0.1-0.2-0.2c-0.1,0.2-0.2,0.3-0.2,0.5L26,43.3z"/>
		<path d="M16.3,41.7c0.1,0.4,0.3,0.8,0.5,1.2c0.4-0.2,0.9-0.3,1.3-0.4c-0.2-0.4-0.4-0.8-0.6-1.2C17.1,41.4,16.7,41.5,16.3,41.7z"/>
		<path d="M24.2,43.2c-0.1,0.1-0.1,0.2-0.2,0.3c0.3,0.2,0.6,0.4,0.8,0.6l0.2-0.1C24.7,43.7,24.4,43.5,24.2,43.2z"/>
		<path d="M25.5,43.6c0.1-0.2,0.2-0.3,0.2-0.5c-0.3-0.3-0.7-0.5-1.1-0.8c-0.1,0.3-0.3,0.6-0.5,0.8c0.2,0.3,0.5,0.5,0.8,0.7
			L25.5,43.6z"/>
		<path d="M26.7,43.3c0.3,0.1,0.7,0.2,1,0.2c0.1,0,0.2,0,0.2,0c-0.4-0.2-0.7-0.3-1-0.6C26.8,43.1,26.7,43.2,26.7,43.3z"/>
		<path d="M27,42.6c0,0.1-0.1,0.2-0.1,0.3c0.3,0.2,0.7,0.4,1,0.6c0.1,0,0.1,0,0.2,0l2.5-1.6c0.4-0.6,0.7-1.3,0.9-2.1L27,42.6z"/>
		<path d="M26.8,42.8l-0.6,0.4c0.1,0.1,0.3,0.1,0.5,0.2c0.1-0.1,0.2-0.3,0.2-0.4C26.9,42.9,26.8,42.8,26.8,42.8z"/>
		<path d="M27,42.6l-0.2,0.2c0,0,0.1,0.1,0.1,0.1C26.9,42.8,27,42.7,27,42.6z"/>
		<path d="M36.6,36.5l-2.1,1.3c0,0.2,0,0.3,0,0.5c0,0.4,0,0.7-0.1,1.1l1.7-1.1l5.6,8.7c0.1-0.6,0.3-1.2,0.4-1.8L36.6,36.5z"/>
		<path d="M34.5,37.8l-1.6,1c0,0.6-0.1,1.2-0.3,1.7l1.8-1.2c0.1-0.3,0.1-0.7,0.1-1.1C34.5,38.1,34.5,38,34.5,37.8z"/>
		<path d="M27.7,43.5c-0.4,0-0.7-0.1-1-0.2c-0.1,0.2-0.2,0.3-0.3,0.4c0.2,0.2,0.4,0.3,0.5,0.5l1.1-0.7c0,0-0.1,0-0.1,0
			C27.9,43.5,27.8,43.5,27.7,43.5z"/>
		<path d="M28,43.5C28,43.5,28,43.5,28,43.5l0.2,0C28.1,43.5,28,43.5,28,43.5z"/>
		<path d="M26,43.3c0.1,0.1,0.3,0.3,0.4,0.5c0.1-0.1,0.2-0.3,0.3-0.4c-0.2-0.1-0.3-0.1-0.5-0.2L26,43.3z"/>
		<path d="M30.6,41.9l2-1.3c0.2-0.5,0.2-1.1,0.3-1.7l-1.4,0.9C31.4,40.5,31,41.3,30.6,41.9z"/>
		<path d="M25.8,44.4c-0.1,0.1-0.2,0.2-0.3,0.3c0.1,0.1,0.2,0.2,0.3,0.3l0.6-0.4C26.2,44.5,26,44.5,25.8,44.4z"/>
		<path d="M25.8,44.4c-0.2-0.1-0.4-0.2-0.6-0.4c0,0.1-0.1,0.1-0.1,0.2c0.2,0.1,0.3,0.3,0.5,0.5C25.6,44.6,25.7,44.5,25.8,44.4z"/>
		<path d="M25.8,44.4c0.2,0.1,0.4,0.2,0.5,0.2l0.5-0.3c-0.1-0.2-0.3-0.3-0.5-0.5C26.2,44,26,44.2,25.8,44.4z"/>
		<path d="M25.5,43.6c-0.1,0.2-0.2,0.3-0.3,0.4c0.2,0.1,0.4,0.2,0.6,0.4c0.2-0.2,0.4-0.4,0.6-0.6c-0.1-0.2-0.3-0.3-0.4-0.5
			L25.5,43.6z"/>
		<path d="M24.8,44c0.1,0.1,0.1,0.1,0.2,0.2c0-0.1,0.1-0.1,0.1-0.2c-0.1,0-0.1-0.1-0.2-0.1L24.8,44z"/>
		<path d="M25,43.9c0.1,0,0.1,0.1,0.2,0.1c0.1-0.1,0.2-0.3,0.3-0.4L25,43.9z"/>
		<path class="st3" d="M90.8,49.2c0,23.3-18.9,42.2-42.2,42.2S6.4,72.5,6.4,49.2H90.8z"/>
		<path class="st4" d="M42.8,48.6c-0.4,2.2-0.5,4.3-0.5,6.2l3.2-2L42.8,48.6z"/>
		<path class="st4" d="M56.8,54.9l-4.4,8.7c0.2,0,0.4-0.1,0.5-0.1c2.5-0.4,5-1,6.6-2.3c0.3-0.3,0.6-0.6,0.8-0.9
			C58.7,58.8,57.5,57.1,56.8,54.9z"/>
		<path class="st4" d="M58.8,48c-0.2-0.4-0.5-0.8-0.7-1.2c-0.3,1.3-0.5,2.5-0.6,3.7L58.8,48z"/>
		<path class="st4" d="M61,54c-0.2-1.4-0.8-3-1.5-4.5l-1.8,3.6c0.4,2.3,1.5,4.3,3.2,6C61.3,57.7,61.4,56.1,61,54z"/>
	</g>
</g>
<g id="INDIO">
</g>
</svg>
