<?xml version="1.0" encoding="utf-8"?>
<!-- Generator: Adobe Illustrator 25.0.1, SVG Export Plug-In . SVG Version: 6.00 Build 0)  -->
<svg version="1.1" xmlns="http://www.w3.org/2000/svg" xmlns:xlink="http://www.w3.org/1999/xlink" x="0px" y="0px"
	 viewBox="0 0 100 100" style="enable-background:new 0 0 100 100;" xml:space="preserve">
<style type="text/css">
	.st0{display:none;}
	.st1{fill:#FAFAFA;}
	.st2{fill:#FE7139;}
	.st3{fill:none;stroke:#000000;stroke-miterlimit:10;}
	.st4{fill:#FED339;}
	.st5{fill:#FAFAFA;stroke:#000000;stroke-miterlimit:10;}
	.st6{fill:#FFFFFF;stroke:#000000;stroke-miterlimit:10;}
	.st7{fill:#754C24;stroke:#000000;stroke-miterlimit:10;}
	.st8{fill:#FFFFFF;}
	.st9{fill:none;stroke:#FFFFFF;stroke-width:2;stroke-miterlimit:10;}
	.st10{fill:none;}
	.st11{fill:#3964FE;}
	.st12{fill:none;stroke:#3964FE;stroke-miterlimit:10;}
	.st13{fill:none;stroke:#FE7139;stroke-miterlimit:10;}
</style>
<g id="Capa_2" class="st0">
</g>
<g id="CHICOPAN">
</g>
<g id="CHICAPASTEL">
</g>
<g id="CHICAMOBIL">
</g>
<g id="CHICOREVIEW">
</g>
<g id="CHICAESTADISTICAS">
</g>
<g id="HAMBURGUESA">
</g>
<g id="PIZZA">
</g>
<g id="TACO">
</g>
<g id="POKE">
	<g>
		<path d="M43.14,46.72c-0.14,0.63-0.26,1.25-0.36,1.87l2.67,4.16l-3.16,2.03c0.02,0.52,0.05,1.02,0.11,1.5l4.87-3.13L43.14,46.72z"
			/>
		<path d="M71.32,8.47l-1.17-0.6L56.23,41.63c0.3,0.39,0.59,0.78,0.87,1.19L71.32,8.47z"/>
		<path d="M77.25,10.82l-1.17-0.6L66.5,32.83c0.76-0.58,1.52-1.12,2.29-1.6L77.25,10.82z"/>
		<path d="M57.18,45.28c0.17-0.49,0.37-1,0.58-1.51c-0.22-0.32-0.44-0.64-0.66-0.95l-0.68,1.33C56.68,44.52,56.93,44.89,57.18,45.28
			z"/>
		<path d="M43.93,43.61c1.54-5.17,3.31-7.68,4.09-7.82c0.03,0,0.06-0.01,0.09-0.01c1.14,0,4.45,3.08,7.45,7.14l0.66-1.31
			c-3.23-4.25-6.82-7.42-8.44-7.13c-1.96,0.35-3.93,4.74-5.12,8.74c-0.19,0.64-0.37,1.29-0.53,1.93l1,1.55
			C43.36,45.69,43.62,44.65,43.93,43.61z"/>
		<path d="M56.43,44.15l0.68-1.33c-0.29-0.41-0.58-0.8-0.87-1.19l-0.66,1.31C55.86,43.33,56.14,43.73,56.43,44.15z"/>
		<path d="M59.19,43.75c1.25-2.82,3.33-5.49,5.7-7.75l1.61-3.17c-3.49,2.69-6.71,6.33-8.51,10.38c-0.08,0.19-0.14,0.37-0.22,0.56
			c0.3,0.45,0.59,0.9,0.87,1.36C58.8,44.67,58.98,44.21,59.19,43.75z"/>
		<path d="M56.29,52.91l1.24-2.43c0.04-1.18,0.23-2.42,0.57-3.7c-0.3-0.51-0.6-1.01-0.92-1.51C56.2,48.15,55.97,50.7,56.29,52.91z"
			/>
		<path d="M79.27,28.59c-2.4-1.07-6.45,0.1-10.48,2.64l-1.29,2.53c3.42-2.62,7.06-4.27,9.59-4.27c0.62,0,1.17,0.1,1.64,0.31
			c3.87,1.72,6.68,14.97,2.73,23.86c-3.51,7.9-9.96,10.91-16.83,7.85c-1.01-0.45-1.91-0.99-2.71-1.59c-0.18,0.41-0.4,0.8-0.65,1.15
			c0.88,0.65,1.83,1.21,2.82,1.65c1.8,0.8,3.78,1.28,5.8,1.28c4.68,0,9.56-2.59,12.77-9.8C86.82,44.86,84.14,30.76,79.27,28.59z"/>
		<path d="M67.51,33.76l1.29-2.53c-0.77,0.49-1.54,1.02-2.29,1.6L64.89,36C65.73,35.2,66.61,34.44,67.51,33.76z"/>
		<path d="M58.1,46.79c0.15-0.55,0.32-1.1,0.53-1.66c-0.28-0.46-0.57-0.91-0.87-1.36c-0.21,0.51-0.42,1.02-0.58,1.51
			C57.5,45.77,57.81,46.28,58.1,46.79z"/>
		
			<ellipse transform="matrix(9.878777e-03 -1 1 9.878777e-03 18.5329 119.4523)" class="st2" cx="69.59" cy="50.37" rx="6.8" ry="6.8"/>
		<path d="M42.77,48.59c0.11-0.62,0.23-1.24,0.36-1.87l-1-1.55c-0.15,0.6-0.28,1.21-0.41,1.8L42.77,48.59z"/>
		<path class="st2" d="M27.27,38.91c0.33,1.31,0.2,2.6-0.26,3.7l4.51-2.89l1.41-0.91l1.57-1.01c-0.23-2.81-2.31-5.02-4.86-5.02
			c-1.9,0-3.52,1.22-4.34,3C26.22,36.54,26.94,37.61,27.27,38.91z"/>
		<path class="st2" d="M23.13,41.55c0.54,0.21,1.06,0.47,1.55,0.77c0.38,0.24,0.74,0.49,1.07,0.78c0.07,0.06,0.14,0.12,0.2,0.19
			l0.25-0.16l0.56-0.36c-1.22-1.01-2.03-2.62-2.03-4.46c0-0.92,0.22-1.77,0.57-2.54c-1.17-0.97-2.67-1.41-4.14-1.04
			c-2.6,0.65-4.11,3.53-3.43,6.46c0.68-0.17,1.39-0.27,2.12-0.27C21.01,40.93,22.11,41.16,23.13,41.55z"/>
		<path class="st2" d="M26.76,42.78l0.25-0.16c0.46-1.1,0.59-2.4,0.26-3.7c-0.33-1.3-1.05-2.37-1.97-3.13
			c-0.35,0.76-0.57,1.62-0.57,2.54C24.73,40.15,25.54,41.77,26.76,42.78z"/>
		<path d="M17.74,41.2c-0.06,0.01-0.12,0.02-0.17,0.03c0.14,0.44,0.33,0.84,0.56,1.22c0.02,0,0.03,0,0.05-0.01
			c-0.17-0.36-0.31-0.74-0.42-1.14C17.74,41.27,17.74,41.24,17.74,41.2z"/>
		<path d="M23.98,43.44c0.07-0.08,0.13-0.18,0.2-0.27c-0.42-0.47-0.77-1.01-1.05-1.62c-1.02-0.39-2.12-0.62-3.27-0.62
			c-0.73,0-1.44,0.1-2.12,0.27c0.01,0.03,0.01,0.07,0.02,0.1c0.1,0.4,0.25,0.78,0.42,1.14c0.54-0.12,1.11-0.19,1.69-0.19
			C21.37,42.25,22.78,42.69,23.98,43.44z"/>
		<path d="M10.74,50.05c0,5.02,4.09,9.11,9.11,9.11c2.38,0,4.54-0.92,6.17-2.42l-0.72-1.12c-1.41,1.38-3.33,2.23-5.44,2.23
			c-4.3,0-7.79-3.5-7.79-7.79c0-3.22,1.97-6,4.76-7.18c-0.21-0.38-0.38-0.79-0.51-1.21C13.04,43.04,10.74,46.28,10.74,50.05z"/>
		<path d="M25.77,44.98c1.17,1.36,1.88,3.13,1.88,5.07c0,1.69-0.54,3.24-1.46,4.52l0.76,1.18c1.26-1.56,2.02-3.54,2.02-5.7
			c0-1.96-0.63-3.77-1.68-5.26c-0.32-0.03-0.63-0.09-0.92-0.19L25.77,44.98z"/>
		<path d="M23.13,41.55c0.28,0.61,0.63,1.16,1.05,1.62c0.19-0.26,0.36-0.54,0.49-0.85C24.19,42.02,23.67,41.76,23.13,41.55z"/>
		<path d="M27.28,44.79c-0.13-0.18-0.25-0.36-0.39-0.53l-0.53,0.34C26.66,44.7,26.97,44.75,27.28,44.79z"/>
		<path d="M25.95,43.29c-0.07-0.06-0.13-0.13-0.2-0.19c-0.08,0.16-0.16,0.33-0.25,0.48L25.95,43.29z"/>
		<path d="M16.31,41.65c0.14,0.43,0.31,0.83,0.51,1.21c0.41-0.18,0.85-0.31,1.3-0.41c-0.23-0.38-0.42-0.78-0.56-1.22
			C17.13,41.35,16.71,41.48,16.31,41.65z"/>
		<path d="M24.18,43.17c-0.07,0.09-0.13,0.19-0.2,0.27c0.29,0.18,0.57,0.37,0.83,0.59L25,43.91C24.7,43.69,24.43,43.45,24.18,43.17z
			"/>
		<path d="M25.5,43.59c0.09-0.15,0.17-0.32,0.25-0.48c-0.34-0.29-0.7-0.55-1.07-0.78c-0.14,0.31-0.3,0.59-0.49,0.85
			c0.25,0.28,0.52,0.52,0.82,0.73L25.5,43.59z"/>
		<path d="M26.66,43.32c0.34,0.12,0.68,0.2,1.05,0.2c0.08,0,0.16-0.02,0.24-0.03c-0.37-0.15-0.73-0.34-1.05-0.59
			C26.83,43.05,26.74,43.18,26.66,43.32z"/>
		<path d="M27.01,42.61c-0.04,0.1-0.07,0.2-0.12,0.29c0.32,0.25,0.68,0.43,1.05,0.59c0.06-0.01,0.11-0.01,0.17-0.02l2.5-1.61
			c0.43-0.6,0.74-1.33,0.89-2.14L27.01,42.61z"/>
		<path d="M26.76,42.78l-0.56,0.36c0.15,0.08,0.31,0.13,0.47,0.18c0.08-0.14,0.16-0.27,0.23-0.41
			C26.85,42.87,26.81,42.82,26.76,42.78z"/>
		<path d="M27.01,42.61l-0.25,0.16c0.05,0.04,0.09,0.09,0.14,0.13C26.94,42.81,26.97,42.71,27.01,42.61z"/>
		<path d="M36.56,36.48L34.5,37.8c0.01,0.17,0.05,0.34,0.05,0.51c0,0.37-0.04,0.74-0.1,1.09l1.72-1.1l5.57,8.67
			c0.12-0.6,0.26-1.2,0.41-1.8L36.56,36.48z"/>
		<path d="M34.5,37.8l-1.57,1.01c-0.02,0.61-0.12,1.19-0.27,1.74l1.79-1.15c0.06-0.35,0.1-0.72,0.1-1.09
			C34.55,38.14,34.52,37.97,34.5,37.8z"/>
		<path d="M27.71,43.52c-0.37,0-0.71-0.08-1.05-0.2c-0.09,0.15-0.18,0.29-0.28,0.43c0.17,0.17,0.35,0.33,0.5,0.52l1.15-0.74
			c-0.03-0.01-0.06-0.02-0.09-0.03C27.87,43.5,27.79,43.52,27.71,43.52z"/>
		<path d="M27.95,43.49c0.03,0.01,0.06,0.02,0.09,0.03l0.08-0.05C28.06,43.48,28.01,43.48,27.95,43.49z"/>
		<path d="M25.95,43.29c0.15,0.14,0.29,0.3,0.44,0.45c0.1-0.13,0.19-0.28,0.28-0.43c-0.16-0.06-0.32-0.1-0.47-0.18L25.95,43.29z"/>
		<path d="M30.62,41.86l2.03-1.31c0.15-0.55,0.25-1.13,0.27-1.74l-1.41,0.91C31.37,40.53,31.05,41.26,30.62,41.86z"/>
		<path d="M25.81,44.38c-0.11,0.1-0.22,0.21-0.34,0.3c0.1,0.1,0.2,0.19,0.3,0.3l0.59-0.38C26.17,44.54,25.99,44.46,25.81,44.38z"/>
		<path d="M25.81,44.38c-0.22-0.1-0.43-0.22-0.64-0.36c-0.05,0.07-0.1,0.14-0.15,0.2c0.16,0.14,0.3,0.3,0.45,0.45
			C25.59,44.59,25.7,44.48,25.81,44.38z"/>
		<path d="M25.81,44.38c0.18,0.08,0.36,0.16,0.55,0.22l0.53-0.34c-0.15-0.19-0.33-0.35-0.5-0.52
			C26.22,43.97,26.02,44.18,25.81,44.38z"/>
		<path d="M25.5,43.59c-0.1,0.16-0.21,0.29-0.32,0.44c0.2,0.14,0.42,0.25,0.64,0.36c0.21-0.2,0.4-0.4,0.58-0.64
			c-0.15-0.15-0.28-0.31-0.44-0.45L25.5,43.59z"/>
		<path d="M24.81,44.03c0.08,0.06,0.14,0.13,0.22,0.2c0.05-0.06,0.1-0.14,0.15-0.2c-0.06-0.04-0.12-0.07-0.18-0.11L24.81,44.03z"/>
		<path d="M25,43.91c0.06,0.04,0.12,0.08,0.18,0.11c0.11-0.14,0.23-0.28,0.32-0.44L25,43.91z"/>
		<path class="st4" d="M90.76,49.23c0,23.29-18.88,42.17-42.17,42.17S6.43,72.51,6.43,49.23H90.76z"/>
		<path class="st10" d="M42.77,48.59c-0.38,2.22-0.55,4.33-0.49,6.19l3.16-2.03L42.77,48.59z"/>
		<path class="st10" d="M56.76,54.91l-4.41,8.68c0.18-0.03,0.36-0.06,0.55-0.09c2.47-0.43,5-0.97,6.57-2.35
			c0.31-0.27,0.56-0.58,0.79-0.91C58.7,58.84,57.45,57.06,56.76,54.91z"/>
		<path class="st10" d="M58.78,48.01c-0.22-0.41-0.45-0.82-0.68-1.22c-0.35,1.28-0.53,2.51-0.57,3.7L58.78,48.01z"/>
		<path class="st10" d="M60.99,53.97c-0.25-1.44-0.78-2.96-1.48-4.48l-1.81,3.57c0.4,2.31,1.47,4.33,3.17,5.96
			C61.32,57.71,61.36,56.05,60.99,53.97z"/>
	</g>
</g>
<g id="INDIO">
</g>
</svg>
