<?xml version="1.0" encoding="utf-8"?>
<!-- Generator: Adobe Illustrator 25.0.1, SVG Export Plug-In . SVG Version: 6.00 Build 0)  -->
<svg version="1.1" id="Capa_1" xmlns="http://www.w3.org/2000/svg" xmlns:xlink="http://www.w3.org/1999/xlink" x="0px" y="0px"
	 viewBox="0 0 100 100" style="enable-background:new 0 0 100 100;" xml:space="preserve">
<style type="text/css">
	.st0{display:none;}
	.st1{fill:#FED339;}
	.st2{fill:#F14900;}
	.st3{fill:#FE7139;}
</style>
<g id="Capa_2_1_" class="st0">
</g>
<g id="CHICOPAN">
</g>
<g id="CHICAPASTEL">
</g>
<g id="CHICAMOBIL">
</g>
<g id="CHICOREVIEW">
</g>
<g id="CHICAESTADISTICAS">
</g>
<g id="HAMBURGUESA">
</g>
<g id="PIZZA">
</g>
<g id="TACO">
	<g>
		<path class="st1" d="M11.7,52.2c-4.8,1.1-8.4,5.3-8.4,10.3c0,4.6,3,8.4,7.1,9.9c0.1-6.2,1.6-12,4.1-17.1
			C13.5,54.5,12.6,53.4,11.7,52.2z"/>
		<path class="st2" d="M16.4,52.1c2.2-3.7,5.1-6.9,8.4-9.6c-1-1.8-1.5-3.8-1.5-5.8c-3.2-2.1-6.9-2.6-9.9-0.9
			c-4.6,2.7-5.6,9.6-2.2,15.4c0.2,0.3,0.4,0.7,0.6,1c0.8-0.2,1.7-0.3,2.6-0.3C15,51.9,15.7,52,16.4,52.1z"/>
		<path class="st3" d="M14.6,55.4c0.6-1.1,1.1-2.2,1.8-3.2c-0.7-0.1-1.4-0.2-2.1-0.2c-0.9,0-1.7,0.1-2.6,0.3
			C12.6,53.4,13.5,54.5,14.6,55.4z"/>
		<path class="st1" d="M27.1,40.6c3.9-2.8,8.4-5,13.2-6.2c-0.1-0.6-0.1-1.2-0.1-1.8c0-1.3,0.1-2.5,0.4-3.7C37,25.8,32,25.2,28,27.7
			c-3.1,2-4.8,5.4-4.8,9C24.6,37.7,26,39,27.1,40.6z"/>
		<path class="st1" d="M27.1,40.6c-1.1-1.6-2.5-2.9-4-3.9c0,2,0.5,3.9,1.5,5.8C25.5,41.8,26.3,41.2,27.1,40.6z"/>
		<path class="st2" d="M43.1,31.7c0.4,0.6,0.7,1.3,1,1.9c2.1-0.3,4.2-0.5,6.3-0.5c1.9,0,3.7,0.1,5.5,0.4c0.7-2.1,2.1-4,4.1-5.3
			c-1.4-5.3-5.1-9.1-9.6-9.1c-4.6,0-8.5,4.1-9.7,9.8C41.6,29.7,42.4,30.6,43.1,31.7z"/>
		<path class="st2" d="M40.3,34.4c1.2-0.3,2.5-0.6,3.7-0.8c-0.3-0.7-0.6-1.3-1-1.9c-0.7-1.1-1.5-2-2.4-2.8c-0.2,1.2-0.4,2.4-0.4,3.7
			C40.2,33.2,40.3,33.8,40.3,34.4z"/>
		<path class="st1" d="M60.4,34.4c4.6,1.2,8.8,3.2,12.6,5.8c1.2-1,2.5-1.8,3.8-2.4c-0.1-1.9-0.7-3.8-1.8-5.6c-3.3-5.3-10-7.1-15-4
			c0,0,0,0-0.1,0c0.3,1.4,0.6,2.8,0.6,4.4C60.5,33.2,60.5,33.8,60.4,34.4z"/>
		<path class="st1" d="M55.8,33.5c1.5,0.2,3.1,0.5,4.6,0.9c0.1-0.6,0.1-1.2,0.1-1.8c0-1.5-0.2-3-0.6-4.4
			C58,29.5,56.6,31.4,55.8,33.5z"/>
		<path class="st2" d="M76.1,42.6c3.4,2.9,6.3,6.3,8.6,10.1c0.5-0.1,1-0.1,1.5-0.1c0.5,0,1.1,0,1.6,0.1c3.3-4.5,3.7-10.1,0.5-13.5
			c-2.7-2.9-7.2-3.3-11.4-1.5C76.9,39.4,76.7,41.1,76.1,42.6z"/>
		<path class="st2" d="M76.1,42.6c0.6-1.5,0.8-3.1,0.7-4.8c-1.3,0.6-2.6,1.4-3.8,2.4C74.1,40.9,75.1,41.7,76.1,42.6z"/>
		<path class="st1" d="M96.7,62.8c0-5.1-3.9-9.3-9-10.1c-0.5,0.7-1.2,1.4-1.9,2.1c2.7,5.2,4.3,11.1,4.4,17.4
			C94,70.6,96.7,67,96.7,62.8z"/>
		<path class="st1" d="M84.7,52.7c0.4,0.7,0.8,1.4,1.2,2.1c0.7-0.7,1.3-1.4,1.9-2.1c-0.5-0.1-1-0.1-1.6-0.1
			C85.7,52.6,85.2,52.6,84.7,52.7z"/>
		<path d="M88.6,73.1c0,2.6-14.4,5.4-37.6,5.4c-23.3,0-38.9-2.8-38.9-5.4c0,0,0-0.1,0-0.1c-0.6-0.1-1.1-0.3-1.7-0.5
			c0,0.2,0,0.4,0,0.6c0,1.6,1.4,3.9,13.2,5.5c7.3,1,17,1.6,27.4,1.6c6.6,0,39.3-0.3,39.3-7.1c0-0.3,0-0.6,0-0.9
			c-0.5,0.2-1.1,0.4-1.7,0.5C88.6,72.8,88.6,72.9,88.6,73.1z"/>
		<path d="M15.9,56.4c-0.5-0.3-0.9-0.6-1.4-1c-2.6,5.2-4.1,11-4.1,17.1c0.5,0.2,1.1,0.4,1.7,0.5C12.1,67,13.5,61.4,15.9,56.4z"/>
		<path d="M25.6,43.9c-0.2-0.3-0.4-0.6-0.6-0.9c-0.1-0.2-0.2-0.3-0.3-0.5c-3.3,2.8-6.1,6-8.4,9.6c0.6,0.1,1.1,0.3,1.7,0.5
			C20.1,49.3,22.7,46.4,25.6,43.9z"/>
		<path d="M16.4,52.1c-0.6,1-1.2,2.1-1.8,3.2c0.4,0.4,0.9,0.7,1.4,1c0.6-1.3,1.4-2.6,2.1-3.8C17.5,52.4,17,52.2,16.4,52.1z"/>
		<path d="M28,42c3.8-2.7,8-4.8,12.6-6c-0.1-0.5-0.2-1.1-0.2-1.7c-4.8,1.2-9.3,3.4-13.2,6.2c0.2,0.3,0.5,0.7,0.7,1
			C27.9,41.8,27.9,41.9,28,42z"/>
		<path d="M25.6,43.9c0.8-0.7,1.5-1.3,2.4-1.8c-0.1-0.1-0.1-0.3-0.2-0.4c-0.2-0.4-0.4-0.7-0.7-1c-0.8,0.6-1.6,1.2-2.4,1.9
			c0.1,0.2,0.2,0.3,0.3,0.5C25.2,43.3,25.4,43.6,25.6,43.9z"/>
		<path d="M50.4,34.8c1.7,0,3.4,0.1,5.1,0.3c0.1-0.6,0.2-1.1,0.4-1.6c-1.8-0.2-3.6-0.4-5.5-0.4c-2.2,0-4.2,0.2-6.3,0.5
			c0.2,0.5,0.4,1.1,0.5,1.6C46.5,34.9,48.4,34.8,50.4,34.8z"/>
		<path d="M44.6,35.2c-0.1-0.5-0.3-1.1-0.5-1.6c-1.2,0.2-2.5,0.5-3.7,0.8c0.1,0.6,0.1,1.1,0.2,1.7C41.9,35.7,43.2,35.4,44.6,35.2z"
			/>
		<path d="M71.8,41.4c0.2-0.2,0.5-0.5,0.7-0.8c0.2-0.2,0.3-0.3,0.5-0.4c-3.8-2.6-8-4.6-12.6-5.8c-0.1,0.6-0.1,1.1-0.2,1.7
			C64.3,37.2,68.3,39,71.8,41.4z"/>
		<path d="M60.2,36.1c0.1-0.5,0.2-1.1,0.2-1.7c-1.5-0.4-3-0.7-4.6-0.9c-0.2,0.5-0.3,1.1-0.4,1.6C57,35.4,58.6,35.7,60.2,36.1z"/>
		<path d="M83,53.1c0.6-0.2,1.1-0.3,1.7-0.4c-2.3-3.8-5.2-7.3-8.6-10.1c-0.2,0.5-0.5,1-0.8,1.5C78.3,46.7,80.9,49.7,83,53.1z"/>
		<path d="M71.8,41.4c1.2,0.8,2.4,1.8,3.5,2.7c0.3-0.5,0.6-1,0.8-1.5c-1-0.8-2-1.6-3.1-2.4c-0.2,0.1-0.3,0.3-0.5,0.4
			C72.2,40.9,72,41.1,71.8,41.4z"/>
		<path d="M85.8,54.8c-0.4,0.4-0.8,0.7-1.3,1.1c2.6,5.1,4,10.8,4.1,16.8c0.6-0.1,1.1-0.3,1.7-0.5C90.1,65.9,88.6,60,85.8,54.8
			C85.8,54.8,85.8,54.8,85.8,54.8z"/>
		<path d="M83,53.1c0.6,0.9,1.1,1.9,1.6,2.8c0.4-0.3,0.9-0.7,1.3-1.1c0,0,0,0,0,0c-0.4-0.7-0.8-1.4-1.2-2.1
			C84.1,52.8,83.5,52.9,83,53.1z"/>
	</g>
</g>
<g id="POKE">
</g>
<g id="INDIO">
</g>
</svg>
