<?xml version="1.0" encoding="utf-8"?>
<!-- Generator: Adobe Illustrator 25.0.1, SVG Export Plug-In . SVG Version: 6.00 Build 0)  -->
<svg version="1.1" id="Capa_1" xmlns="http://www.w3.org/2000/svg" xmlns:xlink="http://www.w3.org/1999/xlink" x="0px" y="0px"
	 viewBox="0 0 100 100" style="enable-background:new 0 0 100 100;" xml:space="preserve">
<style type="text/css">
	.st0{display:none;}
	.st1{fill:none;}
	.st2{fill:none;stroke:#FED339;stroke-width:2;stroke-miterlimit:10;}
	.st3{fill:none;stroke:#000000;stroke-miterlimit:10;}
	.st4{fill:#F14900;}
	.st5{fill:#FED339;}
</style>
<g id="Capa_2_1_" class="st0">
</g>
<g id="CHICOPAN">
</g>
<g id="CHICAPASTEL">
</g>
<g id="CHICAMOBIL">
</g>
<g id="CHICOREVIEW">
</g>
<g id="CHICAESTADISTICAS">
</g>
<g id="AMERICANO">
</g>
<g id="PIZZA">
</g>
<g id="MEXICANO">
</g>
<g id="POKE">
</g>
<g id="INDIO">
</g>
<g id="GRIEGO">
</g>
<g id="TAILANDES">
	<path class="st1" d="M45.9,46.8c-0.4,2.2-0.5,4.3-0.5,6.2l3.2-2L45.9,46.8z"/>
	<path class="st1" d="M62,46.2c-0.2-0.4-0.5-0.8-0.7-1.2c-0.3,1.3-0.5,2.5-0.6,3.7L62,46.2z"/>
	<path class="st1" d="M64.2,52.2c-0.2-1.4-0.8-3-1.5-4.5l-1.8,3.6c0.4,2.3,1.5,4.3,3.2,6C64.5,55.9,64.5,54.2,64.2,52.2z"/>
	<g>
		<line class="st2" x1="50.3" y1="47" x2="50.3" y2="17.5"/>
		<line class="st2" x1="54.1" y1="47" x2="54.1" y2="17.5"/>
		<line class="st2" x1="57.9" y1="47" x2="57.9" y2="17.5"/>
		<line class="st2" x1="61.6" y1="47" x2="61.6" y2="17.5"/>
		<line class="st2" x1="65.4" y1="47" x2="65.4" y2="17.5"/>
		<line class="st2" x1="69.2" y1="47" x2="69.2" y2="17.5"/>
		<line class="st2" x1="73" y1="47" x2="73" y2="17.5"/>
		<line class="st2" x1="76.7" y1="47" x2="76.7" y2="17.5"/>
		<line class="st2" x1="80.5" y1="47" x2="80.5" y2="17.5"/>
		<line class="st3" x1="84.4" y1="17.2" x2="5.9" y2="17.4"/>
		<line class="st3" x1="84.4" y1="17.2" x2="5.8" y2="10.4"/>
	</g>
	<path class="st4" d="M43.9,47.2c0,0-0.7-11.7-13.3-19.7c-0.5-0.3-1.1,0.1-1.1,0.7c0.5,3.5,1.9,12.8,3.9,15.1c1.1,1.3,2,1.8,2.5,2
		c0.3,0.1,0.5,0.5,0.4,0.8l-0.4,1L43.9,47.2L43.9,47.2z"/>
	<circle cx="37.8" cy="37.8" r="0.9"/>
	<g>
		<path class="st4" d="M30.9,28.1c-1.3-0.7-2.6-1.6-3.6-2.8c-0.5-0.6-1-1.3-1.2-2.1c-0.2-0.8-0.1-1.6,0.2-2.4l0.1,0
			c0.2,0.8,0.4,1.4,0.6,2c0.3,0.6,0.5,1.3,0.9,1.9c0.4,0.6,0.8,1.2,1.3,1.7C29.8,27,30.4,27.5,30.9,28.1L30.9,28.1z"/>
	</g>
	<g>
		<path class="st4" d="M30.8,28.2c-1.5-0.2-3-0.6-4.3-1.4c-0.7-0.4-1.4-0.8-1.8-1.5c-0.4-0.7-0.7-1.5-0.6-2.3l0.1,0
			c0.5,0.6,0.8,1.2,1.3,1.7c0.5,0.5,0.9,1,1.5,1.5c0.6,0.4,1.2,0.8,1.8,1.1C29.4,27.6,30.1,27.9,30.8,28.2L30.8,28.2z"/>
	</g>
	<path class="st4" d="M19.6,47.2l-1.2-4.8c0,0,5.4,1,7.6-4.8c0,0-5.5-1.6-8,1.5c0,0,1.9-4.3-3-5.6c0,0-1.7,3.9,1.2,8.2
		c0,0-1.1,2.7-1.5,5.3L19.6,47.2z"/>
	<path class="st5" d="M9.4,53.3H93c0,0-1.2,5.9-1.7,6.6H10.6C10.6,59.9,9.3,54.2,9.4,53.3z"/>
	<path class="st3" d="M93.2,47.4H8.8c0,17.9,11.1,33.1,26.8,39.3V92h30.8v-5.3C82.1,80.5,93.2,65.3,93.2,47.4z"/>
</g>
<g id="COREANA">
</g>
<g id="COLOMPIANA">
</g>
<g id="PERUANO">
</g>
<g id="Turco">
</g>
</svg>
