<?xml version="1.0" encoding="utf-8"?>
<!-- Generator: Adobe Illustrator 25.2.0, SVG Export Plug-In . SVG Version: 6.00 Build 0)  -->
<svg version="1.1" xmlns="http://www.w3.org/2000/svg" xmlns:xlink="http://www.w3.org/1999/xlink" x="0px" y="0px"
	 viewBox="0 0 100 100" style="enable-background:new 0 0 100 100;" xml:space="preserve">
<style type="text/css">
	.st0{display:none;}
	.st1{fill:#FAFAFA;}
	.st2{fill:#FE7139;}
	.st3{fill:none;stroke:#000000;stroke-miterlimit:10;}
	.st4{fill:#FED339;}
	.st5{fill:#FAFAFA;stroke:#000000;stroke-miterlimit:10;}
	.st6{fill:#FFFFFF;stroke:#000000;stroke-miterlimit:10;}
	.st7{fill:#754C24;stroke:#000000;stroke-miterlimit:10;}
	.st8{fill:#FFFFFF;}
	.st9{fill:none;stroke:#FFFFFF;stroke-width:2;stroke-miterlimit:10;}
	.st10{fill:none;}
	.st11{fill:#3964FE;}
	.st12{fill:none;stroke:#3964FE;stroke-miterlimit:10;}
	.st13{fill:none;stroke:#FE7139;stroke-miterlimit:10;}
	.st14{fill:none;stroke:#FED339;stroke-miterlimit:10;}
	.st15{fill:none;stroke:#FED339;stroke-width:2;stroke-miterlimit:10;}
	.st16{fill:#FAFAFA;stroke:#000000;stroke-width:2;stroke-miterlimit:10;}
	.st17{fill:#FF0000;}
</style>
<g id="Capa_2" class="st0">
</g>
<g id="CHICOPAN">
</g>
<g id="CHICAPASTEL">
</g>
<g id="CHICAMOBIL">
</g>
<g id="CHICOREVIEW">
</g>
<g id="CHICAESTADISTICAS">
</g>
<g id="AMERICANO">
</g>
<g id="PIZZA">
</g>
<g id="MEXICANO">
</g>
<g id="POKE">
</g>
<g id="INDIO">
</g>
<g id="GRIEGO">
</g>
<g id="TAILANDES">
	<path class="st10" d="M45.94,46.78c-0.38,2.22-0.55,4.33-0.49,6.19l3.16-2.03L45.94,46.78z"/>
	<path class="st10" d="M61.95,46.2c-0.22-0.41-0.45-0.82-0.68-1.22c-0.35,1.28-0.53,2.51-0.57,3.7L61.95,46.2z"/>
	<path class="st10" d="M64.16,52.16c-0.25-1.44-0.78-2.96-1.48-4.48l-1.81,3.57c0.4,2.31,1.47,4.33,3.17,5.96
		C64.49,55.9,64.53,54.24,64.16,52.16z"/>
	<g>
		<line class="st15" x1="50.32" y1="46.96" x2="50.32" y2="17.53"/>
		<line class="st15" x1="54.09" y1="46.96" x2="54.09" y2="17.53"/>
		<line class="st15" x1="57.87" y1="46.96" x2="57.87" y2="17.53"/>
		<line class="st15" x1="61.64" y1="46.96" x2="61.64" y2="17.53"/>
		<line class="st15" x1="65.42" y1="46.96" x2="65.42" y2="17.53"/>
		<line class="st15" x1="69.19" y1="46.96" x2="69.19" y2="17.53"/>
		<line class="st15" x1="72.96" y1="46.96" x2="72.96" y2="17.53"/>
		<line class="st15" x1="76.74" y1="46.96" x2="76.74" y2="17.53"/>
		<line class="st15" x1="80.51" y1="46.96" x2="80.51" y2="17.53"/>
		<line class="st3" x1="84.43" y1="17.17" x2="5.87" y2="17.4"/>
		<line class="st3" x1="84.43" y1="17.17" x2="5.79" y2="10.38"/>
	</g>
	<path class="st2" d="M43.91,47.17c0,0-0.72-11.66-13.31-19.71c-0.5-0.32-1.15,0.13-1.07,0.71c0.49,3.54,1.92,12.84,3.9,15.15
		c1.11,1.3,1.96,1.78,2.51,1.96c0.35,0.11,0.52,0.49,0.38,0.83l-0.36,1.05H43.91z"/>
	<circle cx="37.84" cy="37.76" r="0.9"/>
	<g>
		<path class="st2" d="M30.93,28.05c-1.34-0.67-2.57-1.58-3.56-2.78c-0.48-0.6-0.98-1.26-1.16-2.06c-0.17-0.79-0.11-1.64,0.25-2.35
			l0.1,0.01c0.2,0.76,0.36,1.41,0.61,2.04c0.28,0.61,0.48,1.27,0.85,1.88c0.37,0.6,0.83,1.16,1.33,1.69
			c0.49,0.53,1.04,1.04,1.63,1.48L30.93,28.05z"/>
	</g>
	<g>
		<path class="st2" d="M30.81,28.15c-1.49-0.16-2.96-0.59-4.31-1.37c-0.66-0.4-1.35-0.84-1.8-1.52c-0.43-0.68-0.67-1.5-0.59-2.29
			l0.1-0.02c0.45,0.65,0.83,1.2,1.29,1.7c0.47,0.48,0.89,1.03,1.45,1.47c0.56,0.44,1.18,0.8,1.84,1.12
			c0.65,0.33,1.33,0.61,2.04,0.82L30.81,28.15z"/>
	</g>
	<path class="st2" d="M19.57,47.17l-1.17-4.78c0,0,5.39,1.04,7.57-4.78c0,0-5.52-1.57-8,1.48c0,0,1.91-4.31-3.04-5.61
		c0,0-1.7,3.91,1.22,8.22c0,0-1.13,2.7-1.48,5.35L19.57,47.17z"/>
	<path class="st4" d="M9.42,53.32h83.62c0,0-1.21,5.89-1.66,6.57H10.62C10.62,59.89,9.34,54.23,9.42,53.32z"/>
	<path class="st3" d="M93.17,47.41H8.84c0,17.85,11.1,33.1,26.77,39.25V92H66.4v-5.33C82.07,80.52,93.17,65.27,93.17,47.41z"/>
</g>
<g id="COREANA">
</g>
<g id="COLOMPIANA">
</g>
<g id="PERUANO">
</g>
<g id="Turco">
</g>
</svg>
