<?xml version="1.0" encoding="utf-8"?>
<!-- Generator: Adobe Illustrator 25.0.1, SVG Export Plug-In . SVG Version: 6.00 Build 0)  -->
<svg version="1.1" id="Capa_1" xmlns="http://www.w3.org/2000/svg" xmlns:xlink="http://www.w3.org/1999/xlink" x="0px" y="0px"
	 viewBox="0 0 24 24" style="enable-background:new 0 0 24 24;" xml:space="preserve">
<style type="text/css">
	.st0{fill:none;stroke:#FE7139;stroke-linecap:round;}
</style>
<g id="Cashew">
	<path id="Combined-Shape" class="st0" d="M2.8,13.3l0.3,0.3c1.3,0.9,2.1,2.4,2.3,4l0.1,0.9c0.1,0.7,0.7,1.3,1.5,1.2
		c0.1,0,0.2,0,0.2,0c0.9-0.3,1.5-1.1,1.4-2l-0.2-3.1c-0.1-1.5-0.9-2.9-2.2-3.8L6,10.5c-1-0.7-2.4-0.6-3.3,0.2
		C2,11.3,1.9,12.3,2.5,13C2.6,13.1,2.7,13.2,2.8,13.3z M3.7,12.3c1.7,1.3,2.7,3.1,3,5.2"/>
	<path id="Combined-Shape-Copy-3" class="st0" d="M15,5.4l-0.3,0.3c-1,1.2-1.4,2.8-1.2,4.4l0.1,0.9c0.1,0.7-0.4,1.4-1.1,1.5
		c-0.1,0-0.2,0-0.2,0c-0.9,0-1.7-0.7-1.9-1.6L9.8,8C9.5,6.5,9.9,5,10.9,3.8l0.2-0.3c0.8-0.9,2.2-1.2,3.3-0.6
		c0.8,0.4,1.2,1.4,0.8,2.2C15.1,5.2,15.1,5.3,15,5.4z M13.8,4.8c-1.3,1.6-1.8,3.7-1.6,5.8"/>
	<path id="Combined-Shape-Copy-4" class="st0" d="M13.6,15.7l0.4-0.2c1.5-0.6,2.7-1.7,3.2-3.2l0.3-0.9c0.3-0.7,1-1,1.7-0.8
		c0.1,0,0.1,0.1,0.2,0.1c0.8,0.5,1.2,1.4,0.9,2.3l-1,2.9c-0.5,1.5-1.6,2.6-3.1,3.1L16,19.3c-1.2,0.4-2.5-0.1-3.2-1.1
		c-0.5-0.7-0.3-1.8,0.4-2.3C13.3,15.8,13.5,15.8,13.6,15.7z M14.2,16.9c1.9-0.8,3.5-2.3,4.2-4.2"/>
</g>
</svg>
