<?xml version="1.0" encoding="utf-8"?>
<!-- Generator: Adobe Illustrator 25.0.1, SVG Export Plug-In . SVG Version: 6.00 Build 0)  -->
<svg version="1.1" id="Capa_1" xmlns="http://www.w3.org/2000/svg" xmlns:xlink="http://www.w3.org/1999/xlink" x="0px" y="0px"
	 viewBox="0 0 24 24" style="enable-background:new 0 0 24 24;" xml:space="preserve">
<style type="text/css">
	.st0{fill:none;stroke:#FE7139;stroke-linecap:round;}
</style>
<g id="Celery">
	<path id="Combined-Shape" class="st0" d="M19.4,4.7c0.6,0.6,0.6,1.4,0,2l-0.3,0.3l0.4,0.2c0.5,0.2,0.7,0.8,0.4,1.3
		c-0.1,0.2-0.3,0.4-0.5,0.5l-0.9,0.3l0.1,0c0.4,0.2,0.6,0.8,0.4,1.2C18.7,10.8,18.4,11,18,11l-1.3,0c0-0.1-0.1-0.2-0.2-0.3
		c-0.4-0.4-1-0.4-1.3,0l0,0l-9.3,9.2c-0.2,0.2-0.6,0.3-0.9,0.2l0,0l-1-0.2l-0.2-1c-0.1-0.3,0-0.6,0.2-0.9l6.5-6.6L13,9l0,0l0.3-0.3
		c0.4-0.4,0.4-1,0-1.3c-0.1-0.1-0.2-0.1-0.2-0.2l0-1.4c0-0.5,0.4-0.9,0.9-0.9c0.4,0,0.7,0.2,0.9,0.6l0,0l0.3-0.9
		c0.2-0.5,0.7-0.8,1.2-0.6c0.2,0.1,0.4,0.3,0.5,0.5l0.2,0.4l0.3-0.3C17.9,4.1,18.8,4.1,19.4,4.7z M16.8,7.2l-0.9,0.9 M9.6,3
		C8.9,3,8.3,3.6,8.3,4.3l0,0.9L7.8,5.1c-0.5-0.2-1,0.1-1.2,0.6c-0.1,0.2-0.1,0.5,0,0.7l0.4,0.9L7,7.3C6.6,7.1,6.1,7.4,5.9,7.8
		c-0.1,0.3-0.1,0.7,0.2,1l2.2,2.2L3,16.5c-0.7,0.7-0.7,1.9,0,2.7l1.1,1.1L3.8,19c-0.1-0.3,0-0.6,0.2-0.9l9.2-9.3
		c0.4-0.4,0.4-1,0-1.3c-0.3-0.3-0.7-0.4-1.1-0.2l0.4-0.8c0.2-0.5,0-1-0.4-1.3C12,5,11.7,5,11.5,5.1L11,5.2l0-0.9
		C11,3.6,10.4,3,9.6,3z M9.6,7v1.3 M7.3,12.8l4,4 M20.9,14.3c0,0.7-0.6,1.3-1.3,1.3l-0.9,0l0.2,0.5c0.2,0.5-0.1,1-0.6,1.2
		c-0.2,0.1-0.5,0.1-0.7,0l-0.9-0.4l0,0.1c0.1,0.5-0.1,0.9-0.6,1.1c-0.3,0.1-0.7,0.1-1-0.2l-2.2-2.2l-5.4,5.3c-0.7,0.7-1.9,0.7-2.7,0
		l-1.1-1.1L5,20.2c0.3,0.1,0.6,0,0.9-0.2l9.3-9.2c0.4-0.4,1-0.4,1.3,0c0.3,0.3,0.4,0.7,0.2,1.1l0.8-0.4c0.5-0.2,1,0,1.3,0.4
		c0.1,0.2,0.1,0.5,0,0.7L18.7,13l0.9,0C20.3,13,20.9,13.6,20.9,14.3z M16.9,14.3h-1.3"/>
</g>
</svg>
