<?xml version="1.0" encoding="utf-8"?>
<!-- Generator: Adobe Illustrator 25.0.1, SVG Export Plug-In . SVG Version: 6.00 Build 0)  -->
<svg version="1.1" id="Capa_1" xmlns="http://www.w3.org/2000/svg" xmlns:xlink="http://www.w3.org/1999/xlink" x="0px" y="0px"
	 viewBox="0 0 24 24" style="enable-background:new 0 0 24 24;" xml:space="preserve">
<style type="text/css">
	.st0{fill:none;stroke:#FE7139;stroke-linecap:round;}
	.st1{fill:none;stroke:#FE7139;stroke-width:1.5;stroke-linecap:round;stroke-linejoin:round;}
</style>
<g id="Crab">
	<path id="Combined-Shape" class="st0" d="M9,3v3l2-1c0,1.9-1.5,3.4-3.4,3.4c-0.2,0-0.4,0-0.6,0L5,8V7c0-2.1,1.7-3.9,3.8-4L9,3z
		 M5,8v0.6c0,0.9,0.3,1.7,0.8,2.4L7,12.6 M6.5,13H5.2c-0.8,0-1.5,0.4-1.8,1.1L3,15 M5.8,16H5.2c-0.8,0-1.5,0.4-1.8,1.1L3,18 M8.5,19
		H7.2c-0.8,0-1.5,0.4-1.8,1.1L5,21 M17.5,13h1.3c0.8,0,1.5,0.4,1.8,1.1L21,15 M18.2,16h0.6c0.8,0,1.5,0.4,1.8,1.1L21,18 M15.5,19
		h1.3c0.8,0,1.5,0.4,1.8,1.1L19,21 M8.3,18.8l0.8,0.5c1.8,1,4,1,5.8,0l0.8-0.5c1.3-0.8,2.2-2,2.5-3.5c0.3-1.2-0.5-2.4-1.7-2.6
		l-0.1,0l-1.1-0.2c-2.2-0.3-4.5-0.3-6.8,0l-1,0.2c-1.2,0.2-2,1.3-1.9,2.5c0,0,0,0.1,0,0.1C6.1,16.8,7,18.1,8.3,18.8z M19,8v0.6
		c0,0.9-0.3,1.7-0.8,2.4L17,12.6 M15,3v3l-2-1c0,1.9,1.5,3.4,3.4,3.4c0.2,0,0.4,0,0.6,0L19,8V7c0-2.1-1.7-3.9-3.8-4L15,3z"/>
	<path id="Rectangle-Copy-3" class="st1" d="M10.5,10.6v-0.1l0,0V10.6z"/>
	<path id="Rectangle-Copy-4" class="st1" d="M13.5,10.6v-0.1l0,0V10.6z"/>
</g>
</svg>
