<?xml version="1.0" encoding="utf-8"?>
<!-- Generator: Adobe Illustrator 25.0.1, SVG Export Plug-In . SVG Version: 6.00 Build 0)  -->
<svg version="1.1" id="Capa_1" xmlns="http://www.w3.org/2000/svg" xmlns:xlink="http://www.w3.org/1999/xlink" x="0px" y="0px"
	 viewBox="0 0 24 24" style="enable-background:new 0 0 24 24;" xml:space="preserve">
<style type="text/css">
	.st0{fill:none;stroke:#FE7139;stroke-linecap:square;}
</style>
<g id="Nuts">
	<path id="Combined-Shape" class="st0" d="M12,21c4-1.3,6-3.6,6-6.7V12l0,0H6v2.3l0,0C6,17.4,8,19.7,12,21z M7.5,7l2.8-0.8
		c0.4-0.1,0.7-0.5,0.7-1V4h2l-0.4,0.9c-0.2,0.5,0,1.1,0.4,1.3c0.1,0,0.1,0.1,0.2,0.1L16,7c2.1,0.5,3.5,2.7,3,4.8l0,0.2H5l-0.1-0.5
		C4.4,9.6,5.5,7.6,7.5,7z"/>
</g>
</svg>
