<?xml version="1.0" encoding="utf-8"?>
<!-- Generator: Adobe Illustrator 25.0.1, SVG Export Plug-In . SVG Version: 6.00 Build 0)  -->
<svg version="1.1" id="Capa_1" xmlns="http://www.w3.org/2000/svg" xmlns:xlink="http://www.w3.org/1999/xlink" x="0px" y="0px"
	 viewBox="0 0 24 24" style="enable-background:new 0 0 24 24;" xml:space="preserve">
<style type="text/css">
	.st0{fill:none;stroke:#FE7139;stroke-linecap:round;}
</style>
<g id="Gluten">
	<path id="Combined-Shape" class="st0" d="M4.9,11.5C7,13,7.4,16,5.9,18.1c-0.2,0.3-0.5,0.6-0.7,0.8l-0.2,0.2
		c-2.1-1.6-2.5-4.6-1-6.7c0.2-0.3,0.5-0.6,0.7-0.8L4.9,11.5z M8.7,7.7c2.1,1.6,2.5,4.6,1,6.7c-0.2,0.3-0.5,0.6-0.7,0.8l-0.2,0.2
		c-2.1-1.6-2.5-4.6-1-6.7C8,8.3,8.2,8.1,8.5,7.8L8.7,7.7z M12.5,3.8c2.1,1.6,2.5,4.6,1,6.7c-0.2,0.3-0.5,0.6-0.7,0.8l-0.2,0.2
		c-2.1-1.6-2.5-4.6-1-6.7C11.8,4.5,12,4.2,12.3,4L12.5,3.8z M20.2,11.5c-1.6,2.1-4.6,2.5-6.7,1c-0.3-0.2-0.6-0.5-0.8-0.7l-0.2-0.2
		c1.6-2.1,4.6-2.5,6.7-1c0.3,0.2,0.6,0.5,0.8,0.7L20.2,11.5z M16.3,15.3c-1.6,2.1-4.6,2.5-6.7,1c-0.3-0.2-0.6-0.5-0.8-0.7l-0.2-0.2
		c1.6-2.1,4.6-2.5,6.7-1c0.3,0.2,0.6,0.5,0.8,0.7L16.3,15.3z M12.5,19.1C11,21.2,8,21.6,5.9,20c-0.3-0.2-0.6-0.5-0.8-0.7l-0.2-0.2
		c1.6-2.1,4.6-2.5,6.7-1c0.3,0.2,0.6,0.5,0.8,0.7L12.5,19.1z M21,3c0.4,2.6-1.4,5-4,5.4c-0.4,0.1-0.7,0.1-1.1,0l-0.3,0
		c-0.4-2.6,1.4-5,4-5.4C20.1,3,20.5,3,21,3z"/>
</g>
</svg>
