<?xml version="1.0" encoding="utf-8"?>
<!-- Generator: Adobe Illustrator 25.0.1, SVG Export Plug-In . SVG Version: 6.00 Build 0)  -->
<svg version="1.1" id="Capa_1" xmlns="http://www.w3.org/2000/svg" xmlns:xlink="http://www.w3.org/1999/xlink" x="0px" y="0px"
	 viewBox="0 0 24 24" style="enable-background:new 0 0 24 24;" xml:space="preserve">
<style type="text/css">
	.st0{fill:none;stroke:#FE7139;stroke-linecap:round;}
</style>
<g id="Eggs">
	<path id="Combined-Shape" class="st0" d="M8.5,4c2.2,0,4.1,2.6,5.3,5.4C14.7,8,15.8,7,17,7c2.8,0,5,5.3,5,8.1s-2.2,5-5,5
		c-1.4,0-2.6-0.5-3.5-1.4c-1.2,1.4-3,2.4-5,2.4C4.9,21,2,18.1,2,14.5c0-0.9,0.2-2,0.5-3.2l0,0l0.2-0.5C3.8,7.5,6,4,8.5,4z M8.5,21
		c3.6,0,6.5-2.9,6.5-6.5c0-0.9-0.2-2-0.5-3.2l-0.2-0.5C13.2,7.5,11,4,8.5,4s-4.7,3.5-5.8,6.8l-0.2,0.5C2.2,12.5,2,13.6,2,14.5
		C2,18.1,4.9,21,8.5,21z"/>
</g>
</svg>
