<?xml version="1.0" encoding="utf-8"?>
<!-- Generator: Adobe Illustrator 25.0.1, SVG Export Plug-In . SVG Version: 6.00 Build 0)  -->
<svg version="1.1" id="Capa_1" xmlns="http://www.w3.org/2000/svg" xmlns:xlink="http://www.w3.org/1999/xlink" x="0px" y="0px"
	 viewBox="0 0 24 24" style="enable-background:new 0 0 24 24;" xml:space="preserve">
<style type="text/css">
	.st0{fill:none;stroke:#FE7139;stroke-linecap:round;}
</style>
<g id="Milk">
	<path id="Combined-Shape" class="st0" d="M8.3,10.5L9.2,9c0.8-1.3,1.3-2.7,1.5-4.3L11,3h3l0.2,1.7c0.2,1.5,0.7,3,1.5,4.3l0.9,1.5
		c0.2,0.3,0.3,0.7,0.3,1.1V19c0,1.1-0.9,2-2,2h-5c-1.1,0-2-0.9-2-2v-7.4C8,11.2,8.1,10.8,8.3,10.5z M8,14l0.6,0.2
		c1.5,0.5,3.1,0.2,4.4-0.7l0.2-0.2c1-0.8,2.4-0.9,3.6-0.4L17,13v6c0,1.1-0.9,2-2,2h-5c-1.1,0-2-0.9-2-2V14z M10,3h5"/>
</g>
</svg>
