<?xml version="1.0" encoding="utf-8"?>
<!-- Generator: Adobe Illustrator 25.0.1, SVG Export Plug-In . SVG Version: 6.00 Build 0)  -->
<svg version="1.1" id="Capa_1" xmlns="http://www.w3.org/2000/svg" xmlns:xlink="http://www.w3.org/1999/xlink" x="0px" y="0px"
	 viewBox="0 0 24 24" style="enable-background:new 0 0 24 24;" xml:space="preserve">
<style type="text/css">
	.st0{fill:none;stroke:#FE7139;stroke-linecap:round;}
</style>
<g id="Abalone">
	<path id="Combined-Shape" class="st0" d="M19.1,9.2l0.4,0.1c1.3,0.5,2,1.9,1.5,3.2c-0.1,0.3-0.3,0.6-0.5,0.8l-0.2,0.2
		c-1.5,1.7-3.3,3.2-5.3,4.3l-2.9,1.7c0,0-0.1,0-0.1,0L9,17.9c-2-1.2-3.8-2.6-5.3-4.3l-0.2-0.2c-0.9-1-0.9-2.6,0.2-3.5
		c0.2-0.2,0.5-0.4,0.8-0.5l0.4-0.1 M8.7,15.2L5.5,11c-1-1.3-0.7-3.2,0.6-4.2c0.3-0.2,0.5-0.3,0.9-0.4l0.6-0.2C7.9,6,8.3,5.9,8.7,5.8
		l0.2,0c-0.3,0.6-0.4,1.3-0.2,2l1.8,6.4 M13.5,14.2l1.8-6.4c0.2-0.7,0.1-1.4-0.2-2c0.4,0.1,0.9,0.2,1.3,0.4l0.6,0.2
		c1.6,0.5,2.4,2.2,1.9,3.8c-0.1,0.3-0.3,0.6-0.4,0.9l-3.2,4.3 M10.5,14.2L8.6,7.8C8.3,6.6,8.8,5.2,10,4.7c1.3-0.6,2.7-0.6,4,0
		c1.2,0.6,1.7,1.9,1.4,3.2l-1.8,6.4"/>
	<path id="Rectangle-2" class="st0" d="M17,16.6l0,1.9c0,0.8-0.7,1.5-1.5,1.5h-7C7.7,20,7,19.3,7,18.5l0-1.9c0.6,0.5,1.3,0.9,2,1.3
		l0,0l2.9,1.7c0,0,0.1,0,0.1,0l0,0l2.9-1.7C15.7,17.5,16.4,17.1,17,16.6z"/>
</g>
</svg>
