<?xml version="1.0" encoding="utf-8"?>
<!-- Generator: Adobe Illustrator 25.0.1, SVG Export Plug-In . SVG Version: 6.00 Build 0)  -->
<svg version="1.1" id="Capa_1" xmlns="http://www.w3.org/2000/svg" xmlns:xlink="http://www.w3.org/1999/xlink" x="0px" y="0px"
	 viewBox="0 0 24 24" style="enable-background:new 0 0 24 24;" xml:space="preserve">
<style type="text/css">
	.st0{fill:none;stroke:#FE7139;stroke-linecap:round;}
	.st1{fill:none;stroke:#FE7139;stroke-width:1.5;stroke-linecap:round;stroke-linejoin:round;}
</style>
<g id="Fish">
	<path id="Combined-Shape" class="st0" d="M8.4,9.4C13,6.5,19.1,7.9,22,12.5l0,0l-0.2,0.3c-0.6,0.8-1.2,1.5-2,2.1
		c-3.9,3.1-9.4,2.8-13-0.5c-0.6,1.5-2,2.4-3.7,2.3l-0.2,0v-0.3c0-1.5,0.7-3,1.8-3.9c-1-0.8-1.7-2-1.8-3.4l0-0.3V8.2l0.2,0
		c1.6,0.1,2.9,1.1,3.5,2.4C7.2,10.2,7.8,9.7,8.4,9.4z M14,17.2l0.1,0c-0.7,0.7-1.6,1.3-2.6,1.6C10.7,19,9.9,19.1,9.2,19
		c0.4-0.8,0.7-1.6,0.9-2.4C11.3,17,12.7,17.2,14,17.2z M15,7.8L15.1,8c-2-0.3-4,0-5.9,0.9C8.6,7.7,7.9,6.6,7,5.8
		c0.4-0.2,0.8-0.4,1.3-0.5C10.8,4.5,13.5,5.6,15,7.8z"/>
	<path id="Rectangle-Copy-3" class="st1" d="M17.5,11.6v-0.1l0,0V11.6z"/>
</g>
</svg>
