<?xml version="1.0" encoding="utf-8"?>
<!-- Generator: Adobe Illustrator 25.0.1, SVG Export Plug-In . SVG Version: 6.00 Build 0)  -->
<svg version="1.1" id="Capa_1" xmlns="http://www.w3.org/2000/svg" xmlns:xlink="http://www.w3.org/1999/xlink" x="0px" y="0px"
	 viewBox="0 0 24 24" style="enable-background:new 0 0 24 24;" xml:space="preserve">
<style type="text/css">
	.st0{fill:none;stroke:#FE7139;stroke-linecap:round;}
</style>
<g id="Sesame">
	<path id="Combined-Shape" class="st0" d="M18.2,14.5c0.1-0.1,0.4-0.1,0.5,0c0.1,0.1,0.1,0.4,0,0.5l0,0l-0.3,0.3
		c-0.4,1.8-0.8,2.9-1.3,3.4c-0.8,0.8-1.9,0.7-2.7,0c-0.7-0.7-0.8-1.9,0-2.7c0.5-0.5,1.7-1,3.4-1.3l0,0L18.2,14.5z M5.2,14.3
		c0.1-0.2,0.3-0.2,0.5-0.1l0,0L6,14.4c1.8-0.1,3,0,3.7,0.4c1,0.6,1.2,1.7,0.7,2.6c-0.5,0.9-1.6,1.2-2.6,0.7c-0.6-0.4-1.4-1.4-2.2-3
		l0,0l-0.3-0.2C5.2,14.7,5.1,14.5,5.2,14.3z M12.8,6.7c0.2,0,0.4,0.2,0.4,0.4l0,0v0.4c1,1.5,1.5,2.6,1.5,3.4c0,1.1-0.8,1.9-1.9,1.9
		s-1.9-0.8-1.9-1.9c0-0.8,0.5-1.9,1.5-3.4l0,0V7.1C12.4,6.9,12.6,6.7,12.8,6.7z M17.8,5.7c1-0.3,2,0.2,2.3,1.3
		c0.2,0.7,0,1.9-0.6,3.6l0,0l0.1,0.4c0.1,0.2-0.1,0.4-0.3,0.5s-0.4-0.1-0.5-0.3l0,0l-0.1-0.4c-1.4-1.2-2.1-2.1-2.3-2.9
		C16.2,6.9,16.8,6,17.8,5.7z M7.5,3.8L7.5,3.8c0.3,0.1,0.4,0.3,0.3,0.5l0,0L7.7,4.6c0.6,1.7,0.8,2.9,0.6,3.6C8,9.4,7,9.9,6,9.6
		S4.4,8.4,4.7,7.3c0.2-0.7,1-1.7,2.3-2.9l0,0l0.1-0.4C7.2,3.9,7.4,3.8,7.5,3.8L7.5,3.8z"/>
</g>
</svg>
