<?xml version="1.0" encoding="utf-8"?>
<!-- Generator: Adobe Illustrator 25.0.1, SVG Export Plug-In . SVG Version: 6.00 Build 0)  -->
<svg version="1.1" id="Capa_1" xmlns="http://www.w3.org/2000/svg" xmlns:xlink="http://www.w3.org/1999/xlink" x="0px" y="0px"
	 viewBox="0 0 24 24" style="enable-background:new 0 0 24 24;" xml:space="preserve">
<style type="text/css">
	.st0{fill:none;stroke:#FE7139;stroke-linecap:round;}
</style>
<g id="Soya">
	<path id="Combined-Shape" class="st0" d="M7.5,3h5.1c0.9,0,1.8,0.4,2.4,1s1,1.5,1,2.4v0.1c0,1,0.3,1.9,0.9,2.7l0.6,0.8
		c0.9,1.2,1,2.8,0.2,4.1L17,15.3c-0.7,1.1-1,2.4-1,3.7c0,1.1-0.8,2.1-2,2.3L9,22v-3.6c0-0.8,0.3-1.6,0.8-2.2L10,16
		c0.6-0.6,0.8-1.5,0.5-2.3l0-0.1c-0.3-0.7-0.3-1.5,0-2.2l0.1-0.2c0.3-0.7,0.1-1.6-0.4-2.1L10,9C9.4,8.4,9,7.5,9,6.6V4.5
		C9,3.7,8.3,3,7.5,3z M12.5,20c0.8,0,1.5-0.7,1.5-1.5S13.3,17,12.5,17S11,17.7,11,18.5S11.7,20,12.5,20z M14,14.5c1.1,0,2-0.9,2-2
		s-0.9-2-2-2s-2,0.9-2,2S12.9,14.5,14,14.5z M12.5,8.5C13.3,8.5,14,7.8,14,7s-0.7-1.5-1.5-1.5S11,6.2,11,7S11.7,8.5,12.5,8.5z"/>
</g>
</svg>
