<?xml version="1.0" encoding="utf-8"?>
<!-- Generator: Adobe Illustrator 25.0.1, SVG Export Plug-In . SVG Version: 6.00 Build 0)  -->
<svg version="1.1" id="Capa_1" xmlns="http://www.w3.org/2000/svg" xmlns:xlink="http://www.w3.org/1999/xlink" x="0px" y="0px"
	 viewBox="0 0 24 24" style="enable-background:new 0 0 24 24;" xml:space="preserve">
<style type="text/css">
	.st0{fill:none;stroke:#FE7139;stroke-linecap:round;}
</style>
<g id="Sulfur-Dioxide-_x26_-Sulphites">
	<path id="Combined-Shape" class="st0" d="M11,10.1V3h3v7l5,7.9c0.6,0.9,0.3,2.2-0.6,2.8c-0.3,0.2-0.7,0.3-1.1,0.3H7.7
		c-1.1,0-2-0.9-2-2c0-0.4,0.1-0.8,0.3-1.1L11,10.1z M7.8,15h9.4l1.9,2.9c0.6,0.9,0.3,2.2-0.6,2.8c-0.3,0.2-0.7,0.3-1.1,0.3H7.7
		c-1.1,0-2-0.9-2-2c0-0.4,0.1-0.8,0.3-1.1L7.8,15z M10,3h5"/>
</g>
</svg>
