<?xml version="1.0" encoding="utf-8"?>
<!-- Generator: Adobe Illustrator 25.2.0, SVG Export Plug-In . SVG Version: 6.00 Build 0)  -->
<svg version="1.1" id="Capa_1" xmlns="http://www.w3.org/2000/svg" xmlns:xlink="http://www.w3.org/1999/xlink" x="0px" y="0px"
	 viewBox="0 0 450 420" style="enable-background:new 0 0 450 420;" xml:space="preserve">
<style type="text/css">
	.st0{display:none;}
	.st1{fill:#FAFAFA;}
	.st2{fill:#FE7139;}
	.st3{fill:none;stroke:#000000;stroke-miterlimit:10;}
	.st4{fill:#FED339;}
	.st5{fill:#FAFAFA;stroke:#000000;stroke-miterlimit:10;}
</style>
<g id="Capa_2_1_" class="st0">
</g>
<g id="CHICOPAN">
	<path class="st1" d="M14.1,183.3C24,144.1,66.4,112.2,107.4,80c40.3-32.5,79.1-66.4,119.9-69.2c41.2-3,84.9,25,123.8,58
		s73.3,71.6,82.4,115.2c8.6,43.9-7.8,93.3-34,136c-26.5,42.2-62.7,77.6-103.7,88.2c-41.5,10.8-88.1-3.8-130.1-22.7
		s-79-42.5-108.9-78.3C26.8,271.4,4,223.2,14.1,183.3z"/>
	<g>
		<path class="st2" d="M38.6,255.6c0,0-9.4-34.2-8.2-64.8c0,0,8.2,15.3,9.4,18.9c0,0-1.2-25.9,0-36.5c0,0,10.6,20,11.8,27.1
			l2.4-16.5c0,0,6.8,16.4,10.5,30l-5.8,41.9L38.6,255.6L38.6,255.6z"/>
		<g>
			<path class="st2" d="M234.5,185.4c-0.3,9.2,0.4,24.1,3.5,24.8c1.8,0.4,7.2-9.2,11.5-19c-12.2-2.6-12.2-11.6-12.2-11.6h-2.4
				c-0.5,2-1,3.9-1.5,5.8L234.5,185.4z"/>
			<path class="st2" d="M259.6,210.8c5.3,0,11.6-12.5,13.8-23.7l0.8,0.1c0.4-6,0.7-10,0.7-10h-2.4c0,0-9.1,16-21.8,14.2
				C251.8,197,255.2,210.8,259.6,210.8z"/>
			<path class="st2" d="M249.9,193.1C249.9,193.1,249.9,193.1,249.9,193.1C249.9,193.1,249.9,193.1,249.9,193.1L249.9,193.1z"/>
			<path class="st2" d="M251.4,218.5h0.6H251.4z"/>
			<path class="st2" d="M251.4,212.6h0.6H251.4z"/>
			<path class="st2" d="M274,189.8c-2.4,10-8.2,22.2-14.4,22.2c-5.1,0-8.3-12.3-9.5-18l-2.3,28.8c0,0-0.3,0.9,0.3,1.6
				c0.6,0.8,1.9,1.2,3.9,1.2v1.2c-2.4,0-4-0.6-4.9-1.7c-0.8-1-0.5-2.2-0.4-2.5l2.2-27c-3.1,6.8-7.9,16-10.8,16c-0.1,0-0.2,0-0.3,0
				c-4.8-1.2-4.5-20.4-4.4-25.5c-8.1,33.1-7.9,49.1-7.9,49.1h46C271.1,231.4,272.9,205.7,274,189.8z M251.4,219.6
				c-0.6,0-1.2-0.5-1.2-1.2s0.5-1.2,1.2-1.2s1.2,0.5,1.2,1.2C252.5,219.1,252,219.6,251.4,219.6z M251.4,213.8
				c-0.6,0-1.2-0.5-1.2-1.2s0.5-1.2,1.2-1.2s1.2,0.5,1.2,1.2C252.5,213.2,252,213.8,251.4,213.8z"/>
		</g>
		<path d="M127.6,235c0,0-3.5,5.9-1.2,8.2s10.6,8.2,10.6,8.2l10.6-16.5C147.6,235,141.7,226.7,127.6,235z"/>
		<path class="st2" d="M226,179c0,0-12.6-6-27.7-1.8c-21.2,5.9-70.7,57.8-70.7,57.8s7.1-4.7,20,1.2c13,5.9,35.4,18.9,47.1,35.4
			C194.8,271.5,204.2,223.2,226,179z"/>
		<path class="st3" d="M214.2,115.3c0,0,2.4,20-2.4,34.2c0,0-2.4,9.4,5.9,11.8s20,2.4,29.5-8.2"/>
		<path class="st3" d="M220.1,83.5c0,0-9.4,3.5-11.8,9.4c0,0-13-2.4-13-13s8.2-15.3,11.8-15.3s15.3,3.5,25.9,4.7
			c10.6,1.2,27.1-1.2,35.4,3.5s8.2,10.6,8.2,15.3c0,4.7-3.5,10.6-14.1,9.4v17.7c0,0-21.2-5.9-49.5,0c0,0-2.4-16.5-4.7-22.4"/>
		<path class="st3" d="M253.1,88.2c0,0,7.1,5.9,9.4,9.4"/>
		<path d="M234.8,112.4c0,0,13,9.4,15.3,13s3.5,1.2,5.9-1.2c2.4-2.4,4.1-6.5,7.1-8.2C263.1,115.9,251.8,112.2,234.8,112.4z"/>
		<path class="st3" d="M262.5,115.3c0,0,2.4-3.5,8.2-3.5c7.1,0,9.4,5.9,9.4,11.8s-4.7,13-16.5,13"/>
		<path class="st3" d="M261.4,128.3c0,0,1.2-9.4,9.4-10.6"/>
		<path class="st3" d="M237.8,160.1l-1.2,18.9H226c0,0-38.9,73.1-35.4,150.9"/>
		<path class="st3" d="M235.4,179c0,0-8.2,29.5-10.6,56.6h46c0,0,2.3-51.9,4.7-58.9"/>
		<circle cx="214.8" cy="236.1" r="3"/>
		<circle cx="282.6" cy="235.6" r="3"/>
		<path class="st3" d="M146.7,235.9c0,0-10.2,13.9-11.4,19.7"/>
		<path class="st3" d="M145.2,255c0,0-7.7-5.3-33,15.3"/>
		<path class="st3" d="M223.6,124.8c0,0,0,3.5-1.2,4.7c0,0-2.4,0-2.4,2.4s3.5,2.4,3.5,2.4"/>
		<path class="st3" d="M224.8,141.3c0,0,5.9,3.5,8.2-3.5"/>
		<path d="M237.3,168.7c0,0,5.2-1.6,7.6-5.1c2.4-3.5,3.5-5.9,2.4-10.6c0,0-5.9,7.1-9.4,7.1L237.3,168.7z"/>
		<path d="M414.5,235.2c0,0,4.8-2,3.7-11.4c0,0,0-3.5-3-5.3c0,0-13.6-7.7-18.3-1.8C396.9,216.7,407.3,226.6,414.5,235.2z"/>
		<path class="st3" d="M264.9,136.5l8.2,40.1c0,0,14.1-1.2,21.2-3.5"/>
		<path class="st2" d="M291.4,211.7c-0.7,35.3,13.1,45.7,20.1,51.5c7.1,5.9,28.3,8.2,28.3,8.2l-4.3-14.1
			C310.1,240.5,295.3,218.2,291.4,211.7z"/>
		<path class="st3" d="M355.7,269.8c0,0-11.2-8.8-11.8-9.4"/>
		<g>
			<g>
				<path class="st4" d="M286.2,299.8c-0.5-2.4-0.7-10.6-0.7-10.6l-7-17.4c3.4-3.5,4.8-9.3,3-15c-2.4-7.8-9.6-12.5-16.2-10.4
					c-6.5,2-9.9,10-7.5,17.7c2,6.4,7.3,10.7,12.7,10.9l9,23.6c2.4,1.2,6.5,1.8,6.5,1.8S286.7,302.2,286.2,299.8z M260.1,263.5
					c-1.9-6.3,0.8-12.7,6.1-14.3c2.6-0.8,5.4-0.4,7.9,1.2c2.5,1.6,4.3,4.1,5.3,7.1c0.9,3,0.8,6.2-0.3,8.9c-1.1,2.7-3.2,4.7-5.8,5.5
					c-0.8,0.3-1.7,0.4-2.5,0.4C266.2,272.2,261.7,268.7,260.1,263.5z"/>
				<path class="st4" d="M272.9,270.7c2.2-0.7,4.1-2.4,5.1-4.8c1-2.4,1.1-5.3,0.3-8s-2.5-5.1-4.8-6.5c-1.5-1-3.1-1.5-4.7-1.5
					c-0.8,0-1.5,0.1-2.2,0.3c-4.7,1.5-7.1,7.2-5.4,12.9C263,268.8,268.2,272.2,272.9,270.7z"/>
			</g>
			<path class="st4" d="M302.3,335.1l6.9,16.6c0,0,2.4,4.7-2.4,7.1c-4.7,2.4-8.2-3.5-8.2-3.5l-7.1-20L302.3,335.1z"/>
			<path class="st3" d="M400,219.5c0,0,31.7,28.5,30.5,55.6c-1.2,27.1-30.6,38.9-30.6,38.9s-25.9,18.9-106.1,21.2
				c0,0-20.6-1.8-21.8-13.6"/>
			<path class="st3" d="M367.5,266.2c0,0-4.7,0-15.3,5.9s-37.7,22.4-46,22.4s-15.3-9.4-17.7-10.6s-3.5,3.5-2.4,16.5"/>
			<path class="st3" d="M287.3,300.4c0,0-8.2,0-10.6-2.4s-5.9,0-5.9,4.7s1.2,7.1,7.1,7.1"/>
			<path class="st3" d="M270.8,306.3c0,0-4.2,4.1,0,8.2c1.2,1.2,8.2,2.4,8.2,2.4"/>
			<path class="st3" d="M270.8,314.5c0,0-2.9,5.6,2.4,8.2c2.4,1.2,5.9,1.2,5.9,1.2"/>
		</g>
		<path class="st3" d="M290.8,206.1c0,0,0,24.8,4.7,36.5s14.1,27.1,44.8,29.5v5.9"/>
		<path class="st2" d="M318.5,165.4c-22.4-1.2-28.3,13-28.3,13c-6.2,14.4,1.1,30.9,1.1,30.9c0.2,0.3,17.4,31.3,51.1,51l0,0l0.9,0.5
			c55.4-53,71.9-42.4,71.9-42.4C382.2,189,340.9,166.6,318.5,165.4z"/>
		<polyline class="st3" points="349.8,329.9 351,364 289.1,364 		"/>
		<g>
			<path class="st3" d="M40.9,295.7c0,0-11.8-2.4-14.2-5.9c-2.4-3.5-2.4-5.9,0-8.2s8.2,1.2,9.4,2.4s8.2,8.2,8.2,10.6
				C44.5,296.9,40.9,295.7,40.9,295.7z"/>
			<path class="st3" d="M25.6,289.8c0,0-2.4,0-2.4,3.5s7.1,8.2,13,9.4c5.9,1.2,9.4,1.2,9.4,0c0-3.5-5.9-7.1-5.9-7.1"/>
			<path class="st3" d="M28,299.5c0,0-3.6-0.2-3.6,3.3s4.7,5.9,4.7,5.9s10.6,3.5,14.2,3.5s2.4-2.4,1.2-3.5c-1.2-1.2-8.2-5.9-8.2-5.9
				"/>
			<path class="st3" d="M29.1,308.6c0,0-2.7,1.7-1.2,4.7c1.2,2.4,4.7,4.7,9.4,4.7s8.2,0,8.2-2.4s-5.1-3.7-5.1-3.7"/>
			<polyline class="st3" points="31.5,316.9 30.3,364 117.6,364 110.5,255.6 33.9,255.6 32.4,281.4 			"/>
		</g>
		<g>
			<path class="st3" d="M58.1,255.7c0,0,5.3-48.4,11.2-59c5.9-10.6,8.2-15.3,18.9-15.3s18.9,14.1,20,30.6s0,43.6,0,43.6"/>
			<path class="st3" d="M66.9,204.9c0,0,21.2,2.4,23.6,11.8c0,0,0.2,2.4-3.5,2.4c-4.7,0-23.6-1.2-23.6-1.2"/>
			<path class="st3" d="M61,236.7c0,0,16.5,1.2,24.8,10.6c0,0,2.4,3.5-2.4,3.5s-21.2-1.2-24.8,0"/>
		</g>
		<path class="st3" d="M194.2,279.2c0,0-16.9,39-78.9,46.9"/>
		<path class="st4" d="M160,349.3c1.2,0,123.8,0,123.8,0s2.4,0,4.7,5.9c2.8,6.9,3.5,8.2,1.2,9.4H154.1c0,0-4.7-1.2-2.4-4.7
			s4.7-8.2,4.7-8.2S157.6,349.3,160,349.3z"/>
		<path class="st2" d="M175,331c0,0-5.2-12.8-33.6-12.8c0,0,6.3,9.2,12.3,11.3c0,0-9.3,3.9-12.6,8.8c0,0,12.5,9.5,31.4,0.2
			C172.5,338.5,172.8,334.7,175,331z"/>
		<path class="st5" d="M172.4,340c0,0-0.1-9.6,6.6-10.9c12.3-2.3,85.4,14.2,87.3,28.2c0.8,5.9-70.2-4.4-82.7-6.2
			c-2.1-0.3-4.3-1-6.1-2.1C174.8,347.4,171.9,344.5,172.4,340z"/>
		<path class="st3" d="M197.7,331c0,0-5.9,3.5-5.9,9.4"/>
		<path class="st3" d="M204.7,331.8c0,0-4.6,2.8-5.8,7.5"/>
		<path class="st3" d="M209.5,333c0,0-1.8-0.2-3,3.3"/>
		<path d="M228.8,123.5c1.3,0.6,3.9,1.3,7.5,0.8c0.6-0.1,1.1,0.4,0.9,1c-0.3,1-1.5,2.4-5.9,2.4c0,0-4.8,0-4-3.5
			C227.5,123.6,228.2,123.2,228.8,123.5z"/>
		<path d="M221.8,123.9c0.7-0.4,1.5,0,1.6,0.8c0.2,1.1,0.2,2.4-0.4,3c-1.1,1.1-5.9,1.2-6.9-1.1c-0.3-0.6,0.2-1.3,0.9-1.3
			C218.2,125.2,220.2,124.8,221.8,123.9z"/>
		<path d="M227.4,115.7c2.3,0.6,6.6,1.9,9.1,3.4c0.7,0.4,1.6-0.1,1.5-0.9c0-1.5-0.7-3.7-3.8-5.2c-3.1-1.6-5.8,0-7.1,1.2
			C226.6,114.6,226.8,115.5,227.4,115.7z"/>
		<path d="M214.8,119.4c0,0,3-2.8,5.4-3.3c1-0.2,1.1-1.5,0.2-2c-0.7-0.3-1.7,0.6-3.3,0.6h-2.4V119.4z"/>
	</g>
</g>
<g id="CHICAPASTEL">
</g>
<g id="CHICAMOBIL">
</g>
<g id="CHICOREVIEW">
</g>
<g id="CHICAESTADISTICAS">
</g>
<g id="HAMBURGUESA">
</g>
<g id="PIZZA">
</g>
<g id="TACO">
</g>
<g id="POKE">
</g>
<g id="INDIO">
</g>
</svg>
