<?xml version="1.0" encoding="utf-8"?>
<!-- Generator: Adobe Illustrator 25.0.1, SVG Export Plug-In . SVG Version: 6.00 Build 0)  -->
<svg version="1.1" xmlns="http://www.w3.org/2000/svg" xmlns:xlink="http://www.w3.org/1999/xlink" x="0px" y="0px"
	 viewBox="0 0 450 420" style="enable-background:new 0 0 450 420;" xml:space="preserve">
<style type="text/css">
	.st0{display:none;}
	.st1{fill:#FAFAFA;}
	.st2{fill:#FE7139;}
	.st3{fill:none;stroke:#000000;stroke-miterlimit:10;}
	.st4{fill:#FED339;}
	.st5{fill:#FAFAFA;stroke:#000000;stroke-miterlimit:10;}
	.st6{fill:#FFFFFF;stroke:#000000;stroke-miterlimit:10;}
	.st7{fill:#754C24;stroke:#000000;stroke-miterlimit:10;}
	.st8{fill:#FFFFFF;}
	.st9{fill:none;stroke:#FFFFFF;stroke-width:2;stroke-miterlimit:10;}
	.st10{fill:none;}
	.st11{fill:#3964FE;}
	.st12{fill:none;stroke:#3964FE;stroke-miterlimit:10;}
	.st13{fill:none;stroke:#FE7139;stroke-miterlimit:10;}
</style>
<g id="Capa_2" class="st0">
</g>
<g id="CHICOPAN">
</g>
<g id="CHICAPASTEL">
</g>
<g id="CHICAMOBIL">
</g>
<g id="CHICOREVIEW">
	<path class="st1" d="M81.7,389.31c-39.43-38.32-51.46-73.81-65.86-131.66S14.99,149.58,60.8,104.36
		c41.95-32.42,104.34-26.72,165.56-26.04c42.84,2.84,112.27-33.37,152.21-11.01c39.96,21.63,66.1,84.22,66.54,148.16
		c-0.18,63.92-26.07,129.92-67.26,165.65c-41.81,35.7-99.3,31.17-144.45,15.19C188.85,381.06,121.12,427.63,81.7,389.31z"/>
	<g>
		<circle class="st4" cx="302.75" cy="110.87" r="15.74"/>
		<path class="st3" d="M184.04,175.09c0,0-15.84-0.14-21.63-9.9c-5.8-9.76-0.85-16.68,4.52-18.95c5.37-2.26,11.31-0.14,20.93,12.16"
			/>
		<path class="st3" d="M168.2,154.31c0,0,9.9-2.4,13.15,10.18"/>
		<path class="st3" d="M232.61,134.16c0,0-1.3,18.69,2.57,27.36c3.86,8.67,10.27,15.36,5.94,23.85
			c-4.34,8.48-30.45,12.63-43.55-0.57"/>
		<path class="st3" d="M212.11,192.7c0,0-0.14,14.56,1.06,20.71"/>
		<path class="st3" d="M178.24,174.74c0,0-11.17,18.17-16.19,36.48"/>
		<path d="M212.18,202.52c0,0-7-0.21-10.67-4.88s-4.88-7.45-4.29-12.42c0,0,6.13,4.78,15.03,7.12
			C212.25,192.34,211.89,198.92,212.18,202.52z"/>
		<path class="st3" d="M217.45,164.82c0,0,3.3,9.33,10.37,4.34"/>
		<path class="st3" d="M224.52,148.51c0,0-0.75,2.64,1.89,5.84c2.64,3.2,1.41,5.47-0.85,6.22"/>
		<path d="M208.26,152.12c1.79-0.12,6.11-0.66,8.98-3.15c0.36-0.31,0.91-0.13,1.05,0.33c0.42,1.44,0.82,4.04-1.42,5.01
			c-2.05,0.9-7.04,0.81-8.95-1.41C207.67,152.61,207.88,152.15,208.26,152.12z"/>
		<path d="M230.88,149.05c-1.24,0.2-3.54,0.38-6.07-0.44c0,0-0.71,1.46,0.47,3.39c0,0,4.53,1.54,6.21-2.17
			C231.67,149.43,231.31,148.98,230.88,149.05z"/>
		<path d="M206.43,147.24c0,0,7.07-4.76,10.42-5.89c3.35-1.13-0.52-5.37-4.85-3.96c-4.34,1.41-6.6,5.42-7.12,7.31
			C204.35,146.58,205.15,147.76,206.43,147.24z"/>
		<path d="M232.39,142.06c0,0-2.5-1.84-6.65-2.55c-4.15-0.71-0.38-3.2,0.75-3.39c1.13-0.19,4.85-0.71,6.03-0.57L232.39,142.06z"/>
		<g>
			<path d="M232.54,107.08c-4.8-2.88-9.47-1.05-11.48,0.02l0.05,0.06c-0.03,0.02-3.27,2.46-5.29,8.6l-1.19-0.39
				c1.57-4.77,3.82-7.42,4.98-8.55c-1.74-3.16-7.45-8.71-15.27-7.23c-8.62,1.63-10.53,9.05-10.53,9.05
				c-8.34-5.66-17.6-0.71-21.84,5.44c-4.24,6.15-0.85,11.66,2.05,17.82c2.9,6.15,2.19,15.06,2.19,15.06
				c3.82,2.4,9.26,8.2,11.03,10.39c1.77,2.19,4.24,3.82,6.01,0.35c1.77-3.46,5.02-8.77,10.53-15.34c5.51-6.57,10.89-6.08,22.13-6.36
				c11.24-0.28,13.71-4.74,14.99-10.53C242.15,119.67,238.9,110.9,232.54,107.08z"/>
		</g>
		<path d="M22.57,309.27c0,0-17.96-6.22-15.69-15.84c2.26-9.61,22.48-1.98,22.48-1.98S24.27,303.62,22.57,309.27z"/>
		<path class="st3" d="M309.45,319.45c0,0,8.06-20.64,22.48-39.17c14.42-18.52,21.49-28.42,22.06-39.87
			c0.57-11.45,0.57-16.83,2.55-14.56s3.39,9.47,9.47,10.32c6.08,0.85,9.19-5.09,6.08-10.18s-11.74-3.11-13.15-3.39
			c-1.41-0.28-2.83-2.83,2.55-5.66s18.52-1.41,22.76,0.85"/>
		<path class="st3" d="M386.93,223.03c0,0-9.05-14.7-14-19.94c-4.95-5.23-3.53-8.2-0.57-7.49c2.97,0.71,18.52,12.87,22.2,17.96"/>
		<path class="st3" d="M392.31,222.18c0,0,2.36-6.37,3.53-24.6c0.92-14.28,6.86-9.12,7.64-3.25c0.39,2.95,1.27,17.82,0.28,21.35"/>
		<path class="st3" d="M387.92,232.07c0,0-5.37,11.59-2.97,25.59"/>
		<path class="st3" d="M262.44,332.18c30.12,40.44,53.52,41.85,57.19,42.13s24.6-1.13,45.95-33.09
			c26.19-39.2,49.2-130.93,49.63-136.58c0.42-5.66-1.98-6.93-4.67-2.97c-2.69,3.96-11.31,25.45-11.31,25.45"/>
		<path class="st11" d="M163.64,242.06c4.12,6.61,7.67,7.89,9.95,7.8c2.27-0.09,4.38-1.62,5.65-4.08c0.42-0.82,1.05-1.93,1.79-3.26
			c2.74-4.86,7.39-13.14,9.39-20.51c-0.02-0.32,0.23-0.72,0.21-1.02c-0.13-0.36-0.05-0.63-0.14-0.9c-0.22-0.01-0.91,0.03-1.13,0.02
			c-15.72-0.61-26.09-8.79-28.55-10.93C159.84,215.07,157.63,232.43,163.64,242.06z"/>
		<path class="st11" d="M192.03,221.47c3.48,9.58,10.63,27.56,15.12,29.1c2.3,0.79,4.12,0.75,5.41-0.12
			c2.52-1.71,2.75-6.37,2.88-8.87c0.02-0.47,0.05-0.88,0.07-1.21c0.1-1.13-0.09-5.54-0.32-10.66c-0.3-6.68-0.62-13.98-0.53-18.4
			c-1.76,1.35-2.68,2.32-2.68,2.32s-4.25,6.34-20.03,6.43C191.87,220.5,192.14,221.01,192.03,221.47z"/>
		<path class="st11" d="M126.3,260.65l0.95,0.81c-2.76,3.22-9.04,13.45-11.13,16.88c2.57-1.36,5.2-2.71,7.93-4.06
			c22.92-11.28,48.1-17.22,68.28-19.31c-0.09-6.4-1.02-20.42-1.66-29.52c-2.27,6.51-6.01,13.16-8.55,17.69
			c-0.74,1.31-1.36,2.41-1.77,3.22c-1.47,2.86-3.98,4.64-6.71,4.75c-0.09,0-0.18,0.01-0.27,0.01c-2.6,0-6.5-1.51-10.79-8.39
			c-6.59-10.58-3.82-29.3-2.88-34.48c-2.44-1.87-13.06-9.2-27.88-8.34c-16.97,0.99-43.12,11.17-71.4,37.19
			C32.14,263.11,12.2,283.75,7.96,291.1c0,0,2.79-3.88,20.67,0.23c0.07-0.13,0.12-0.23,0.13-0.24l0.92,0.48
			c3.5,0.84,7.54,1.97,12.22,3.48c11.94,3.85,21.26,8.42,28.56,13.42c9.65-7.93,24.32-18.63,43.72-29.1
			C115.24,277.59,123.08,264.41,126.3,260.65z M187.64,247.49c0.74,0,1.34,0.6,1.34,1.34c0,0.74-0.6,1.34-1.34,1.34
			s-1.34-0.6-1.34-1.34C186.3,248.09,186.9,247.49,187.64,247.49z"/>
		<path class="st11" d="M266.56,209.66c-25.65-12.77-43.22-4.47-50.62,0.71c-0.16,4.26,0.21,12.73,0.5,19.27
			c0.24,5.37,0.43,9.61,0.32,10.82c-0.03,0.31-0.05,0.71-0.07,1.16c-0.15,2.91-0.39,7.79-3.43,9.85c-0.89,0.6-1.94,0.9-3.16,0.9
			c-1.01,0-2.14-0.21-3.36-0.63c-4.77-1.64-11.39-17.45-14.82-26.46c0.64,9.05,1.56,22.98,1.66,29.55
			c17.88-1.73,31.63-0.4,36.03,2.97c0.5,0.41,1.23,1.39,0.87,2.53c-0.63,1.98-4.22,3.34-10.93,4.13c5.95,1.37,12.07,3.66,16.69,7.46
			c1.2,0.99,1.99,2.18,2.3,3.46c0.34,1.43-0.09,2.27-0.52,2.72c-0.58,0.62-1.52,0.93-2.81,0.96c0.3,0.28,0.59,0.58,0.86,0.89
			c0.34,0.4,0.8,1.3,0.41,2.22c-0.55,1.29-2.49,2.02-5.94,2.21c-1.96,0.11-4.06,0.15-6.09,0.15c-1.92,0-3.78-0.04-5.43-0.09
			c1.94,0.6,3.85,1.3,5.66,2.14c1.64,0.76,3.48,1.8,3.17,3.13c-0.62,2.72-12.11,2.81-17.02,2.73c-0.28-0.02-26.67-1.32-43.79,16.49
			c-2.71,2.81-5.63,5.9-8.73,9.16c-18.35,19.32-42.37,44.63-60.1,55.98c0.03,0.2,0.06,0.41,0.09,0.6h163.73v-41.71
			c0,0,0.05-0.08,0.15-0.23l-11.65-17.02l1.03-0.7l11.36,16.61c5.99-8.88,40.93-58.6,66.83-49.83
			C329.77,281.77,301.2,226.91,266.56,209.66z"/>
		<g>
			<path d="M262.46,300.87c-0.06-0.04-0.12-0.08-0.18-0.13l-0.02,0.1C262.33,300.85,262.39,300.86,262.46,300.87z"/>
			<path class="st4" d="M287.87,218.42c-7.64,0-62.78-0.71-62.78-0.71l-17.42,36.22c10.66-0.02,18.5,1.33,21.62,3.72
				c0.5,0.41,1.23,1.39,0.87,2.53c-0.63,1.98-4.22,3.33-10.93,4.13c5.95,1.37,12.07,3.66,16.69,7.46c1.2,0.99,1.99,2.18,2.3,3.46
				c0.34,1.43-0.09,2.27-0.52,2.72c-0.58,0.62-1.52,0.93-2.81,0.96c0.3,0.28,0.59,0.58,0.86,0.89c0.34,0.4,0.8,1.3,0.41,2.22
				c-0.55,1.29-2.49,2.02-5.94,2.21c-1.96,0.11-4.05,0.15-6.09,0.15c-1.92,0-3.79-0.04-5.43-0.09c1.94,0.6,3.85,1.3,5.66,2.14
				c1.64,0.76,3.48,1.8,3.17,3.13c-0.62,2.72-12.11,2.81-17.02,2.73c-0.17-0.01-9.68-0.48-20.95,2.96l-0.1,0.24l-9.9,23.47
				c0,0-1.7,3.68,3.11,4.1h63.63c0,0,3.11,1.13,5.94-6.22c2.83-7.35,40.3-93.6,40.3-93.6S295.5,218.42,287.87,218.42z"/>
			<polygon points="208.69,254.34 225.09,217.72 220.28,217.72 204.31,254.48 			"/>
			<path d="M190.87,294.63l-10.32,23.75c0,0-1.7,3.53,1.27,4.38l-4.24-0.14c0,0-3.25-0.71-0.57-6.79
				c2.69-6.08,9.19-19.94,9.19-19.94L190.87,294.63z"/>
		</g>
		<g>
			<path class="st3" d="M198.89,263.18c0,0,24.43-1.06,37.01,9.29c0.99,0.82,1.79,1.88,2.09,3.13c0.39,1.66-0.1,3.56-5.02,2.71"/>
			<path class="st3" d="M198.74,273.64c0,0,28.28-3.11,36.9,6.79c0,0,2.55,2.97-5.09,3.39c-7.64,0.42-17.25-0.19-17.25-0.19"/>
			<g>
				<path class="st3" d="M57.21,321.43c0,0,22.91-24.74,67.16-46.52c44.26-21.77,95.72-23.57,104.91-16.54c0,0,5.51,4.52-14,5.94"/>
				<path class="st3" d="M198.6,281.84c0,0,14.85,0.28,25.87,5.37c11.03,5.09-13.57,4.67-13.57,4.67s-26.72-1.56-44.26,16.68
					c-21.76,22.64-57.97,62.78-78.05,69.85c-18.42,6.49-47.92,12.08-65.89-21.35c-14.14-26.3,6.65-65.61,6.65-65.61"/>
			</g>
		</g>
		<path d="M325.29,289.48l-7.21-8.06c0,0,4.95-2.83,12.02,0.42C330.1,281.84,326.56,286.79,325.29,289.48z"/>
		<path class="st3" d="M277.64,199.27V88.56c0,0-0.57-5.23,7.07-5.23c7.64,0,134.89,0,134.89,0s5.94,0.42,5.94,6.08s0,75.79,0,75.79
			s1.56,5.23-7.21,5.23s-123.58,0-123.58,0s-4.38-0.85-6.36,4.24C286.07,180.62,277.64,199.27,277.64,199.27z"/>
		<line class="st3" x1="287.11" y1="138.47" x2="410.83" y2="138.47"/>
		<line class="st3" x1="287.11" y1="148.65" x2="397.26" y2="148.65"/>
		<line class="st3" x1="287.11" y1="158.13" x2="342.54" y2="158.13"/>
		<g>
			<circle class="st8" cx="302.75" cy="107.26" r="5.23"/>
			<path class="st8" d="M297.53,113.97c0.42-0.53,1.18-0.69,1.74-0.32c0.62,0.41,1.66,0.82,3.34,0.82c1.74,0,2.85-0.37,3.52-0.74
				c0.57-0.31,1.26-0.2,1.68,0.29l1.46,1.72c0.49,0.58,0.41,1.45-0.19,1.91c-1.15,0.87-3.27,2.05-6.29,2.05
				c-3.09,0-5.25-1.27-6.39-2.18c-0.57-0.45-0.66-1.29-0.2-1.86L297.53,113.97z"/>
		</g>
		<path class="st11" d="M334.49,104.8l1.44,2.92c0.12,0.24,0.34,0.4,0.61,0.44l3.22,0.47c0.66,0.1,0.92,0.91,0.45,1.37l-2.33,2.27
			c-0.19,0.18-0.28,0.45-0.23,0.71l0.55,3.21c0.11,0.66-0.58,1.16-1.17,0.85l-2.88-1.52c-0.23-0.12-0.51-0.12-0.75,0l-2.88,1.52
			c-0.59,0.31-1.28-0.19-1.17-0.85l0.55-3.21c0.04-0.26-0.04-0.53-0.23-0.71l-2.33-2.27c-0.48-0.47-0.21-1.28,0.45-1.37l3.22-0.47
			c0.26-0.04,0.49-0.2,0.61-0.44l1.44-2.92C333.35,104.21,334.2,104.21,334.49,104.8z"/>
		<path class="st11" d="M352.97,104.8l1.44,2.92c0.12,0.24,0.34,0.4,0.61,0.44l3.22,0.47c0.66,0.1,0.92,0.91,0.45,1.37l-2.33,2.27
			c-0.19,0.18-0.28,0.45-0.23,0.71l0.55,3.21c0.11,0.66-0.58,1.16-1.17,0.85l-2.88-1.52c-0.23-0.12-0.51-0.12-0.75,0l-2.88,1.52
			c-0.59,0.31-1.28-0.19-1.17-0.85l0.55-3.21c0.04-0.26-0.04-0.53-0.23-0.71l-2.33-2.27c-0.48-0.47-0.21-1.28,0.45-1.37l3.22-0.47
			c0.26-0.04,0.49-0.2,0.61-0.44l1.44-2.92C351.82,104.21,352.67,104.21,352.97,104.8z"/>
		<path class="st11" d="M371.73,104.8l1.44,2.92c0.12,0.24,0.34,0.4,0.61,0.44l3.22,0.47c0.66,0.1,0.92,0.91,0.45,1.37l-2.33,2.27
			c-0.19,0.18-0.28,0.45-0.23,0.71l0.55,3.21c0.11,0.66-0.58,1.16-1.17,0.85l-2.88-1.52c-0.23-0.12-0.51-0.12-0.75,0l-2.88,1.52
			c-0.59,0.31-1.28-0.19-1.17-0.85l0.55-3.21c0.04-0.26-0.04-0.53-0.23-0.71l-2.33-2.27c-0.48-0.47-0.21-1.28,0.45-1.37l3.22-0.47
			c0.26-0.04,0.49-0.2,0.61-0.44l1.44-2.92C370.58,104.21,371.43,104.21,371.73,104.8z"/>
		<path class="st11" d="M390.48,104.8l1.44,2.92c0.12,0.24,0.34,0.4,0.61,0.44l3.22,0.47c0.66,0.1,0.92,0.91,0.45,1.37l-2.33,2.27
			c-0.19,0.18-0.28,0.45-0.23,0.71l0.55,3.21c0.11,0.66-0.58,1.16-1.17,0.85l-2.88-1.52c-0.23-0.12-0.51-0.12-0.75,0l-2.88,1.52
			c-0.59,0.31-1.28-0.19-1.17-0.85l0.55-3.21c0.04-0.26-0.04-0.53-0.23-0.71l-2.33-2.27c-0.48-0.47-0.21-1.28,0.45-1.37l3.22-0.47
			c0.26-0.04,0.49-0.2,0.61-0.44l1.44-2.92C389.34,104.21,390.19,104.21,390.48,104.8z"/>
		<path class="st11" d="M408.86,104.8l1.44,2.92c0.12,0.24,0.34,0.4,0.61,0.44l3.22,0.47c0.66,0.1,0.92,0.91,0.45,1.37l-2.33,2.27
			c-0.19,0.18-0.28,0.45-0.23,0.71l0.55,3.21c0.11,0.66-0.58,1.16-1.17,0.85l-2.88-1.52c-0.23-0.12-0.51-0.12-0.75,0l-2.88,1.52
			c-0.59,0.31-1.28-0.19-1.17-0.85l0.55-3.21c0.04-0.26-0.04-0.53-0.23-0.71l-2.33-2.27c-0.48-0.47-0.21-1.28,0.45-1.37l3.22-0.47
			c0.26-0.04,0.49-0.2,0.61-0.44l1.44-2.92C407.72,104.21,408.57,104.21,408.86,104.8z"/>
	</g>
</g>
<g id="CHICAESTADISTICAS">
</g>
<g id="HAMBURGUESA">
</g>
<g id="PIZZA">
</g>
<g id="TACO">
</g>
<g id="POKE">
</g>
<g id="INDIO">
</g>
</svg>
