<?xml version="1.0" encoding="utf-8"?>
<!-- Generator: Adobe Illustrator 25.0.1, SVG Export Plug-In . SVG Version: 6.00 Build 0)  -->
<svg version="1.1" id="Capa_1" xmlns="http://www.w3.org/2000/svg" xmlns:xlink="http://www.w3.org/1999/xlink" x="0px" y="0px"
	 viewBox="0 0 450 420" style="enable-background:new 0 0 450 420;" xml:space="preserve">
<style type="text/css">
	.st0{fill:#FAFAFA;}
	.st1{display:none;}
	.st2{fill:#F14900;}
	.st3{fill:none;stroke:#000000;stroke-miterlimit:10;}
	.st4{fill:#FED339;}
	.st5{fill:#FFFFFF;stroke:#000000;stroke-miterlimit:10;}
</style>
<path class="st0" d="M287,54.6c42.9,12.6,94.8,16.7,122.1,43.2c28,26.9,31.1,76.8,20.8,120.7c-10.4,43.5-35.2,81.7-66.3,111.6
	c-30.7,29.3-68.2,50.3-108.2,59.5c-40.4,9.3-84.2,7.1-116.3-12.3c-31.6-19.5-52.4-56.5-76.9-93.4c-25-37.2-53.6-74.7-50.4-108.5
	c3.7-33.9,39.3-64.2,72.2-92.9c32.4-28.6,62.1-55.1,94.2-58.1C209.7,21.5,244.2,42.4,287,54.6z"/>
<path d="M91,216.4c0,0-7.6-22,14.7-51.2s34-17.8,55.7-34.4s15.1-19.6,20.5-31.3s22.7-28.9,44.6-28.5c0,0,0.7,2,1.9,3.2
	c0,0-16.8,9.5-22.6,41.5c0,0-9.3-6.7-15.5,0.6c-3.3,3.9,0.5,17.2,15.7,22c0,0-3.4,33.8-17.8,47.8C188.2,186,101.1,217.4,91,216.4z"
	/>
<g id="Capa_2_1_" class="st1">
</g>
<g id="CHICOPAN">
</g>
<path class="st2" d="M277.2,201.1c-6-7.2-17.9-19.1-25.1-20.3s-15.5,3.6-15.5,3.6s2.4,14.3-11.9,15.5s-17.9,0-35.8-14.3
	s-32.8-5.4-53.1,10.1c-20.3,15.5-56.3,22-56.3,22c6.5,0.4,12.7,7,18,15.4c0.1-0.1,0.2-0.2,0.2-0.2l0.9,0.8c0,0,0.3-0.3,0,0
	c8.1,13.1,13.4,30.5,14.8,34.5c12.3-9.4,53.3-39.6,81.2-48.6c14.8-4.8,27.9-6.2,38.8-5.7c1.9-0.7,8-2.6,15.1-2.6
	c3.8,0,5.1,1.1,5.6,2.1c0.5,0.9,0.3,2.1-0.5,3c-0.3,0.3-0.6,0.6-0.9,0.8c5.2,1.7,9.2,3.9,11.7,6.1l0.1,0.1c0.1,0.1,1.6,2.6,0.4,4.4
	c-0.6,0.9-1.9,1.4-3.7,1.4c1.4,1.6,4,4.7,5.3,6.6c1.1-1.1,3.4-2.9,5.8-2.5c1.6,0.2,3,1.3,4.2,3.2c3.7,6.1-2,11.1-2.5,11.5
	c-1.1,1.1-3.2,1.6-5.5,1.6c-1.2,0-2.4-0.2-3.5-0.5c-2.8-0.8-4.6-2.6-5.1-5.1c-1-4.9,2.6-6.2,4.7-7c0.4-0.1,0.8-0.3,1.1-0.4
	c-1.4-2.4-5.5-6.9-6-7.5c-0.1,0-0.3,0-0.4-0.1c-1.6-0.2-3.3-0.5-5.2-0.8c-1.2-0.2-2.4-0.4-3.6-0.5c0.3,1.3,0.5,3.7-0.7,5.6
	c-0.9,1.5-2.5,2.5-4.7,2.8c-0.3,0.1-0.6,0.1-0.9,0.1c0.3,1,0.8,2.9-0.1,4.5c-0.7,1.3-1.9,2.2-3.8,2.6c-0.6,0.1-1.2,0.2-1.8,0.3
	c0.2,0.7,0.3,1.7-0.1,2.9c-0.7,1.7-2.4,3.1-5.1,4c-3.3,1.1-32.7,11.8-59.4,51.1c-11,16.2-23.9,29.4-36.4,38.9
	c10.9,8,66.9,10.9,66.9,10.9s2.7-2,7.2-5.5v-27.4c0,0-3-7.6,2-16.2s21.6-4.9,21.6-4.9s0.7-11.1,0.3-20.8c-0.4-9.7,7.3-11.6,7.3-11.6
	l6.1,0c-0.7-2.4-2.9-9.5-4.2-12.6l1.1-0.5c1.4,3.3,3.7,11,4.3,13.1l41.7-0.1c11.9-29.2,29.6-31.6,29.6-31.6
	C299.9,226.1,283.2,208.2,277.2,201.1z"/>
<path class="st3" d="M252.2,79.3c0,0,16.7,15.5,14.3,47.7s-17.9,32.2-20.3,32.2s-10.7-2.4-19.1-9.6"/>
<path class="st3" d="M253.4,119.9c0,0,1.4,4.3,4.8,6c2.4,1.2-1.2,4.8-4.8,3.6"/>
<path class="st3" d="M243.9,133c0,0-1.2,7.2,8.4,6"/>
<path class="st3" d="M214.1,124.7c0,0-13.1-17.9-22.7-9.6s11.9,25.1,19.1,23.9"/>
<path class="st3" d="M196.2,119.9c0,0,9.6-1.2,11.9,8.3"/>
<path class="st3" d="M246.3,78.1c0,0,2.4,4.8,9.6-1.2c7.2-6,9.5-13.1,7.2-15.5c-2.4-2.4-8.4,1.2-14.3,8.3"/>
<path class="st3" d="M242.7,69.8c0,0,8.4-3.6,7.2,4.8c-0.9,6-7.2,2.4-7.2,2.4S242.7,72.2,242.7,69.8"/>
<path class="st3" d="M241.5,67.4c0,0-7.3-11.5-17-9.1c-1.2,0.3-1.9,1.5-1.7,2.7c1,4.3,4.1,14.6,11.5,18.3
	C243.9,84.1,243.9,71,241.5,67.4z"/>
<path class="st3" d="M236.7,80.1c0,0-16.6,8.8-25,41c0,0-3.6-3.6-5.9-5.2c0,0,2.3-26.7,22.6-41.8C228.4,74.1,231.8,78.6,236.7,80.1z
	"/>
<path class="st3" d="M236.3,156c0,0-4.3,10.5,0.5,28.4"/>
<path d="M234.3,167.6c0,0-13.1-8.4-9.6-17.9c0,0,1.4-2.7,5.4,1.8c1.6,1.9,6,4.8,6,4.8S234.3,160.5,234.3,167.6z"/>
<path d="M83.2,253.4c0,0-13.5-15.3-11.1-26.1c2.4-10.7,8.3-10.7,13.1-8.4c4.8,2.4,13.2,14.6,13.2,14.6S84.7,250.8,83.2,253.4z"/>
<path class="st4" d="M350.1,137.8l6,23.9l-24.1,8.2c0,0-12-5.5-14.9-9.9s-5.8-4.9-8.8-4.3c-4.8,1,5.1,18.5,5.1,18.5l-8.1,2.4
	l-7.8-22.1l14.9-5L342,141c0,0,1.5,7,3.9,7C349.5,148,350.1,137.8,350.1,137.8z"/>
<path class="st5" d="M321,136c0,0-0.8-3-6.7-1.8c-6,1.2-2.4,14.3-1.2,16.7c1.2,2.4,8.4,11.9,10.7,1.2"/>
<path class="st5" d="M332.4,133.3c0,0-8.4-7.8-10.9,0.9c-2.4,8.4,2.4,22.7,6,22.7s6-1.3,6.6-7.8"/>
<path class="st5" d="M341.7,131.8c0,0-3.6-3.6-7.2-2.4c-3.6,1.2-2.4,10.7-2.4,10.7s1.2,13.1,6,11.9s4.5-8.7,4.5-8.7"/>
<path class="st3" d="M348.3,348.4c0,0,26.2-8.4,29.8-37s-7.5-116.2-13.1-142c-3-13.7-7.8-30.4-14.3-38.2c-9.9-11.7-9.5,4.8-8.4,10.7
	c1.2,6,4.8,7.2,6,3.6c1.2-3.6,1.2-8.4,1.2-8.4"/>
<g>
	
		<rect x="297.3" y="156.3" transform="matrix(0.9424 -0.3344 0.3344 0.9424 -38.3754 109.3745)" class="st4" width="2.4" height="19.6"/>
</g>
<g>
	<path d="M276.6,236.5c-1.1-1.9-2.5-3-4.2-3.2c-2.4-0.3-4.6,1.5-5.8,2.5c-1.2-2-3.9-5.1-5.3-6.6c1.8,0,3-0.5,3.7-1.4
		c1.2-1.8-0.3-4.3-0.4-4.4l-0.1-0.1c-2.5-2.2-6.5-4.4-11.7-6.1c0.3-0.2,0.6-0.5,0.9-0.8c0.7-1,0.9-2.1,0.5-3c-0.5-1-1.8-2.1-5.6-2.1
		c-7.1,0-13.2,2-15.1,2.6c-10.9-0.5-24,1-38.8,5.7c-33.1,10.6-84.4,51-84.9,51.4l0.7,0.9c0.5-0.4,51.6-40.6,84.5-51.2
		c14.6-4.7,27.5-6.1,38.2-5.7l0.1,0.2c0,0,0.1-0.1,0.4-0.1c14.5,0.7,24.9,4.8,29.9,9.1c0.4,0.6,1,2.2,0.4,3.1
		c-0.6,0.8-2.1,1.1-4.6,0.7c-1.5-0.2-3.3-0.5-5.2-0.8c-8.4-1.3-18.9-2.8-24.7-2.8v1.2c4.7,0,12.5,1,19.7,2.1c0.2,1,0.6,3.4-0.5,5.2
		c-0.7,1.2-2,2-3.8,2.3c-6.9,1.2-15.2-1.1-15.2-1.2l-0.3,1.1c0.3,0.1,5.5,1.6,11.3,1.6c0.8,0,1.6,0,2.4-0.1c0.3,0.8,0.8,2.5,0.1,3.8
		c-0.5,1-1.5,1.6-3,1.9c-5.8,1.1-11.6,0-11.7,0l-0.2,1.2c0.2,0,2.8,0.6,6.3,0.6c0.9,0,1.9,0,2.8-0.1c0.2,0.5,0.3,1.4-0.1,2.3
		c-0.5,1.4-2,2.5-4.4,3.3c-5.4,1.8-33.7,12.8-60,51.5c-25.1,37.1-58.7,55.9-74.5,55.9c-0.4,0-0.9,0-1.3,0c-18.5-1.3-37.7-7-40-38.8
		c-2.3-32.8,41.2-83.8,41.6-84.3l-0.9-0.8c-0.4,0.5-44.3,51.9-41.9,85.2c2.3,33,23.2,38.6,41.1,39.9c0.5,0,1,0,1.6,0
		c18.2,0,51.4-21,75.3-56.4c26.6-39.3,56.1-50,59.4-51.1c2.7-0.9,4.4-2.2,5.1-4c0.4-1.1,0.3-2.1,0.1-2.9c0.6-0.1,1.2-0.2,1.8-0.3
		c1.9-0.4,3.2-1.2,3.8-2.6c0.8-1.6,0.4-3.5,0.1-4.5c0.3,0,0.6-0.1,0.9-0.1c2.2-0.4,3.8-1.3,4.7-2.8c1.2-1.9,1-4.3,0.7-5.6
		c1.2,0.2,2.4,0.4,3.6,0.5c1.9,0.3,3.7,0.6,5.2,0.8c0.1,0,0.3,0,0.4,0.1c0.5,0.6,4.6,5.2,6,7.5c-0.3,0.1-0.7,0.3-1.1,0.4
		c-2.1,0.8-5.7,2.1-4.7,7c0.5,2.4,2.3,4.2,5.1,5.1c1.1,0.3,2.4,0.5,3.5,0.5c2.3,0,4.4-0.6,5.5-1.6
		C274.6,247.6,280.3,242.7,276.6,236.5z M248.7,212.4c2.4,0,4.1,0.5,4.5,1.4c0.2,0.5,0.1,1.2-0.3,1.8c-0.5,0.6-1.2,1-1.7,0.9l0,0.1
		c-4.1-1.2-8.8-2.1-14.2-2.6C239.8,213.3,244,212.4,248.7,212.4z M273.3,247.1L273.3,247.1c-1.2,1.2-4.8,1.8-7.9,0.9
		c-1.7-0.5-3.8-1.6-4.2-4.1c-0.8-3.9,1.8-4.9,3.9-5.7c0.8-0.3,1.5-0.5,1.9-0.9c0.7-0.7,2.8-2.8,4.9-2.8c0.1,0,0.3,0,0.4,0
		c1.2,0.1,2.3,1,3.3,2.6C278.9,242.6,273.6,246.9,273.3,247.1z"/>
	<path d="M273.2,238.4c0.1,0.1,2.1,3.2-1.1,6.4l0.8,0.8c3.9-3.9,1.3-7.9,1.3-7.9L273.2,238.4z"/>
</g>
<path d="M264.4,102.3c0,0-6.3,1.9-14.5-6.5c0,0-2,5.9-13.2,12.2s-11.9,5.1-21.1,16.6c0,0-1.3,0.9-2.5-0.9c-1.2-1.8-1.7-2.4-1.7-2.4
	s6-28.2,24.6-40.8c0,0,5.2,0.7,6.7-3.4c0,0,3,1.4,4.4,1.2c0,0,1,3,5.2,1.2C252.2,79.3,262.3,90.1,264.4,102.3z"/>
<path class="st3" d="M314.3,265.5c0,0,13.1-43,9.5-69.2c0,0-7.2-17.9-11.9-25.1s-7.2-13.1-3.6-15.5c3.6-2.4,13.5,8.8,16.7,10.7
	c6,3.6,14.3,6,20.3,7.2"/>
<path d="M321.4,233.3c0,0-2.3,17.3-4.2,21.6l-12.7-11.2C304.5,243.7,311.9,234.7,321.4,233.3z"/>
<path d="M236.8,120.6c2.3-0.8,6-2.3,8.7-3.9c0.7-0.4,1.6-0.1,1.8,0.8c0.3,1.5,0.4,3.7-0.8,4.6c-1.7,1.2-5.6,1.2-9.6,0
	C236.1,121.8,236.1,120.8,236.8,120.6z"/>
<path d="M256.5,114.3c1.6,0.2,4.5,0.5,6.6,0.3c0.7-0.1,1.2,0.7,0.9,1.2c-0.7,1.3-2,3-4.2,2.9c-2.5-0.1-3.9-1.7-4.4-3.1
	C255.1,115,255.8,114.2,256.5,114.3z"/>
<path d="M243.6,106.8c0,0-0.3,9-10.8,9.2c0,0-4.1-1.6-0.6-6.6C235.7,104.5,243.6,103.8,243.6,106.8z"/>
<path d="M265.8,109.3c0,0-7.1,0.4-8.8-4.3c-1.7-4.7,3.9-3.7,3.9-3.7l3.4,0.3C264.3,101.6,266,108,265.8,109.3z"/>
<line class="st3" x1="285" y1="173.2" x2="287.8" y2="171.6"/>
<path class="st3" d="M294.2,186.3c0,0-0.5,4.5,0.3,5.3"/>
<g>
	<path d="M204.5,352.6h144.4c0,0,1.2-8.4-3.6-9.5h-136C209.3,343,204.5,344.2,204.5,352.6z"/>
	<line class="st3" x1="341.8" y1="344" x2="341.8" y2="320.4"/>
	<line class="st3" x1="211.6" y1="344.6" x2="211.6" y2="320"/>
	<line class="st3" x1="235.7" y1="287.5" x2="235.6" y2="278"/>
	<line class="st3" x1="317.5" y1="279.5" x2="317.5" y2="287.5"/>
	<path class="st4" d="M308.6,264.5h-65.4c0,0-8.4,0.3-8.7,12.4c0,0,1.2,6.1,5.5-0.6s4.7,0.7,4.7,0.7s1.1,8,4.4,4.8
		c3.3-3.2,2.3-6.2,6.7-6.2s1.4,5.3,5.8,4.4s4-8.6,6.8-8.8s4,14.5,8.6,14.1c4.6-0.4,3.1-10.7,6.3-10.9s4.3,4.9,7.4,4.6s3-8.7,7.9-9.2
		s3.6,13.3,8.4,13.1c4.8-0.3,2.6-9.1,4.9-9.5s2.5,7.9,6.2,6.8C321.7,279,319.4,264.3,308.6,264.5z M288.9,270.7l-0.6-1l2.8-1.6
		l0.6,1L288.9,270.7z"/>
	<g>
		<path class="st4" d="M342.2,304.7c-3.4-5.7-5.2-8.4-15-8.2H224.2c0,0-9.9-0.7-13.9,9.5c-4.1,10.1-0.7,14.9,2,14.5
			c2.7-0.4,3.1-5.1,5.8-8.2s5,1,5.4,4.9c0.4,3.9,1.8,8.6,4.9,8.6c3.1,0,4.7-6.8,6.1-10.8c1.4-4,3-9.7,8-9.7s6.2,11.4,8.2,12.8
			c2,1.5,5.1,3.6,8.1-0.8c3-4.5,5.5-5.3,8.2-4.3c2.1,0.7,3.4,8.5,4,12c0.2,1.7,1,3.4,2.1,4.6c1.5,1.6,3.7,2.5,6.2-0.8
			c4.6-6.1,3.6-11.8,5.8-16.2s5.5-6.9,8.5-0.4s4.9,10.5,8.9,9.3c4-1.2,4.7-9.7,10.7-6.9s4.2,10.4,8.4,10.9s5.3-14,9.3-14.2
			c4-0.1,5.5,10.3,10.1,9.6C345.6,320.1,345.6,310.4,342.2,304.7z M226.8,302.1c-3.3,0-5,2.3-5.1,2.4l-1-0.7
			c0.1-0.1,2.1-2.9,6.1-2.9L226.8,302.1L226.8,302.1z M312.7,301.6c-4-0.5-4.5,1.8-4.5,1.9l-1.2-0.2c0,0,0.6-3.6,5.8-2.9
			L312.7,301.6z M322.5,313.3c-1.8-1.3-2.2-3.9-2.2-4l1.2-0.2c0,0,0.4,2.2,1.7,3.2L322.5,313.3z"/>
		<line class="st3" x1="240.7" y1="302.1" x2="243.9" y2="300.1"/>
		<path class="st3" d="M272.1,305.7c0,0,3.1,0.3,4.1,3.9"/>
		<path class="st3" d="M327.5,299.6c0,0-0.1,1.9,3.8,2.2"/>
	</g>
	<circle class="st5" cx="235.7" cy="292.1" r="4.5"/>
	<circle class="st3" cx="262.9" cy="292.1" r="4.5"/>
	<circle class="st3" cx="290.2" cy="292.1" r="4.5"/>
	<circle class="st3" cx="317.5" cy="292.1" r="4.5"/>
</g>
<g id="CHICAMOBIL">
</g>
<g id="CHICOREVIEW">
</g>
<g id="CHICAESTADISTICAS">
</g>
<g id="HAMBURGUESA">
</g>
<g id="PIZZA">
</g>
<g id="TACO">
</g>
<g id="POKE">
</g>
<g id="INDIO">
</g>
</svg>
