<?xml version="1.0" encoding="utf-8"?>
<!-- Generator: Adobe Illustrator 25.0.1, SVG Export Plug-In . SVG Version: 6.00 Build 0)  -->
<svg version="1.1" id="Capa_1" xmlns="http://www.w3.org/2000/svg" xmlns:xlink="http://www.w3.org/1999/xlink" x="0px" y="0px"
	 viewBox="0 0 500 500" style="enable-background:new 0 0 500 500;" xml:space="preserve">
<style type="text/css">
	.st0{display:none;}
	.st1{fill:#FAFAFA;}
	.st2{fill:#FE7139;}
	.st3{fill:none;stroke:#000000;stroke-miterlimit:10;}
	.st4{fill:#FED339;}
	.st5{fill:#FAFAFA;stroke:#000000;stroke-miterlimit:10;}
</style>
<g id="Capa_2_1_" class="st0">
</g>
<g id="CHICOPAN">
	<path class="st1" d="M37.12,246.34c9.92-39.21,52.28-71.1,93.25-103.37c40.27-32.46,79.07-66.43,119.87-69.17
		c41.23-3,84.89,24.97,123.81,58.02s73.33,71.6,82.41,115.24c8.64,43.89-7.8,93.31-34.01,135.96
		c-26.45,42.2-62.66,77.64-103.71,88.18c-41.48,10.79-88.06-3.75-130.06-22.67s-79.01-42.45-108.93-78.3
		C49.84,334.38,27.01,286.25,37.12,246.34z"/>
	<g>
		<path class="st2" d="M61.58,318.6c0,0-9.43-34.18-8.25-64.83c0,0,8.25,15.32,9.43,18.86c0,0-1.18-25.93,0-36.54
			c0,0,10.61,20.04,11.79,27.11l2.36-16.5c0,0,6.78,16.41,10.46,30.01l-5.75,41.89L61.58,318.6L61.58,318.6z"/>
		<g>
			<path class="st2" d="M257.45,248.4c-0.3,9.19,0.38,24.06,3.48,24.83c1.84,0.44,7.19-9.21,11.49-19.03
				c-12.21-2.58-12.22-11.63-12.22-11.63h-2.36c-0.52,1.99-1,3.92-1.46,5.8L257.45,248.4z"/>
			<path class="st2" d="M282.6,273.81c5.3,0,11.65-12.52,13.79-23.72l0.79,0.15c0.43-5.97,0.74-10.03,0.74-10.03h-2.36
				c0,0-9.13,15.97-21.78,14.23C274.78,260.01,278.22,273.81,282.6,273.81z"/>
			<path class="st2" d="M272.91,256.15c-0.01-0.03-0.01-0.06-0.02-0.09c-0.01,0.03-0.03,0.06-0.04,0.09H272.91z"/>
			<path class="st2" d="M274.35,281.47h0.58H274.35z"/>
			<path class="st2" d="M274.35,275.57h0.58H274.35z"/>
			<path class="st2" d="M296.99,252.83c-2.43,10-8.25,22.16-14.4,22.16c-5.08,0-8.29-12.31-9.5-17.95l-2.32,28.75
				c-0.01,0.03-0.26,0.85,0.26,1.56c0.58,0.79,1.92,1.2,3.89,1.2v1.18c-2.41,0-4.04-0.57-4.86-1.7c-0.76-1.05-0.52-2.21-0.44-2.53
				l2.16-27.03c-3.14,6.79-7.93,15.95-10.84,15.95c-0.11,0-0.21-0.01-0.31-0.04c-4.75-1.19-4.53-20.42-4.39-25.5
				c-8.06,33.1-7.85,49.09-7.85,49.09h45.97C294.08,294.44,295.85,268.73,296.99,252.83z M274.35,282.65
				c-0.65,0-1.18-0.53-1.18-1.18s0.53-1.18,1.18-1.18s1.18,0.53,1.18,1.18C275.52,282.12,275,282.65,274.35,282.65z M274.35,276.75
				c-0.65,0-1.18-0.53-1.18-1.18s0.53-1.18,1.18-1.18s1.18,0.53,1.18,1.18C275.52,276.22,275,276.75,274.35,276.75z"/>
		</g>
		<path d="M150.57,297.97c0,0-3.54,5.89-1.18,8.25s10.61,8.25,10.61,8.25l10.61-16.5C170.61,297.97,164.72,289.72,150.57,297.97z"/>
		<path class="st2" d="M249,241.98c0,0-12.55-5.98-27.7-1.77c-21.22,5.89-70.73,57.76-70.73,57.76s7.07-4.72,20.04,1.18
			c12.97,5.89,35.36,18.86,47.15,35.36C217.76,334.51,227.19,286.18,249,241.98z"/>
		<path class="st3" d="M237.21,178.33c0,0,2.36,20.04-2.36,34.18c0,0-2.36,9.43,5.89,11.79s20.04,2.36,29.47-8.25"/>
		<path class="st3" d="M243.11,146.5c0,0-9.43,3.54-11.79,9.43c0,0-12.97-2.36-12.97-12.97s8.25-15.32,11.79-15.32
			s15.32,3.54,25.93,4.72c10.61,1.18,27.11-1.18,35.36,3.54s8.25,10.61,8.25,15.32c0,4.72-3.54,10.61-14.15,9.43v17.68
			c0,0-21.22-5.89-49.51,0c0,0-2.36-16.5-4.72-22.4"/>
		<path class="st3" d="M276.11,151.21c0,0,7.07,5.89,9.43,9.43"/>
		<path d="M257.84,175.38c0,0,12.97,9.43,15.32,12.97s3.54,1.18,5.89-1.18c2.36-2.36,4.13-6.48,7.07-8.25
			C286.13,178.91,274.78,175.23,257.84,175.38z"/>
		<path class="st3" d="M285.54,178.33c0,0,2.36-3.54,8.25-3.54c7.07,0,9.43,5.89,9.43,11.79s-4.72,12.97-16.5,12.97"/>
		<path class="st3" d="M284.36,191.29c0,0,1.18-9.43,9.43-10.61"/>
		<path class="st3" d="M260.79,223.12l-1.18,18.86H249c0,0-38.9,73.08-35.36,150.88"/>
		<path class="st3" d="M258.43,241.98c0,0-8.25,29.47-10.61,56.58h45.97c0,0,2.29-51.89,4.68-58.95"/>
		<circle cx="237.8" cy="299.15" r="2.95"/>
		<circle cx="305.58" cy="298.56" r="2.95"/>
		<path class="st3" d="M169.66,298.86c0,0-10.24,13.85-11.42,19.74"/>
		<path class="st3" d="M168.25,318.01c0,0-7.66-5.3-33.01,15.32"/>
		<path class="st3" d="M246.64,187.76c0,0,0,3.54-1.18,4.72c0,0-2.36,0-2.36,2.36s3.54,2.36,3.54,2.36"/>
		<path class="st3" d="M247.82,204.26c0,0,5.89,3.54,8.25-3.54"/>
		<path d="M260.3,231.74c0,0,5.2-1.55,7.56-5.08c2.36-3.54,3.54-5.89,2.36-10.61c0,0-5.89,7.07-9.43,7.07L260.3,231.74z"/>
		<path d="M437.48,298.19c0,0,4.84-1.99,3.66-11.42c0,0,0-3.54-2.95-5.3c0,0-13.56-7.66-18.27-1.77
			C419.92,279.7,430.29,289.58,437.48,298.19z"/>
		<path class="st3" d="M287.9,199.54l8.25,40.08c0,0,14.15-1.18,21.22-3.54"/>
		<path class="st2" d="M314.39,274.74c-0.74,35.3,13.1,45.72,20.07,51.53c7.07,5.89,28.29,8.25,28.29,8.25l-4.34-14.11
			C333.11,303.52,318.32,281.18,314.39,274.74z"/>
		<path class="st3" d="M378.67,332.75c0,0-11.2-8.84-11.79-9.43"/>
		<g>
			<g>
				<path class="st4" d="M309.24,362.78c-0.47-2.38-0.71-10.59-0.71-10.59l-6.95-17.39c3.41-3.48,4.75-9.26,3-14.96
					c-2.4-7.78-9.64-12.45-16.17-10.43c-6.53,2.01-9.88,9.95-7.49,17.73c1.98,6.43,7.27,10.72,12.73,10.88l8.99,23.6
					c2.36,1.18,6.48,1.77,6.48,1.77S309.71,365.16,309.24,362.78z M283.11,326.47c-1.93-6.27,0.82-12.7,6.13-14.33
					c2.6-0.8,5.39-0.35,7.88,1.25c2.46,1.59,4.32,4.12,5.26,7.14c0.93,3.02,0.82,6.16-0.32,8.86c-1.15,2.73-3.22,4.68-5.81,5.47
					c-0.84,0.26-1.7,0.38-2.55,0.38C289.17,335.24,284.74,331.74,283.11,326.47z"/>
				<path class="st4" d="M295.9,333.74c2.25-0.7,4.06-2.4,5.07-4.81c1.03-2.44,1.13-5.3,0.28-8.05s-2.54-5.06-4.77-6.5
					c-1.49-0.96-3.09-1.45-4.67-1.45c-0.75,0-1.5,0.11-2.22,0.33c-4.69,1.45-7.09,7.22-5.35,12.86
					C285.98,331.77,291.21,335.18,295.9,333.74z"/>
			</g>
			<path class="st4" d="M325.26,398.06l6.85,16.61c0,0,2.36,4.72-2.36,7.07c-4.72,2.36-8.25-3.54-8.25-3.54l-7.07-20.04
				L325.26,398.06z"/>
			<path class="st3" d="M423.03,282.49c0,0,31.67,28.45,30.49,55.56c-1.18,27.11-30.65,38.9-30.65,38.9s-25.93,18.86-106.09,21.22
				c0,0-20.63-1.77-21.81-13.56"/>
			<path class="st3" d="M390.46,329.21c0,0-4.72,0-15.32,5.89s-37.72,22.4-45.97,22.4s-15.32-9.43-17.68-10.61s-3.54,3.54-2.36,16.5
				"/>
			<path class="st3" d="M310.3,363.39c0,0-8.25,0-10.61-2.36s-5.89,0-5.89,4.72s1.18,7.07,7.07,7.07"/>
			<path class="st3" d="M293.8,369.29c0,0-4.17,4.08,0,8.25c1.18,1.18,8.25,2.36,8.25,2.36"/>
			<path class="st3" d="M293.8,377.54c0,0-2.91,5.62,2.36,8.25c2.36,1.18,5.89,1.18,5.89,1.18"/>
		</g>
		<path class="st3" d="M313.83,269.09c0,0,0,24.75,4.72,36.54s14.15,27.11,44.79,29.47v5.9"/>
		<path class="st2" d="M341.54,228.42c-22.4-1.18-28.29,12.97-28.29,12.97c-6.17,14.4,1.11,30.95,1.11,30.95
			c0.17,0.31,17.42,31.33,51.06,51.05l0,0l0.88,0.5c55.4-53.05,71.91-42.44,71.91-42.44C405.19,252,363.93,229.6,341.54,228.42z"/>
		<polyline class="st3" points="372.77,392.86 373.95,427.05 312.07,427.05 		"/>
		<g>
			<path class="st3" d="M63.93,358.68c0,0-11.79-2.36-14.15-5.89c-2.36-3.54-2.36-5.89,0-8.25s8.25,1.18,9.43,2.36
				s8.25,8.25,8.25,10.61C67.47,359.86,63.93,358.68,63.93,358.68z"/>
			<path class="st3" d="M48.61,352.78c0,0-2.36,0-2.36,3.54s7.07,8.25,12.97,9.43c5.89,1.18,9.43,1.18,9.43,0
				c0-3.54-5.89-7.07-5.89-7.07"/>
			<path class="st3" d="M51.02,362.45c0,0-3.59-0.23-3.59,3.3s4.72,5.89,4.72,5.89s10.61,3.54,14.15,3.54s2.36-2.36,1.18-3.54
				c-1.18-1.18-8.25-5.89-8.25-5.89"/>
			<path class="st3" d="M52.14,371.65c0,0-2.67,1.73-1.18,4.72c1.18,2.36,4.72,4.72,9.43,4.72s8.25,0,8.25-2.36S63.49,375,63.49,375
				"/>
			<polyline class="st3" points="54.5,379.9 53.32,427.05 140.55,427.05 133.48,318.6 56.86,318.6 55.43,344.41 			"/>
		</g>
		<g>
			<path class="st3" d="M81.05,318.7c0,0,5.28-48.43,11.18-59.04c5.89-10.61,8.25-15.32,18.86-15.32s18.86,14.15,20.04,30.65
				s0,43.61,0,43.61"/>
			<path class="st3" d="M89.87,267.91c0,0,21.22,2.36,23.58,11.79c0,0,0.19,2.36-3.54,2.36c-4.72,0-23.58-1.18-23.58-1.18"/>
			<path class="st3" d="M83.97,299.74c0,0,16.5,1.18,24.75,10.61c0,0,2.36,3.54-2.36,3.54s-21.22-1.18-24.75,0"/>
		</g>
		<path class="st3" d="M217.17,342.18c0,0-16.89,38.98-78.88,46.9"/>
		<path class="st4" d="M182.99,412.31c1.18,0,123.77,0,123.77,0s2.36,0,4.72,5.89c2.77,6.92,3.54,8.25,1.18,9.43H177.1
			c0,0-4.72-1.18-2.36-4.72s4.72-8.25,4.72-8.25S180.63,412.31,182.99,412.31z"/>
		<path class="st2" d="M197.98,394.03c0,0-5.25-12.76-33.56-12.76c0,0,6.28,9.18,12.27,11.29c0,0-9.28,3.92-12.61,8.78
			c0,0,12.5,9.52,31.43,0.18C195.49,401.51,195.77,397.66,197.98,394.03z"/>
		<path class="st5" d="M195.4,402.99c0,0-0.13-9.64,6.63-10.89c12.29-2.28,85.43,14.19,87.3,28.23c0.78,5.88-70.19-4.38-82.74-6.23
			c-2.15-0.32-4.26-0.99-6.12-2.11C197.8,410.37,194.94,407.55,195.4,402.99z"/>
		<path class="st3" d="M220.71,394.04c0,0-5.89,3.54-5.89,9.43"/>
		<path class="st3" d="M227.71,394.81c0,0-4.64,2.77-5.82,7.48"/>
		<path class="st3" d="M232.51,396.01c0,0-1.78-0.2-2.96,3.34"/>
		<path d="M251.77,186.5c1.33,0.57,3.92,1.34,7.47,0.83c0.58-0.08,1.1,0.43,0.94,1c-0.3,1.03-1.52,2.38-5.88,2.38c0,0-4.81,0-4-3.48
			C250.46,186.58,251.16,186.24,251.77,186.5z"/>
		<path d="M244.83,186.91c0.66-0.39,1.5,0.01,1.63,0.77c0.18,1.08,0.22,2.39-0.41,3.02c-1.06,1.06-5.89,1.18-6.89-1.08
			c-0.27-0.6,0.23-1.28,0.89-1.34C241.24,188.17,243.23,187.84,244.83,186.91z"/>
		<path d="M250.45,178.71c2.26,0.63,6.6,1.95,9.06,3.39c0.7,0.41,1.57-0.13,1.55-0.94c-0.05-1.52-0.74-3.67-3.81-5.2
			c-3.14-1.57-5.76,0-7.15,1.22C249.56,177.65,249.77,178.52,250.45,178.71z"/>
		<path d="M237.8,182.45c0,0,2.98-2.84,5.42-3.33c0.97-0.2,1.13-1.52,0.24-1.96c-0.7-0.34-1.74,0.58-3.3,0.58h-2.36V182.45z"/>
	</g>
</g>
<g id="CHICAPASTEL">
</g>
<g id="CHICAMOBIL">
</g>
<g id="CHICOREVIEW">
</g>
<g id="CHICAESTADISTICAS">
</g>
<g id="HAMBURGUESA">
</g>
<g id="PIZZA">
</g>
<g id="TACO">
</g>
<g id="POKE">
</g>
<g id="INDIO">
</g>
</svg>
