<?xml version="1.0" encoding="utf-8"?>
<!-- Generator: Adobe Illustrator 25.0.1, SVG Export Plug-In . SVG Version: 6.00 Build 0)  -->
<svg version="1.1" id="Capa_1" xmlns="http://www.w3.org/2000/svg" xmlns:xlink="http://www.w3.org/1999/xlink" x="0px" y="0px"
	 viewBox="0 0 450 420" style="enable-background:new 0 0 450 420;" xml:space="preserve">
<style type="text/css">
	.st0{display:none;}
	.st1{fill:#FAFAFA;}
	.st2{fill:#FED339;}
	.st3{fill:#F14900;}
	.st4{fill:#FFFFFF;}
	.st5{fill:none;stroke:#FFFFFF;stroke-width:2;stroke-miterlimit:10;}
	.st6{fill:none;stroke:#000000;stroke-miterlimit:10;}
	.st7{fill:#FFFFFF;stroke:#000000;stroke-miterlimit:10;}
	.st8{fill:none;}
</style>
<g id="Capa_2_1_" class="st0">
</g>
<g id="CHICOPAN">
</g>
<g id="CHICAPASTEL">
</g>
<path class="st1" d="M446,230.1C437.8,292.4,373.1,342,319.4,371c-53.1,29.4-95.7,38.7-137.1,34.4c-41.2-3.4-81.9-19.4-119.2-55.7
	C26.5,313.8-7.9,258.4,6.3,220.6s75.5-58.2,141.6-89.3c66.8-30.7,129.9-95.2,190.2-78.5C397.6,69.7,453.7,167.4,446,230.1z"/>
<path class="st2" d="M11.2,235.8c0,0,97.3,0,106.5,0s10.3,6.1,10.3,6.1l45.5,99.7h51.2c1.7,0,3.1,1.4,3.1,3.1v1.7
	c0,1.7-1.4,3.1-3.1,3.1h-74.4h-1.1h-17.1c-0.4,0-0.9-0.1-1.3-0.3c-1.1-0.5-1.8-1.5-1.8-2.8v-1.7c0-1.7,1.4-3.1,3.1-3.1h16.9h1.1h0.9
	H167c-4-8.9-41.4-93-44.6-97.9c-3.3-5.1-4.3-3.1-4.3-3.1s-93.1,0-100.2,0s-3.6,5.1-3.6,5.1l43.6,95.5h71.4c-1,0.8-1.6,2-1.6,3.4v1.7
	c0,1.1,0.4,2,1.1,2.8H54.8c-1.7,0-3.1-1.4-3.1-3.1v-1.7c0-0.2,0-0.4,0.1-0.6C45.4,329.7,9.4,251.1,7,244.5
	C4.4,237.3,11.2,235.8,11.2,235.8z"/>
<path class="st3" d="M115.2,254H34.5c-2.3,0-3.8,2.3-2.9,4.4l26.7,59.7c0.5,1.1,1.6,1.9,2.8,1.9h81.5c2.3,0,3.8-2.4,2.8-4.4
	l-27.5-59.7C117.6,254.7,116.5,254,115.2,254z"/>
<circle class="st4" cx="67.9" cy="346" r="1.2"/>
<line class="st5" x1="83.4" y1="345.9" x2="73.7" y2="345.9"/>
<path class="st6" d="M288.4,152.4c0,0-9.5,8.6-19.9,4.6c-10.4-4-11.4-19.6-10.9-30.1s4.3-21.9,7.1-26.9"/>
<path class="st6" d="M308.1,126.1c0,0,14-9.2,18.4,0.8c4,9.3-12,19.9-20.9,17.7"/>
<path class="st6" d="M321,129.9c0,0-5.7-1.8-12.4,5.9"/>
<path class="st6" d="M276.9,134.9c0,0-3.2,6.8-8.4,3.2"/>
<path class="st6" d="M269.4,121.8c0,0-2.5,2.5-4.9,3.6c-2.4,1.1,1.2,3.8,3.1,4.2"/>
<path d="M309.3,145.2c0,0,1.4,20.2,7.1,29.8c0,0,9.5-6.3,22.5,0.7c0,0,27.3-14.5,8.9-29.9s-17.5-24.8-17.5-30.6s1.5-30.9-23.9-37
	s-36.4,4.7-43.4,21c0,0,12.9,10.5,26,15.8c0,0,5.8-4.9,6.8-8.6c0-0.2-3.2,8.8-4.2,10.4c0,0,7.3,6.5,16.7,10.1c0,0,9-7.3,15.5-3.1
	C323.8,123.6,336.5,136.3,309.3,145.2z"/>
<path d="M284,125c-2.1-1-5.3-2.8-6.8-4.6c-0.6-0.7-1.7-0.6-2.1,0.2c-0.4,0.8-0.5,2,0.6,3.8c1.6,2.6,5.6,2.4,8.1,2
	C284.5,126.3,284.7,125.3,284,125z"/>
<path d="M268.2,115.9c-1.5,0-4.1-0.1-6.5-1.2c-0.5-0.2-1,0.2-1,0.7c0.1,1.6,0.6,4.2,3.8,4.4c3.3,0.2,4.3-1.4,4.7-2.7
	C269.3,116.5,268.8,115.9,268.2,115.9z"/>
<path d="M290.9,121.9c0,0,0.9-2.5-2.4-5.2c-2.7-2.2-8.7-4.8-9.8-3.4c-1.4,1.8,1.6,4.8,3.2,5.9C283.6,120.4,287.2,123.6,290.9,121.9z
	"/>
<path d="M263.3,103.1c0,0,7.9,4.7,6.8,6.8s-5.1,1-9-0.6C261.1,109.2,262.3,104.5,263.3,103.1z"/>
<path d="M280.2,166.1c0,0,6.5-2.4,9.8-6.9c0.4-0.6,0.7-1.2,1-1.9c1.1-2.6,3.2-9-1.9-6.1c-2.8,1.6-6.5,5.7-9.5,6.2
	C279.6,157.4,280.4,163.3,280.2,166.1z"/>
<g>
	<path class="st6" d="M247.8,312.1c0,0-12.7,12.2-35.1,10.6s-43-22-53.2-39.7c-10.2-17.7-33.7-52.9-45.5-58.5"/>
	<g>
		<g>
			<g>
				<path class="st6" d="M279.7,157.7c0,0,1.4,16.1-1.4,25.9"/>
				<g>
					<path d="M204.4,249.4c0,0-1.9-7.3,0.3-10.7s16.1,0.5,21.4,6.4c0,0-10.2,12.5-11.6,15.2C214.5,260.3,207,251.2,204.4,249.4z"/>
					<g>
						<path class="st2" d="M311.5,188.8c4.1-5.8,4.9-12.1,4.9-13.8c0,0,12.8-11.4,40.1,11.6c27.3,23,43.5,36.6,59.9,45.1
							c16.7,8.7-2.6,23.2-2.6,23.2L402,239c0,0-4-0.6-14.3,9.9c-10.1,10.2-18,23.2-34.2,29.6C351,276.1,317.6,243.4,311.5,188.8z"/>
						<path class="st2" d="M242.1,217.8c9.6-11.1,24.5-42,36.9-34.2c0,0-1,2.6,0,5.5c-2.1,7.2-19.8,69.5-25.4,90.6
							c-3.1-3.7-12.4-14.8-16-19.7c-4.3-5.9-12.5-23.1-32.4-22C205.2,238,232.5,229,242.1,217.8z"/>
						<path class="st2" d="M253.3,286c0.2-0.8,0.5-2,0.9-3.6c0.2-0.5,0.3-1,0.4-1.5c0,0,0,0-0.1-0.1c5.1-19.3,22-78.5,25.3-90.1
							c1.7,2.6,5.3,5.3,12.9,6.6c8,1.4,13.8-2.3,17.7-7.2c6.8,56.1,42,89,42.3,89.3l0,0c2.9,3.3,17.9,20.8,19.2,22.1
							c0,0-2.9-1.5-27.1,3.1c-24.2,4.6-79.9,23.7-84.2,25.5c0,0-13.5-2.1-16.8-2.9C243.8,327.2,249.7,299.3,253.3,286L253.3,286z"/>
					</g>
				</g>
			</g>
			<path d="M400.5,239.2c0,0,13.1-9,19.6-3.6c6.9,5.8-3.9,16.2-7,18.4L400.5,239.2z"/>
		</g>
		<path class="st6" d="M387.4,305.8c0,0-9.5-7.8-35.6-2.2c-26.2,5.6-84.4,17.3-127.1,47.2c0,0-8.2,6.4,1.4,5
			c9.6-1.4,17.4-6.3,17.4-6.3"/>
		<path class="st6" d="M246.3,347.1c0,0-22.3,18.8-20.5,22.5c0,0,1.5,3.7,9.1,0.2c7.5-3.5,19.1-16.2,19.1-16.2"/>
		<path class="st7" d="M254.2,353.7c0,0-23.2,14-21.6,20.6c1.4,5.6,18.4-7,18.4-7"/>
		<path class="st6" d="M401.1,238.9c0,0,34.6,41.4,37.4,68.7s-13.6,41.5-37,49c-23.4,7.5-69.5,3.8-74.6,3.6
			c-5.1-0.1-28.1-4.2-52.9,6.3s-27,10.6-28.3,9.3c-1.2-1.2,6.1-10.9,12.9-15"/>
		<path class="st6" d="M260.8,330.6c0,0-17.8-5.4-21.2-2.6s7.4,8.9,7.4,8.9"/>
		<path class="st6" d="M372,301.6c0,0-15-17.5-19.1-22.6"/>
	</g>
</g>
<g>
	<path class="st3" d="M96.4,180.6l24.3-3l1.2,10.1c-1.5-0.5-3.5-0.9-4.4,0.2c-1,1.2-0.2,3.7,2.4,7.6l-21.4,2.6L96.4,180.6z"/>
	<path class="st8" d="M121.3,195.3l1.6-0.2l-0.8-6.1c0.4,0.2,0.8,0.3,1.2,0.5c0.2,0.1,0.5,0.2,0.7,0.3l1.3,11.1
		c-1.2-1.6-2.4-3.3-3.8-5.2C121.5,195.6,121.4,195.5,121.3,195.3z"/>
	<path d="M122.2,189.1l-0.2-1.4c0.9,0.3,1.6,0.6,1.9,0.8l0.2,1.4c-0.2-0.1-0.5-0.2-0.7-0.3C123,189.4,122.6,189.2,122.2,189.1z"/>
	<path d="M121.6,195.8c1.3,1.9,2.6,3.6,3.8,5.2l0.3,2.4c-1.5-2-3.2-4.3-5.1-6.9c-0.2-0.3-0.4-0.6-0.7-1l1.4-0.2
		C121.4,195.5,121.5,195.6,121.6,195.8z"/>
	<path d="M117.6,187.9c0.9-1.1,2.9-0.7,4.4-0.2l0.2,1.4c-1.5-0.6-3.2-0.9-3.7-0.4c-0.2,0.3-0.7,1.6,2.8,6.7l-1.4,0.2
		C117.3,191.5,116.5,189.1,117.6,187.9z"/>
</g>
<path d="M222.6,270.9l-1,0.7c-0.4-0.5-34.8-52.5-94.8-80.5l-0.2-1.4C187.2,217.7,222.2,270.4,222.6,270.9z"/>
<path d="M131.2,208.5c3.1,4,5.1,6.5,5.9,8.7l-1.1,0.4c-0.7-2-2.6-4.4-5.7-8.3c-0.5-0.6-1-1.3-1.6-2l-0.3-2.4
	C129.4,206.2,130.3,207.4,131.2,208.5z"/>
<path d="M125.4,201c1.1,1.4,2,2.7,3,3.9l0.3,2.4c-0.9-1.2-1.9-2.4-2.9-3.9L125.4,201z"/>
<path d="M123.9,188.5L123.9,188.5c0.9,0.4,1.8,0.8,2.6,1.2l0.2,1.4c-0.9-0.4-1.7-0.8-2.6-1.2L123.9,188.5z"/>
<path class="st6" d="M94.9,193.3c0,0-5.2-1.6-5,0.7c0.3,3.8,5.9,7.1,5.9,7.1"/>
<path class="st6" d="M96.5,209.4c0,0-6.3-3.8-5.9-6.7c0.4-2.9,5.2-1.5,5.2-1.5"/>
<path d="M92.5,165.3c1-1.3,2.5-2.1,4.1-2.3l20.2-2.4c3.4-0.4,6.4,2,6.8,5.4l2.8,23.7c-0.9-0.4-1.7-0.8-2.6-1.2l0,0l-2.7-22.2
	c-0.1-1-0.6-1.9-1.4-2.5c-0.7-0.5-1.4-0.8-2.3-0.8c-0.2,0-0.3,0-0.4,0l-2.9,0.4l0.1,0.8c0.1,0.7-0.4,1.3-1.1,1.4l-12.3,1.4
	c-0.7,0.1-1.3-0.4-1.4-1.1l-0.1-0.7l-2.6,0.3c-1,0.1-1.8,0.6-2.5,1.4s-0.9,1.7-0.8,2.7l6.1,50.7c0.1,1,0.6,1.9,1.4,2.5
	s1.7,0.9,2.7,0.8l20.2-2.4c1-0.1,1.8-0.6,2.5-1.4s0.9-1.7,0.8-2.7l-1.6-13.6c1.1,1.4,2,2.7,2.9,3.9l1.1,9.4c0.2,1.6-0.2,3.2-1.3,4.5
	c-1,1.3-2.5,2.1-4.1,2.3l-20.2,2.4c-0.2,0-0.5,0.1-0.8,0.1c-1.4,0-2.7-0.5-3.8-1.3c-1.3-1-2.1-2.5-2.3-4.1l-6.1-50.7
	C91.1,168.2,91.5,166.6,92.5,165.3z"/>
<ellipse transform="matrix(0.8396 -0.5432 0.5432 0.8396 -9.2873 188.2043)" class="st3" cx="314" cy="109.8" rx="5.2" ry="2.9"/>
<g id="CHICOREVIEW">
</g>
<g id="CHICAESTADISTICAS">
</g>
<g id="HAMBURGUESA">
</g>
<g id="PIZZA">
</g>
<g id="TACO">
</g>
<g id="POKE">
</g>
<g id="INDIO">
</g>
</svg>
