<?xml version="1.0" encoding="utf-8"?>
<!-- Generator: Adobe Illustrator 25.0.1, SVG Export Plug-In . SVG Version: 6.00 Build 0)  -->
<svg version="1.1" xmlns="http://www.w3.org/2000/svg" xmlns:xlink="http://www.w3.org/1999/xlink" x="0px" y="0px"
	 viewBox="0 0 450 420" style="enable-background:new 0 0 450 420;" xml:space="preserve">
<style type="text/css">
	.st0{display:none;}
	.st1{fill:#FAFAFA;}
	.st2{fill:#FE7139;}
	.st3{fill:none;stroke:#000000;stroke-miterlimit:10;}
	.st4{fill:#FED339;}
	.st5{fill:#FAFAFA;stroke:#000000;stroke-miterlimit:10;}
	.st6{fill:#FFFFFF;stroke:#000000;stroke-miterlimit:10;}
	.st7{fill:#754C24;stroke:#000000;stroke-miterlimit:10;}
	.st8{fill:#FFFFFF;}
	.st9{fill:none;stroke:#FFFFFF;stroke-width:2;stroke-miterlimit:10;}
	.st10{fill:none;}
	.st11{fill:#3964FE;}
	.st12{fill:none;stroke:#3964FE;stroke-miterlimit:10;}
	.st13{fill:none;stroke:#FE7139;stroke-miterlimit:10;}
</style>
<g id="Capa_2" class="st0">
</g>
<g id="CHICOPAN">
</g>
<g id="CHICAPASTEL">
	<path class="st1" d="M286.95,54.55c42.9,12.6,94.76,16.73,122.15,43.23c27.98,26.89,31.1,76.76,20.75,120.72
		c-10.44,43.47-35.22,81.73-66.32,111.59c-30.71,29.27-68.23,50.26-108.16,59.49c-40.42,9.34-84.24,7.13-116.3-12.3
		c-31.57-19.52-52.45-56.55-76.86-93.36c-25-37.2-53.62-74.68-50.38-108.5c3.73-33.93,39.34-64.21,72.2-92.91
		c32.38-28.6,62.12-55.12,94.15-58.14C209.74,21.46,244.16,42.44,286.95,54.55z"/>
	<g>
		<path class="st2" d="M277.24,201.07c-5.97-7.16-17.9-19.09-25.06-20.28c-7.16-1.19-15.51,3.58-15.51,3.58s2.39,14.32-11.93,15.51
			c-14.32,1.19-17.9,0-35.8-14.32c-17.9-14.32-32.81-5.37-53.1,10.14c-20.28,15.51-56.26,22.04-56.26,22.04
			c6.52,0.41,12.73,7.04,18.02,15.4c0.12-0.14,0.19-0.22,0.2-0.24l0.9,0.78c-0.02,0.03,0.26-0.31,0,0
			c8.06,13.13,13.43,30.47,14.77,34.51c12.35-9.4,53.27-39.59,81.25-48.59c14.78-4.75,27.9-6.21,38.81-5.73
			c1.86-0.67,7.96-2.65,15.07-2.65c3.76,0,5.12,1.15,5.59,2.11c0.46,0.93,0.28,2.05-0.46,3.02c-0.27,0.34-0.58,0.61-0.91,0.83
			c5.19,1.72,9.15,3.9,11.69,6.12l0.12,0.14c0.06,0.11,1.57,2.65,0.4,4.41c-0.62,0.94-1.85,1.41-3.66,1.42
			c1.39,1.57,4.04,4.67,5.27,6.64c1.15-1.08,3.35-2.85,5.76-2.54c1.61,0.2,3.01,1.27,4.17,3.19c3.67,6.12-2.04,11.1-2.5,11.49
			c-1.07,1.06-3.22,1.64-5.49,1.64c-1.19,0-2.42-0.16-3.55-0.5c-2.79-0.84-4.59-2.64-5.07-5.05c-0.99-4.94,2.57-6.25,4.7-7.04
			c0.39-0.14,0.78-0.29,1.07-0.43c-1.42-2.36-5.52-6.94-6.04-7.52c-0.14-0.02-0.27-0.03-0.41-0.05c-1.56-0.22-3.32-0.49-5.2-0.77
			c-1.16-0.17-2.35-0.35-3.57-0.53c0.26,1.34,0.46,3.68-0.7,5.61c-0.92,1.52-2.48,2.48-4.66,2.84c-0.28,0.05-0.57,0.06-0.85,0.1
			c0.34,1.02,0.75,2.88-0.06,4.51c-0.66,1.31-1.95,2.17-3.84,2.55c-0.62,0.12-1.23,0.22-1.84,0.29c0.19,0.72,0.3,1.74-0.13,2.86
			c-0.66,1.74-2.39,3.08-5.12,3.99c-3.27,1.09-32.74,11.79-59.36,51.08c-10.96,16.18-23.86,29.35-36.36,38.88
			c10.91,7.98,66.89,10.9,66.89,10.9s2.7-2.02,7.16-5.48v-27.44c0,0-2.97-7.56,2.03-16.21c5-8.65,21.61-4.86,21.61-4.86
			s0.68-11.08,0.27-20.8c-0.41-9.73,7.29-11.62,7.29-11.62l6.06-0.02c-0.73-2.44-2.87-9.52-4.18-12.58l1.1-0.47
			c1.42,3.31,3.71,10.96,4.33,13.05l41.7-0.11c11.93-29.21,29.56-31.58,29.56-31.58C299.91,226.13,283.21,208.23,277.24,201.07z"/>
		<path class="st3" d="M252.24,79.33c0,0,16.71,15.51,14.32,47.73s-17.9,32.22-20.28,32.22s-10.74-2.39-19.09-9.55"/>
		<path class="st3" d="M253.43,119.9c0,0,1.4,4.28,4.77,5.97c2.39,1.19-1.19,4.77-4.77,3.58"/>
		<path class="st3" d="M243.89,133.03c0,0-1.19,7.16,8.35,5.97"/>
		<path class="st3" d="M214.06,124.68c0,0-13.13-17.9-22.67-9.55s11.93,25.06,19.09,23.86"/>
		<path class="st3" d="M196.16,119.9c0,0,9.55-1.19,11.93,8.35"/>
		<path class="st3" d="M246.27,78.14c0,0,2.39,4.77,9.55-1.19c7.16-5.97,9.55-13.13,7.16-15.51c-2.39-2.39-8.35,1.19-14.32,8.35"/>
		<path class="st3" d="M242.69,69.79c0,0,8.35-3.58,7.16,4.77c-0.86,6.02-7.16,2.39-7.16,2.39S242.69,72.18,242.69,69.79"/>
		<path class="st3" d="M241.5,67.4c0,0-7.3-11.47-17.02-9.07c-1.2,0.3-1.95,1.5-1.67,2.71c1,4.34,4.1,14.58,11.53,18.29
			C243.89,84.11,243.89,70.98,241.5,67.4z"/>
		<path class="st3" d="M236.67,80.13c0,0-16.65,8.75-25,40.96c0,0-3.58-3.58-5.86-5.17c0,0,2.26-26.73,22.56-41.81
			C228.36,74.12,231.84,78.55,236.67,80.13z"/>
		<path class="st3" d="M236.27,155.98c0,0-4.31,10.46,0.46,28.36"/>
		<path d="M234.34,167.63c0,0-13.13-8.35-9.55-17.9c0,0,1.44-2.72,5.37,1.79c1.64,1.89,5.97,4.77,5.97,4.77
			S234.34,160.47,234.34,167.63z"/>
		<path d="M83.15,253.38c0,0-13.47-15.34-11.09-26.08c2.39-10.74,8.35-10.74,13.13-8.35c4.77,2.39,13.18,14.58,13.18,14.58
			S84.69,250.82,83.15,253.38z"/>
		<path class="st4" d="M350.08,137.8l5.97,23.86l-24.08,8.23c0,0-12.03-5.53-14.86-9.86c-2.83-4.33-5.81-4.93-8.79-4.33
			c-4.82,0.96,5.14,18.52,5.14,18.52l-8.13,2.36l-7.76-22.07l14.94-5.01l29.45-8.51c0,0,1.55,6.96,3.94,6.96
			C349.49,147.95,350.08,137.8,350.08,137.8z"/>
		<path class="st6" d="M321.03,135.99c0,0-0.78-2.96-6.74-1.77c-5.97,1.19-2.39,14.32-1.19,16.71c1.19,2.39,8.35,11.93,10.74,1.19"
			/>
		<path class="st6" d="M332.38,133.29c0,0-8.43-7.8-10.93,0.93c-2.39,8.35,2.39,22.67,5.97,22.67s6.01-1.28,6.59-7.8"/>
		<path class="st6" d="M341.73,131.84c0,0-3.58-3.58-7.16-2.39c-3.58,1.19-2.39,10.74-2.39,10.74s1.19,13.13,5.97,11.93
			s4.49-8.7,4.49-8.7"/>
		<path class="st3" d="M348.29,348.41c0,0,26.25-8.35,29.83-36.99c3.58-28.64-7.51-116.18-13.13-141.99
			c-2.98-13.72-7.76-30.43-14.32-38.18c-9.87-11.67-9.55,4.77-8.35,10.74c1.19,5.97,4.77,7.16,5.97,3.58
			c1.19-3.58,1.19-8.35,1.19-8.35"/>
		<g>
			
				<rect x="297.28" y="156.33" transform="matrix(0.9424 -0.3344 0.3344 0.9424 -38.3755 109.3791)" class="st4" width="2.39" height="19.62"/>
		</g>
		<g>
			<path d="M276.62,236.53c-1.15-1.92-2.55-3-4.17-3.19c-2.41-0.31-4.6,1.46-5.76,2.54c-1.23-1.97-3.88-5.07-5.27-6.64
				c1.81-0.01,3.04-0.48,3.66-1.42c1.16-1.75-0.34-4.3-0.4-4.41l-0.12-0.14c-2.53-2.22-6.5-4.4-11.69-6.12
				c0.33-0.22,0.64-0.49,0.91-0.83c0.74-0.97,0.92-2.1,0.46-3.02c-0.47-0.96-1.83-2.11-5.59-2.11c-7.11,0-13.21,1.98-15.07,2.65
				c-10.91-0.47-24.03,0.98-38.81,5.73c-33.13,10.65-84.39,51-84.91,51.41l0.74,0.94c0.51-0.41,51.61-40.63,84.53-51.21
				c14.58-4.69,27.51-6.14,38.23-5.7l0.07,0.16c0.01,0,0.15-0.06,0.39-0.15c14.49,0.67,24.92,4.8,29.87,9.08
				c0.35,0.62,0.98,2.17,0.39,3.06c-0.56,0.84-2.15,1.09-4.61,0.74c-1.55-0.22-3.31-0.48-5.2-0.77c-8.4-1.26-18.85-2.82-24.72-2.82
				v1.19c4.71,0,12.47,1.03,19.71,2.09c0.24,1.02,0.62,3.39-0.46,5.19c-0.73,1.21-2.02,1.97-3.83,2.28
				c-6.94,1.16-15.17-1.15-15.25-1.18l-0.33,1.15c0.27,0.08,5.52,1.55,11.28,1.55c0.81,0,1.62-0.04,2.44-0.1
				c0.28,0.76,0.76,2.47,0.08,3.83c-0.48,0.96-1.49,1.61-3.01,1.91c-5.77,1.15-11.64,0.01-11.7,0l-0.23,1.17
				c0.16,0.03,2.79,0.55,6.28,0.55c0.9,0,1.85-0.03,2.84-0.12c0.16,0.53,0.31,1.4-0.05,2.31c-0.54,1.38-2.01,2.48-4.37,3.27
				c-5.4,1.8-33.69,12.75-59.97,51.54c-25.11,37.07-58.73,55.87-74.54,55.86c-0.44,0-0.87-0.01-1.29-0.04
				c-18.51-1.32-37.74-6.97-40.02-38.82c-2.34-32.78,41.18-83.78,41.62-84.29l-0.9-0.78c-0.44,0.52-44.28,51.88-41.91,85.15
				c2.35,32.96,23.21,38.65,41.12,39.93c0.51,0.04,1.02,0.05,1.55,0.05c18.16,0,51.37-21,75.35-56.4
				c26.61-39.28,56.08-49.99,59.36-51.08c2.73-0.91,4.45-2.25,5.12-3.99c0.43-1.11,0.32-2.14,0.13-2.86
				c0.61-0.08,1.22-0.17,1.84-0.29c1.89-0.38,3.19-1.24,3.84-2.55c0.81-1.62,0.4-3.48,0.06-4.51c0.28-0.04,0.57-0.05,0.85-0.1
				c2.18-0.36,3.75-1.32,4.66-2.84c1.16-1.93,0.96-4.28,0.7-5.61c1.22,0.18,2.41,0.36,3.57,0.53c1.88,0.28,3.65,0.55,5.2,0.77
				c0.14,0.02,0.27,0.03,0.41,0.05c0.53,0.58,4.63,5.16,6.04,7.52c-0.29,0.14-0.68,0.29-1.07,0.43c-2.13,0.78-5.68,2.09-4.7,7.04
				c0.48,2.41,2.28,4.2,5.07,5.05c1.13,0.34,2.35,0.5,3.55,0.5c2.27,0,4.42-0.59,5.49-1.64
				C274.58,247.63,280.29,242.65,276.62,236.53z M248.66,212.38c2.42,0,4.07,0.53,4.52,1.44c0.25,0.51,0.12,1.17-0.34,1.77
				c-0.47,0.61-1.16,0.97-1.67,0.87l-0.03,0.15c-4.08-1.2-8.83-2.12-14.19-2.56C239.79,213.27,244.04,212.38,248.66,212.38z
				 M273.34,247.11l-0.05,0.04c-1.18,1.17-4.79,1.8-7.87,0.86c-1.66-0.5-3.75-1.63-4.25-4.14c-0.79-3.94,1.83-4.91,3.94-5.68
				c0.82-0.3,1.47-0.54,1.86-0.94c0.7-0.7,2.76-2.76,4.92-2.76c0.13,0,0.27,0.01,0.4,0.02c1.23,0.15,2.34,1.03,3.29,2.62
				C278.86,242.59,273.57,246.93,273.34,247.11z"/>
			<path d="M273.22,238.36c0.09,0.13,2.06,3.23-1.12,6.41l0.84,0.84c3.88-3.88,1.29-7.87,1.27-7.91L273.22,238.36z"/>
		</g>
		<path d="M264.36,102.29c0,0-6.28,1.89-14.52-6.48c0,0-1.96,5.88-13.24,12.16s-11.89,5.07-21.07,16.55c0,0-1.28,0.88-2.5-0.95
			c-1.22-1.82-1.69-2.43-1.69-2.43s6.01-28.16,24.65-40.79c0,0,5.22,0.65,6.7-3.39c0,0,2.96,1.43,4.38,1.16c0,0,1.01,2.99,5.17,1.23
			C252.24,79.33,262.34,90.06,264.36,102.29z"/>
		<path d="M90.99,216.36c0,0-7.56-22.02,14.72-51.2s34.04-17.83,55.65-34.45s15.13-19.59,20.53-31.34s22.69-28.91,44.58-28.5
			c0,0,0.68,1.96,1.89,3.24c0,0-16.75,9.52-22.63,41.47c0,0-9.27-6.72-15.47,0.61c-3.31,3.92,0.54,17.16,15.74,22.02
			c0,0-3.44,33.84-17.76,47.75C188.25,185.97,101.12,217.44,90.99,216.36z"/>
		<path class="st3" d="M314.29,265.48c0,0,13.13-42.96,9.55-69.21c0,0-7.16-17.9-11.93-25.06c-4.77-7.16-7.16-13.13-3.58-15.51
			c3.58-2.39,13.47,8.8,16.71,10.74c5.97,3.58,14.32,5.97,20.28,7.16"/>
		<path d="M321.39,233.29c0,0-2.3,17.34-4.19,21.58l-12.7-11.17C304.51,243.7,311.89,234.67,321.39,233.29z"/>
		<path d="M236.76,120.59c2.27-0.81,6.03-2.27,8.67-3.91c0.71-0.44,1.64-0.07,1.8,0.75c0.28,1.54,0.41,3.71-0.83,4.57
			c-1.74,1.21-5.6,1.19-9.6-0.03C236.13,121.78,236.11,120.83,236.76,120.59z"/>
		<path d="M256.55,114.32c1.65,0.23,4.46,0.53,6.62,0.32c0.67-0.07,1.16,0.65,0.85,1.25c-0.68,1.33-1.99,3.03-4.19,2.95
			c-2.47-0.09-3.85-1.67-4.4-3.08C255.15,115,255.75,114.21,256.55,114.32z"/>
		<path d="M243.63,106.75c0,0-0.34,8.98-10.81,9.25c0,0-4.05-1.55-0.61-6.55C235.66,104.45,243.56,103.84,243.63,106.75z"/>
		<path d="M265.78,109.31c0,0-7.09,0.41-8.78-4.26c-1.69-4.66,3.85-3.71,3.85-3.71l3.44,0.27
			C264.3,101.61,265.98,108.03,265.78,109.31z"/>
		<line class="st3" x1="285.05" y1="173.18" x2="287.76" y2="171.56"/>
		<path class="st3" d="M294.24,186.33c0,0-0.45,4.5,0.27,5.31"/>
		<g>
			<path d="M204.51,352.58h144.38c0,0,1.19-8.35-3.58-9.55H209.28C209.28,343.04,204.51,344.23,204.51,352.58z"/>
			<line class="st3" x1="341.83" y1="344.02" x2="341.83" y2="320.38"/>
			<line class="st3" x1="211.61" y1="344.56" x2="211.61" y2="319.97"/>
			<line class="st7" x1="235.73" y1="287.54" x2="235.61" y2="278.03"/>
			<line class="st3" x1="317.47" y1="279.54" x2="317.45" y2="287.54"/>
			<path class="st4" d="M308.56,264.5h-65.38c0,0-8.38,0.27-8.74,12.43c0,0,1.17,6.12,5.49-0.63c4.32-6.75,4.68,0.72,4.68,0.72
				s1.08,8.01,4.41,4.77c3.33-3.24,2.34-6.21,6.66-6.21c4.32,0,1.35,5.31,5.76,4.41c4.41-0.9,4.05-8.65,6.84-8.83
				c2.79-0.18,4.05,14.5,8.65,14.14c4.59-0.36,3.15-10.72,6.3-10.9c3.15-0.18,4.32,4.86,7.38,4.59c3.06-0.27,2.97-8.74,7.92-9.19
				c4.95-0.45,3.6,13.33,8.38,13.06c4.77-0.27,2.61-9.1,4.86-9.46s2.52,7.92,6.21,6.75C321.71,279,319.36,264.32,308.56,264.5z
				 M288.87,270.69l-0.6-1.03l2.79-1.62l0.6,1.03L288.87,270.69z"/>
			<g>
				<path class="st4" d="M342.24,304.71c-3.38-5.67-5.2-8.36-14.99-8.24H224.18c0,0-9.86-0.68-13.91,9.46
					c-4.05,10.13-0.68,14.86,2.03,14.45c2.7-0.41,3.11-5.13,5.81-8.24s5,0.95,5.4,4.86c0.41,3.92,1.76,8.65,4.86,8.65
					c3.11,0,4.73-6.75,6.08-10.81c1.35-4.05,2.97-9.73,7.97-9.73c5,0,6.21,11.35,8.24,12.83c2.03,1.49,5.13,3.65,8.1-0.81
					c2.97-4.46,5.54-5.27,8.24-4.32c2.08,0.73,3.44,8.45,3.96,11.95c0.25,1.72,0.95,3.38,2.14,4.65c1.47,1.57,3.67,2.55,6.19-0.79
					c4.59-6.08,3.65-11.75,5.81-16.21c2.16-4.46,5.54-6.89,8.51-0.41c2.97,6.48,4.86,10.54,8.92,9.32
					c4.05-1.22,4.73-9.73,10.67-6.89c5.94,2.84,4.19,10.4,8.38,10.94c4.19,0.54,5.27-14.05,9.32-14.18
					c4.05-0.14,5.54,10.27,10.13,9.59C345.62,320.11,345.62,310.38,342.24,304.71z M226.79,302.11c-3.32,0-5.03,2.27-5.1,2.37
					l-0.96-0.7c0.08-0.12,2.11-2.86,6.07-2.86V302.11z M312.71,301.56c-4-0.54-4.45,1.83-4.46,1.93l-1.18-0.18
					c0.01-0.04,0.59-3.65,5.8-2.94L312.71,301.56z M322.53,313.34c-1.8-1.3-2.21-3.89-2.22-4l1.18-0.18c0,0.02,0.35,2.2,1.74,3.21
					L322.53,313.34z"/>
				<line class="st3" x1="240.66" y1="302.05" x2="243.9" y2="300.07"/>
				<path class="st3" d="M272.09,305.65c0,0,3.15,0.27,4.14,3.87"/>
				<path class="st3" d="M327.47,299.62c0,0-0.09,1.89,3.78,2.16"/>
			</g>
			<circle class="st6" cx="235.73" cy="292.06" r="4.53"/>
			<circle class="st3" cx="262.88" cy="292.06" r="4.53"/>
			<circle class="st3" cx="290.16" cy="292.06" r="4.53"/>
			<circle class="st3" cx="317.45" cy="292.06" r="4.53"/>
		</g>
	</g>
</g>
<g id="CHICAMOBIL">
</g>
<g id="CHICOREVIEW">
</g>
<g id="CHICAESTADISTICAS">
</g>
<g id="HAMBURGUESA">
</g>
<g id="PIZZA">
</g>
<g id="TACO">
</g>
<g id="POKE">
</g>
<g id="INDIO">
</g>
</svg>
