<?xml version="1.0" encoding="utf-8"?>
<!-- Generator: Adobe Illustrator 25.0.1, SVG Export Plug-In . SVG Version: 6.00 Build 0)  -->
<svg version="1.1" xmlns="http://www.w3.org/2000/svg" xmlns:xlink="http://www.w3.org/1999/xlink" x="0px" y="0px"
	 viewBox="0 0 450 420" style="enable-background:new 0 0 450 420;" xml:space="preserve">
<style type="text/css">
	.st0{display:none;}
	.st1{fill:#FAFAFA;}
	.st2{fill:#FE7139;}
	.st3{fill:none;stroke:#000000;stroke-miterlimit:10;}
	.st4{fill:#FED339;}
	.st5{fill:#FAFAFA;stroke:#000000;stroke-miterlimit:10;}
	.st6{fill:#FFFFFF;stroke:#000000;stroke-miterlimit:10;}
	.st7{fill:#754C24;stroke:#000000;stroke-miterlimit:10;}
	.st8{fill:#FFFFFF;}
	.st9{fill:none;stroke:#FFFFFF;stroke-width:2;stroke-miterlimit:10;}
	.st10{fill:none;}
	.st11{fill:#3964FE;}
	.st12{fill:none;stroke:#3964FE;stroke-miterlimit:10;}
	.st13{fill:none;stroke:#FE7139;stroke-miterlimit:10;}
</style>
<g id="Capa_2" class="st0">
</g>
<g id="CHICOPAN">
</g>
<g id="CHICAPASTEL">
</g>
<g id="CHICAMOBIL">
	<path class="st1" d="M446.01,230.08c-8.25,62.29-72.88,111.9-126.59,140.92c-53.12,29.37-95.68,38.74-137.09,34.38
		c-41.18-3.42-81.94-19.4-119.17-55.67c-36.64-35.91-71.05-91.3-56.85-129.13s75.49-58.23,141.65-89.29
		c66.75-30.7,129.85-95.18,190.21-78.49C397.59,69.71,453.67,167.44,446.01,230.08z"/>
	<g>
		<g>
			<path class="st4" d="M11.19,235.78c0,0,97.29,0,106.48,0c9.19,0,10.3,6.12,10.3,6.12l45.5,99.72h51.17
				c1.69,0,3.07,1.38,3.07,3.07v1.67c0,1.69-1.38,3.07-3.07,3.07h-74.45h-1.14h-17.11c-0.45,0-0.88-0.1-1.26-0.28
				c-1.07-0.48-1.81-1.55-1.81-2.8v-1.67c0-1.69,1.38-3.07,3.07-3.07h16.85h1.12h0.86h16.24c-3.97-8.91-41.45-93.03-44.61-97.91
				c-3.34-5.15-4.31-3.06-4.31-3.06s-93.12,0-100.22,0c-7.1,0-3.62,5.15-3.62,5.15l43.63,95.54h71.39
				c-0.99,0.79-1.64,1.99-1.64,3.35v1.67c0,1.07,0.41,2.04,1.06,2.8H54.82c-1.69,0-3.07-1.38-3.07-3.07v-1.67
				c0-0.2,0.02-0.39,0.06-0.58c-6.46-14.13-42.39-92.71-44.8-99.29C4.37,237.31,11.19,235.78,11.19,235.78z"/>
			<path class="st2" d="M115.25,254.01H34.51c-2.26,0-3.77,2.33-2.85,4.39l26.72,59.74c0.5,1.12,1.62,1.85,2.85,1.85h81.5
				c2.27,0,3.78-2.36,2.83-4.42l-27.47-59.74C117.58,254.72,116.47,254.01,115.25,254.01z"/>
			<circle class="st8" cx="67.91" cy="345.95" r="1.18"/>
			<line class="st9" x1="83.43" y1="345.88" x2="73.68" y2="345.88"/>
		</g>
		<path class="st3" d="M288.43,152.41c0,0-9.46,8.63-19.9,4.59c-10.44-4.04-11.41-19.63-10.86-30.07s4.31-21.92,7.1-26.93"/>
		<path class="st3" d="M308.06,126.1c0,0,14.01-9.24,18.37,0.84c4.04,9.33-11.97,19.9-20.88,17.68"/>
		<path class="st3" d="M321,129.86c0,0-5.71-1.81-12.39,5.85"/>
		<path class="st3" d="M276.88,134.87c0,0-3.2,6.82-8.35,3.2"/>
		<path class="st3" d="M269.36,121.78c0,0-2.51,2.51-4.87,3.62c-2.37,1.11,1.25,3.76,3.06,4.18"/>
		<path d="M309.31,145.17c0,0,1.39,20.18,7.1,29.79c0,0,9.46-6.26,22.55,0.7c0,0,27.28-14.48,8.91-29.93
			c-18.37-15.45-17.54-24.78-17.54-30.62s1.53-30.9-23.94-37.02s-36.4,4.73-43.43,21.02c0,0,12.94,10.51,25.96,15.8
			c0,0,5.78-4.94,6.82-8.63c0.05-0.17-3.2,8.84-4.18,10.37c0,0,7.31,6.47,16.7,10.09c0,0,8.98-7.31,15.52-3.13
			C323.79,123.59,336.45,136.26,309.31,145.17z"/>
		<path d="M284.05,125.01c-2.08-1.04-5.28-2.84-6.77-4.58c-0.58-0.68-1.67-0.64-2.1,0.16c-0.42,0.79-0.51,2.01,0.58,3.84
			c1.57,2.64,5.58,2.41,8.09,1.97C284.55,126.27,284.68,125.33,284.05,125.01z"/>
		<path d="M268.16,115.93c-1.47,0.02-4.07-0.12-6.54-1.15c-0.48-0.2-1.01,0.16-1,0.68c0.06,1.57,0.62,4.22,3.8,4.37
			c3.26,0.15,4.32-1.37,4.7-2.67C269.31,116.54,268.81,115.92,268.16,115.93z"/>
		<path d="M290.93,121.94c0,0,0.9-2.47-2.4-5.22c-2.67-2.23-8.74-4.79-9.77-3.41c-1.35,1.81,1.58,4.79,3.23,5.95
			C283.64,120.41,287.25,123.6,290.93,121.94z"/>
		<path d="M263.31,103.06c0,0,7.93,4.66,6.82,6.75s-5.08,1.04-9.05-0.63C261.08,109.19,262.26,104.45,263.31,103.06z"/>
		<path d="M280.22,166.12c0,0,6.48-2.35,9.81-6.93c0.42-0.58,0.74-1.24,1.01-1.9c1.07-2.65,3.24-9.01-1.93-6.11
			c-2.83,1.58-6.54,5.67-9.52,6.18C279.59,157.35,280.43,163.26,280.22,166.12z"/>
		<g>
			<path class="st3" d="M247.79,312.06c0,0-12.67,12.25-35.08,10.58s-43.01-21.99-53.17-39.67c-10.16-17.68-33.68-52.89-45.52-58.46
				"/>
			<g>
				<g>
					<g>
						<path class="st3" d="M279.66,157.69c0,0,1.35,16.1-1.44,25.94"/>
						<g>
							<path d="M204.36,249.42c0,0-1.95-7.33,0.28-10.67s16.15,0.51,21.44,6.36c0,0-10.16,12.53-11.55,15.17
								C214.52,260.28,207.01,251.23,204.36,249.42z"/>
							<g>
								<path class="st4" d="M311.48,188.76c4.08-5.82,4.93-12.1,4.93-13.81c0,0,12.81-11.41,40.09,11.55
									c27.28,22.97,43.51,36.59,59.94,45.14c16.66,8.68-2.6,23.2-2.6,23.2l-11.83-15.87c0,0-4.04-0.56-14.34,9.88
									c-10.07,10.21-18.03,23.19-34.25,29.61C350.95,276.12,317.59,243.38,311.48,188.76z"/>
								<path class="st4" d="M242.08,217.82c9.6-11.14,24.5-42.04,36.89-34.24c0,0-1.04,2.55,0.05,5.53
									c-2.07,7.24-19.81,69.47-25.42,90.56c-3.08-3.68-12.39-14.83-15.97-19.67c-4.31-5.85-12.53-23.11-32.43-21.99
									C205.2,238.01,232.48,228.96,242.08,217.82z"/>
								<path class="st4" d="M253.26,285.98c0.17-0.77,0.48-2.01,0.91-3.65c0.16-0.54,0.31-1.04,0.44-1.45c0,0-0.02-0.02-0.05-0.06
									c5.09-19.27,21.96-78.49,25.27-90.08c1.67,2.62,5.31,5.27,12.92,6.62c8.05,1.42,13.78-2.3,17.66-7.17
									c6.76,56.12,41.97,89,42.33,89.33l0.05-0.05c2.85,3.31,17.9,20.76,19.16,22.15c0,0-2.92-1.53-27.14,3.06
									c-24.22,4.59-79.9,23.66-84.21,25.47c0,0-13.5-2.09-16.84-2.92c0,0,5.96-27.9,9.43-41.27L253.26,285.98z"/>
							</g>
						</g>
					</g>
					<path d="M400.48,239.16c0,0,13.14-9.04,19.58-3.61c6.87,5.8-3.86,16.2-7.02,18.43L400.48,239.16z"/>
				</g>
				<path class="st3" d="M387.4,305.79c0,0-9.46-7.79-35.63-2.23c-26.17,5.57-84.35,17.26-127.08,47.19c0,0-8.21,6.4,1.39,5.01
					c9.6-1.39,17.4-6.26,17.4-6.26"/>
				<path class="st3" d="M246.26,347.13c0,0-22.27,18.79-20.46,22.55c0,0,1.53,3.71,9.05,0.23c7.52-3.48,19.12-16.19,19.12-16.19"/>
				<path class="st6" d="M254.19,353.68c0,0-23.22,13.96-21.57,20.6c1.39,5.61,18.37-6.96,18.37-6.96"/>
				<path class="st3" d="M401.06,238.89c0,0,34.64,41.43,37.42,68.71s-13.64,41.48-37.02,49c-23.38,7.52-69.46,3.76-74.61,3.62
					c-5.15-0.14-28.12-4.18-52.89,6.26s-27,10.58-28.26,9.33c-1.25-1.25,6.12-10.86,12.94-15.03"/>
				<path class="st3" d="M260.8,330.57c0,0-17.82-5.43-21.23-2.64s7.45,8.91,7.45,8.91"/>
				<path class="st3" d="M371.95,301.62c0,0-14.96-17.5-19.14-22.62"/>
			</g>
		</g>
		<g>
			<path class="st2" d="M96.43,180.61l24.31-3l1.24,10.08c-1.53-0.51-3.51-0.88-4.43,0.2c-1.03,1.21-0.25,3.66,2.42,7.63
				l-21.38,2.64L96.43,180.61z"/>
			<path class="st10" d="M121.34,195.34l1.56-0.19l-0.75-6.09c0.43,0.16,0.84,0.33,1.21,0.51c0.23,0.1,0.46,0.21,0.69,0.31
				l1.33,11.08c-1.16-1.57-2.41-3.29-3.75-5.2C121.53,195.61,121.44,195.48,121.34,195.34z"/>
			<path d="M122.15,189.05l-0.17-1.38c0.88,0.29,1.61,0.63,1.9,0.77l0.17,1.43c-0.23-0.1-0.46-0.21-0.69-0.31
				C122.99,189.39,122.58,189.21,122.15,189.05z"/>
			<path d="M121.63,195.76c1.35,1.92,2.59,3.63,3.75,5.2l0.29,2.45c-1.52-2.02-3.19-4.3-5.05-6.95c-0.24-0.34-0.43-0.64-0.65-0.96
				l1.37-0.17C121.44,195.48,121.53,195.61,121.63,195.76z"/>
			<path d="M117.56,187.87c0.91-1.07,2.9-0.7,4.43-0.2l0.17,1.38c-1.52-0.56-3.21-0.91-3.66-0.38c-0.23,0.27-0.68,1.55,2.85,6.67
				l-1.37,0.17C117.31,191.54,116.53,189.08,117.56,187.87z"/>
		</g>
		<path d="M222.55,270.94l-1.03,0.67c-0.35-0.53-34.84-52.53-94.85-80.53l-0.17-1.44C187.24,217.7,222.2,270.4,222.55,270.94z"/>
		<path d="M131.16,208.53c3.15,4.04,5.05,6.48,5.86,8.67l-1.15,0.43c-0.74-2.01-2.6-4.39-5.67-8.34c-0.5-0.64-1.02-1.32-1.57-2.02
			l-0.29-2.39C129.35,206.21,130.29,207.42,131.16,208.53z"/>
		<path d="M125.38,200.96c1.05,1.42,2.03,2.72,2.95,3.91l0.29,2.39c-0.91-1.17-1.88-2.44-2.94-3.85L125.38,200.96z"/>
		<path d="M123.88,188.45C123.88,188.45,123.88,188.45,123.88,188.45c0.88,0.39,1.75,0.79,2.62,1.19l0.17,1.44
			c-0.87-0.4-1.74-0.8-2.62-1.2L123.88,188.45z"/>
		<path class="st3" d="M94.86,193.33c0,0-5.18-1.59-5.01,0.74c0.28,3.8,5.94,7.15,5.94,7.15"/>
		<path class="st3" d="M96.53,209.38c0,0-6.31-3.8-5.94-6.68c0.37-2.88,5.2-1.48,5.2-1.48"/>
		<path d="M92.53,165.29c1.01-1.29,2.47-2.11,4.1-2.31l20.18-2.42c3.36-0.41,6.43,2.01,6.84,5.37l2.85,23.71
			c-0.87-0.4-1.74-0.8-2.62-1.19c0,0,0,0,0,0l-2.67-22.22c-0.12-0.98-0.61-1.85-1.38-2.46c-0.66-0.52-1.45-0.79-2.27-0.79
			c-0.15,0-0.3,0.01-0.45,0.03l-2.89,0.35l0.09,0.8c0.08,0.67-0.41,1.28-1.08,1.36l-12.31,1.42c-0.67,0.08-1.28-0.41-1.36-1.08
			l-0.08-0.73l-2.55,0.31c-0.98,0.12-1.85,0.61-2.46,1.38c-0.61,0.77-0.88,1.74-0.76,2.72l6.09,50.74c0.12,0.98,0.61,1.85,1.38,2.46
			c0.77,0.61,1.74,0.88,2.72,0.76l20.18-2.42c0.98-0.12,1.85-0.61,2.46-1.38c0.61-0.77,0.88-1.74,0.76-2.72l-1.63-13.55
			c1.06,1.4,2.03,2.68,2.94,3.85l1.13,9.41c0.2,1.63-0.25,3.24-1.27,4.53c-1.01,1.29-2.47,2.11-4.1,2.31l-20.18,2.42
			c-0.25,0.03-0.5,0.05-0.75,0.05c-1.37,0-2.69-0.46-3.79-1.31c-1.29-1.01-2.11-2.47-2.31-4.1l-6.09-50.74
			C91.06,168.19,91.52,166.58,92.53,165.29z"/>
		
			<ellipse transform="matrix(0.8396 -0.5432 0.5432 0.8396 -9.2748 188.2184)" class="st2" cx="314.04" cy="109.81" rx="5.2" ry="2.93"/>
	</g>
</g>
<g id="CHICOREVIEW">
</g>
<g id="CHICAESTADISTICAS">
</g>
<g id="HAMBURGUESA">
</g>
<g id="PIZZA">
</g>
<g id="TACO">
</g>
<g id="POKE">
</g>
<g id="INDIO">
</g>
</svg>
