<?xml version="1.0" encoding="utf-8"?>
<!-- Generator: Adobe Illustrator 25.0.1, SVG Export Plug-In . SVG Version: 6.00 Build 0)  -->
<svg version="1.1" xmlns="http://www.w3.org/2000/svg" xmlns:xlink="http://www.w3.org/1999/xlink" x="0px" y="0px"
	 viewBox="0 0 450 420" style="enable-background:new 0 0 450 420;" xml:space="preserve">
<style type="text/css">
	.st0{display:none;}
	.st1{fill:#FAFAFA;}
	.st2{fill:#FE7139;}
	.st3{fill:none;stroke:#000000;stroke-miterlimit:10;}
	.st4{fill:#FED339;}
	.st5{fill:#FAFAFA;stroke:#000000;stroke-miterlimit:10;}
	.st6{fill:#FFFFFF;stroke:#000000;stroke-miterlimit:10;}
	.st7{fill:#754C24;stroke:#000000;stroke-miterlimit:10;}
	.st8{fill:#FFFFFF;}
	.st9{fill:none;stroke:#FFFFFF;stroke-width:2;stroke-miterlimit:10;}
	.st10{fill:none;}
	.st11{fill:#3964FE;}
	.st12{fill:none;stroke:#3964FE;stroke-miterlimit:10;}
	.st13{fill:none;stroke:#FE7139;stroke-miterlimit:10;}
</style>
<g id="Capa_2" class="st0">
</g>
<g id="CHICOPAN">
</g>
<g id="CHICAPASTEL">
</g>
<g id="CHICAMOBIL">
</g>
<g id="CHICOREVIEW">
</g>
<g id="CHICAESTADISTICAS">
	<path class="st1" d="M170.43,374.18c-39.97-8.92-90.17-15.83-120.62-43.2c-30.46-26.8-41.75-73.49-39.49-118.72
		c2.84-45.78,19.23-90.09,45.06-127.37c25.27-37.29,59.99-67.56,98.31-60.94c38.31,7.18,81.38,50.71,113.72,70.19
		s55.11,14.39,82.82,15.65c27.14,1.24,59.78,8.85,74.01,28.45c14.21,20.17,9.46,51.74,12.03,85.2
		c2.55,34.03,12.41,69.93,6.43,105.44c-5.99,36.08-27.81,71.19-58.68,83.44c-31.45,12.8-72.51,2.15-107.9-8.35
		C240.69,394.04,210.4,383.1,170.43,374.18z"/>
	<g>
		<path d="M87.39,146.26c-0.01,0.02-0.06,0.11-0.12,0.24c0.34,0.08,0.67,0.15,1.02,0.24L87.39,146.26z"/>
		<g>
			<g>
				<path class="st3" d="M139.98,181.76c0,0,19.34,14.53,30.26,8.98c10.92-5.55,8.42-28.87,8.42-28.87s3.7-1.2,3.89-4.26
					s-5.18-3.15-5.74-5.55c-0.56-2.41-1.67-13.6-7.03-21.28"/>
				<path class="st3" d="M133.46,160.36c0,0-12.33-11.07-18.39-2.22c-5.14,7.5,6.73,19.64,18.88,18.81"/>
				<path class="st3" d="M120.97,162.86c0,0,7.01-1.6,12.08,6.32"/>
				<path class="st3" d="M166.01,167.79c0,0-1.46,6.87,6.8,6.87"/>
				<g>
					<path d="M121.32,115.59c-1.28-6.86-7.46-12.07-14.9-12.07c-8.37,0-15.15,6.59-15.15,14.71c0,7.4,5.63,13.5,12.95,14.53
						C112.17,120.66,119.57,116.46,121.32,115.59z"/>
					<path d="M169.34,128.71c-1.87-2.78-6.39-10.2-22.07-15.13c-8.93-2.81-17.52-1.39-25.1,2.88l0.03,0.07
						c-0.08,0.04-8.58,3.79-17.44,17.65c-6.51,12.98-0.67,27.72,3.51,32.08c4.58,4.79,11.31,10.48,11.31,15.82
						c0,0,1.87-2.08,3.19-7.57c0,0-10.62-6.59-8.33-15.48c0,0,2.85-5.83,9.16-4.3c6.32,1.53,10.06,4.86,10.06,4.86
						s9.44-2.57,14.64-5.9c5.21-3.33,13.88-8.33,22.07-21.93C170.38,131.77,171.21,131.49,169.34,128.71z"/>
				</g>
				<path class="st6" d="M132.9,159.88c0,0,9.65-10.48,15.55-24.01c5.9-13.53,5.83-19.99,5-21.24c-0.83-1.25-3.89-4.51-8.26-4.51
					s-5.41,1.6-5.97,2.78c0,0,1.18,7.43-0.14,15.75s-10.69,27.83-10.69,27.83S131.86,158.63,132.9,159.88z"/>
				<path d="M163.79,156.5c1.95-1.16,5.83-3.7,6.91-6.26c0.19-0.44,0.79-0.51,1.1-0.15c0.85,0.97,1.88,2.73,0.66,4.71
					c-1.64,2.66-5.06,3.09-8.5,2.59C163.53,157.32,163.4,156.73,163.79,156.5z"/>
				<path d="M159.09,152.33c0,0,2.41,0.79,5.46-3.38s3.42-5.41,2.96-6.57c-0.35-0.87-2.54-2.22-4.63-0.32
					C160.8,143.96,155.39,149.65,159.09,152.33z"/>
				<path class="st3" d="M153.2,189.27c0,0-5.52,2.12-8.16,17.8s-4.3,24.92-4.51,31.72"/>
				<path class="st3" d="M120.51,179.03c0,0-3.64,15.06-16.76,26.86"/>
				<path d="M147.03,198.95c0,0-7.08-5.66-8.33-9.72s-1.53-10.2,1.67-7.88c3.19,2.33,9.51,6.77,12.42,7.98
					C152.79,189.34,149.21,191.94,147.03,198.95z"/>
			</g>
			<g>
				<path class="st3" d="M178.5,318.05c0,0,15.27-21.31,21.58-39.28c6.32-17.98,5.14-20.34,2.78-21.93
					c-2.36-1.6-7.63-4.93-15.06,2.29c-7.43,7.22-2.91,14.51-0.83,14.57c2.08,0.07,6.52-4.79,8.61-8.54"/>
				<path class="st3" d="M139.43,291.95c0,0,15.89-10.69,22.56-22.35c0,0-0.9-18.81,0.21-21.52s2.15-6.11,8.4-6.59
					c6.25-0.49,9.02,3.47,8.88,5.9s-1.6,4.44-5.21,4.37c-3.61-0.07-5.21-1.04-6.66-1.74"/>
				<path class="st3" d="M165.94,273.7c0,0-3.12-1.74-3.96-4.09"/>
				<path class="st3" d="M202.24,256.56c0,0,1.46-3.33-2.43-6.52s-11.87-2.78-16.38,3.75s-5.07,13.05,0.42,14.57"/>
				<path class="st3" d="M198.28,248.99c0,0,0.07-3.68-3.75-4.37c-3.85-0.7-9.72-1.6-14.78,3.61c-5.07,5.21-5.14,17.91,0,14.92"/>
				<path class="st3" d="M192.59,244.41c0,0-0.97-4.37-6.59-4.37s-7.98,1.39-9.02,2.78"/>
				<path class="st3" d="M182.87,268.29c0,0-4.79,1.18-6.45,2.98"/>
			</g>
			<g>
				<g>
					<g>
						<path class="st11" d="M141.19,238.67c0,0-9.21-2.9-15.73-18.29c0.53,7.61,0.43,18.9-2.08,33.57
							c-4.83,28.16-16.7,53.31-25.72,70.41c5.4-0.8,19.94-2.69,42.33-3.7C139.98,320.66,138.78,263.01,141.19,238.67z"/>
						<path class="st11" d="M122.17,253.75c3.04-17.72,2.52-30.45,1.67-37.62c-0.44-1.29-0.86-2.66-1.25-4.1
							c0,0-7.13-17.21-28.22-2.22c-21.1,14.99-32.02,28.22-46.18,36.92c-13.43,8.25-20.94,14.42-38.1,22.92
							c-2.26,1.12-3.8,3.33-4.03,5.85c-0.18,1.89,0.49,4.92,1.13,6.4c2.37,5.42,10.83,16.93,20.45,21.56c0,0,3.79-13.23,6.66-18.79
							c0,0,5.55,4.63,10.64,12.03c5.09,7.4,18.97,25.73,50.34,28.04c0,0,0.3-0.05,0.86-0.14
							C105.18,307.56,117.29,282.18,122.17,253.75z"/>
					</g>
					<path d="M28.21,301.79c0,0-12.13-6.95-17.41-17.59c-2.81-5.68-3.7-9.81-1.39-12.03c2.31-2.22,6.48-1.3,9.99,0.56
						c3.52,1.85,12.82,8.17,15.41,12.24C34.81,284.97,28.67,299.29,28.21,301.79z"/>
				</g>
				<g>
					<path class="st3" d="M78.77,332.42c0,0,9.3-8.74,34.7-9.72c25.4-0.97,66.07-7.63,93.42-3.19
						c27.35,4.44,29.71,28.04,30.26,33.04c0.56,5-0.31,12.41-2.91,12.22c-1.87-0.14-7.5-2.91-7.22-13.88"/>
					<path class="st3" d="M223.96,329.01c0,0,4.86,5.21,3.4,19.29c-1.46,14.09-5.48,12.84-6.8,12.35c-1.32-0.49-3.82-2.78-3.82-5.69
						"/>
					<path class="st3" d="M202.17,331.72c0,0,12.63-2.57,14.78,11.94c2.15,14.51-4.09,14.85-4.86,14.78
						c-0.76-0.07-5.55-0.42-4.93-11.1"/>
					<g>
						<path class="st11" d="M25.51,348.15c0,0-3.89,13.88-10.27,19.53c0,0,8.88,11.01,52.01,13.42
							C67.25,381.09,34.86,375.45,25.51,348.15z"/>
						<path class="st3" d="M207.17,352.4c0,0-61.77,33.04-111.46,31.79c-49.69-1.25-68.02-19.99-71.63-43.86
							c-3.61-23.88,10.22-55.59,10.22-55.59"/>
					</g>
				</g>
			</g>
		</g>
		<g>
			<g>
				<g>
					<path class="st3" d="M437.97,270.78H219.55c-3.31,0-6-2.69-6-6V90.23c0-3.31,2.69-6,6-6h218.42c3.31,0,6,2.69,6,6v174.56
						C443.97,268.1,441.29,270.78,437.97,270.78z"/>
					<line class="st3" x1="213.55" y1="103.66" x2="443.97" y2="103.66"/>
					<circle cx="414.55" cy="94.34" r="2.5"/>
					<circle cx="423.92" cy="94.34" r="2.5"/>
					<circle cx="433.7" cy="94.34" r="2.5"/>
				</g>
				<line class="st3" x1="339.03" y1="135.4" x2="352.73" y2="135.4"/>
				<line class="st3" x1="364.39" y1="135.4" x2="416.58" y2="135.4"/>
				<line class="st3" x1="339.03" y1="143.27" x2="399.55" y2="143.27"/>
			</g>
			<line class="st3" x1="345.14" y1="163.44" x2="345.14" y2="240.06"/>
			<line class="st3" x1="362.08" y1="163.44" x2="362.08" y2="240.06"/>
			<line class="st3" x1="380.31" y1="163.44" x2="380.31" y2="240.06"/>
			<line class="st3" x1="397.43" y1="163.44" x2="397.43" y2="240.06"/>
			<line class="st3" x1="415.84" y1="163.44" x2="415.84" y2="240.06"/>
			<path class="st4" d="M347.77,205.27h-5.25c-1.1,0-2-0.9-2-2v-23.21c0-1.1,0.9-2,2-2h5.25c1.1,0,2,0.9,2,2v23.21
				C349.77,204.37,348.87,205.27,347.77,205.27z"/>
			<path class="st4" d="M364.7,217.48h-5.25c-1.1,0-2-0.9-2-2v-23.21c0-1.1,0.9-2,2-2h5.25c1.1,0,2,0.9,2,2v23.21
				C366.7,216.58,365.8,217.48,364.7,217.48z"/>
			<path class="st4" d="M382.93,211.19h-5.25c-1.1,0-2-0.9-2-2v-23.21c0-1.1,0.9-2,2-2h5.25c1.1,0,2,0.9,2,2v23.21
				C384.93,210.29,384.03,211.19,382.93,211.19z"/>
			<path class="st4" d="M400.05,195.64h-5.25c-1.1,0-2-0.9-2-2v-23.21c0-1.1,0.9-2,2-2h5.25c1.1,0,2,0.9,2,2v23.21
				C402.05,194.74,401.15,195.64,400.05,195.64z"/>
			<path class="st4" d="M418.47,220.81h-5.25c-1.1,0-2-0.9-2-2v-23.21c0-1.1,0.9-2,2-2h5.25c1.1,0,2,0.9,2,2v23.21
				C420.47,219.91,419.57,220.81,418.47,220.81z"/>
		</g>
		<line class="st3" x1="245.01" y1="230.62" x2="304.05" y2="230.62"/>
		<path class="st3" d="M277.77,132.35v83.84c0,0,39.42-3.52,39.42-40.9S277.77,132.35,277.77,132.35z"/>
		<path class="st4" d="M271.85,132.35v37.76l-35.35-12.96c0,0,0.93-6.66,14.81-17.58C251.31,139.56,261.23,132.53,271.85,132.35z"/>
		<path class="st11" d="M272.13,175.49v39.77c0,0-15.13,2.01-30.26-15.75S235,160.64,235,160.64L272.13,175.49z"/>
		<polygon class="st8" points="328.11,268.66 415.29,268.66 413.16,273.65 326.17,273.65 		"/>
		<g>
			<g>
				<path class="st3" d="M189.68,374.89h178.51c0,0,1.94-0.56,1.94-4.3s-5-4.58-5-4.58H190.65c0,0-3.33,0.28-3.33,4.58
					C187.32,374.89,189.68,374.89,189.68,374.89z"/>
				<g>
					<rect x="214.59" y="363.58" width="7.5" height="2.36"/>
					<rect x="248.46" y="363.58" width="7.5" height="2.36"/>
					<rect x="265.54" y="363.58" width="7.5" height="2.36"/>
					<rect x="231.39" y="364.13" width="7.5" height="1.8"/>
				</g>
			</g>
			<path class="st3" d="M283.65,365.87l46.22-101.05c0,0,0.69-3.05,4.16-3.05s80.09,0,80.09,0s4.03-0.14,1.94,5.41
				c-2.08,5.55-46.64,102.02-46.64,102.02"/>
			<path class="st3" d="M290.31,365.87l43.59-96.06c0,0,0.97-2.08,4.3-1.94c5.41,0.23,69.54,0,69.54,0s1.43,0.19-0.42,4.3
				c-2.72,6.06-42.85,93.74-42.85,93.74"/>
			<path d="M371.72,365.38c0,0,17.46-2.18,26.44,0.49c8.88,2.64,11.52,5.83,9.92,8.33c-1.51,2.37-6.66,5.62-28.25,5.62
				s-25.96-3.33-26.65-4.65l14.23-0.21c0,0,2.43,0.21,2.85-3.33c0.42-3.54-0.42-3.33-0.42-3.33L371.72,365.38z"/>
			<polygon class="st4" points="328.35,312.15 340.56,312.29 345.7,321.03 363.05,302.99 377.21,303.96 342.23,339.91 			"/>
			<line class="st12" x1="340.98" y1="370.83" x2="353.33" y2="370.83"/>
			<circle class="st11" cx="359.93" cy="370.83" r="1.64"/>
		</g>
	</g>
</g>
<g id="HAMBURGUESA">
</g>
<g id="PIZZA">
</g>
<g id="TACO">
</g>
<g id="POKE">
</g>
<g id="INDIO">
</g>
</svg>
