<?xml version="1.0" encoding="utf-8"?>
<!-- Generator: Adobe Illustrator 25.2.0, SVG Export Plug-In . SVG Version: 6.00 Build 0)  -->
<svg version="1.1" id="Capa_1" xmlns="http://www.w3.org/2000/svg"
	xmlns:xlink="http://www.w3.org/1999/xlink" x="0px" y="0px"
	viewBox="0 0 100 100" style="enable-background:new 0 0 100 100;" xml:space="preserve">
<style type="text/css">
	.st0{fill:none;stroke:#f14900;stroke-width:7;stroke-miterlimit:10;}
	.st1{fill:none;stroke:#f14900;stroke-width:7;stroke-linecap:round;stroke-miterlimit:10;}
	.st2{fill:none;stroke:#f14900;stroke-width:5;stroke-linecap:round;stroke-miterlimit:10;}
	.st3{fill:#f14900;}
</style>
<path class="st0" d="M14.76,93.51V5.19l70.37,0.27v88.02c0,0.65-0.83,0.92-1.22,0.4l-9.66-12.99c-0.35-0.47-1.05-0.47-1.41,0
	L62.37,94.81c-0.27,0.36-0.8,0.36-1.07,0.01L50.44,80.85c-0.35-0.46-1.04-0.45-1.39,0.01L38.44,94.8c-0.27,0.36-0.81,0.35-1.08-0.01
	l-10.2-13.77c-0.35-0.47-1.05-0.47-1.41-0.01l-9.79,12.9C15.58,94.43,14.76,94.15,14.76,93.51z"/>
<line class="st2" x1="27.59" y1="26.34" x2="72.29" y2="26.34"/>
<line class="st2" x1="27.59" y1="38.98" x2="72.29" y2="38.98"/>
<line class="st2" x1="27.59" y1="51.68" x2="55.49" y2="51.68"/>
</svg>