<svg version="1.1" id="Capa_1" xmlns="http://www.w3.org/2000/svg"
	xmlns:xlink="http://www.w3.org/1999/xlink" x="0px" y="0px"
	viewBox="0 0 100 100" style="enable-background:new 0 0 100 100;" xml:space="preserve">
<style type="text/css">
	.st0{fill:#F14900;stroke:#F14900;stroke-width:10;stroke-miterlimit:10;}
</style>
<path class="st0" d="M71.7,8.5c-10.2,0-17.8,7.9-20,15.1c-0.6,1.7-2.9,1.7-3.5,0c-2.3-7.1-10-15-19.7-15c-1.8,0-22.2,0.2-22.2,27.9
	C6.3,62.3,39,85.3,48,89.7c1.4,0.8,3.1,0.7,4.6,0C61.5,85.2,94,62.2,94,36.5C93.9,9.2,73.6,8.5,71.7,8.5z"/>
<path class="st0" d="M71.7,8.5c-10.2,0-17.8,7.9-20,15.1c-0.6,1.7-2.9,1.7-3.5,0c-2.3-7.1-10-15-19.7-15c-1.8,0-22.2,0.2-22.2,27.9
	C6.3,62.3,39,85.3,48,89.7c1.4,0.8,3.1,0.7,4.6,0C61.5,85.2,94,62.2,94,36.5C93.9,9.2,73.6,8.5,71.7,8.5z"/>
</svg>