<?xml version="1.0" encoding="utf-8"?>
<!-- Generator: Adobe Illustrator 25.0.1, SVG Export Plug-In . SVG Version: 6.00 Build 0)  -->
<svg version="1.1" id="Capa_1" xmlns="http://www.w3.org/2000/svg" xmlns:xlink="http://www.w3.org/1999/xlink" x="0px" y="0px"
	 viewBox="0 0 100 100" style="enable-background:new 0 0 100 100;" xml:space="preserve">
<style type="text/css">
	.st0{fill:none;stroke:#F14900;stroke-width:10;stroke-miterlimit:10;}
	.st1{fill:none;stroke:#F14900;stroke-width:10;stroke-linecap:round;stroke-miterlimit:10;}
</style>
<path class="st0" d="M14.8,92.4V6.2l70.4,0.3v85.9c0,0.6-0.8,0.9-1.2,0.4l-9.7-12.7c-0.3-0.5-1.1-0.5-1.4,0L62.4,93.7
	c-0.3,0.4-0.8,0.4-1.1,0L50.4,80.1c-0.3-0.4-1-0.4-1.4,0L38.4,93.7c-0.3,0.4-0.8,0.3-1.1,0L27.2,80.2c-0.4-0.5-1-0.5-1.4,0L16,92.8
	C15.6,93.3,14.8,93.1,14.8,92.4z"/>
<line class="st1" x1="27.6" y1="27.3" x2="72.3" y2="27.3"/>
<line class="st1" x1="27.6" y1="41" x2="72.3" y2="41"/>
<line class="st1" x1="27.6" y1="54.7" x2="55.5" y2="54.7"/>
</svg>
