<?xml version="1.0" encoding="utf-8"?>
<!-- Generator: Adobe Illustrator 25.2.0, SVG Export Plug-In . SVG Version: 6.00 Build 0)  -->
<svg version="1.1" id="Capa_1" xmlns="http://www.w3.org/2000/svg" xmlns:xlink="http://www.w3.org/1999/xlink" x="0px" y="0px"
	 viewBox="0 0 100 100" style="enable-background:new 0 0 100 100;" xml:space="preserve">
<style type="text/css">
	.st0{fill:none;stroke:#999999;stroke-width:7;stroke-miterlimit:10;}
	.st1{fill:#999999;}
</style>
<circle class="st0" cx="49.8" cy="50.3" r="45.8"/>
<path class="st1" d="M77.4,44.1c-0.9,0.8-1.4,1.9-1.2,3.1c0.1,1,0.2,2,0.2,3.1c0,15.7-13.6,28.2-29.6,26.4
	c-12.2-1.4-22-11.2-23.4-23.4c-1.8-16,10.8-29.6,26.4-29.6c4,0,7.8,0.9,11.2,2.5c1.2,0.6,2.7,0.4,3.7-0.5l0,0c2-1.6,1.6-4.8-0.7-5.9
	c-5.1-2.4-10.9-3.5-17-3.1C30.6,18.1,17.3,31.5,16.3,48c-1.4,20.7,16.2,37.8,37,35.7c15.5-1.6,28.1-14,29.9-29.5
	c0.3-2.7,0.3-5.3,0-7.8C82.8,43.6,79.6,42.3,77.4,44.1L77.4,44.1z"/>
<circle class="st1" cx="73.3" cy="33.6" r="3.8"/>
</svg>
