<svg version="1.1" id="Capa_1" xmlns="http://www.w3.org/2000/svg"
	xmlns:xlink="http://www.w3.org/1999/xlink" x="0px" y="0px"
	viewBox="0 0 100 100" style="enable-background:new 0 0 100 100;" xml:space="preserve">
<style type="text/css">
	.st0{fill:#F14900;stroke:#F14900;stroke-width:10;stroke-miterlimit:10;}
</style>
<path class="st0" d="M76.7,93.1l-25.4-24c-0.7-0.7-1.9-0.7-2.6,0l-25.4,24C22,94.3,20,93.3,20,91.6V8.9c0-1.1,0.9-2,2-2h56
	c1.1,0,2,0.9,2,2v82.6C80,93.3,78,94.3,76.7,93.1z"/>
<path class="st0" d="M76.7,93.1l-25.4-24c-0.7-0.7-1.9-0.7-2.6,0l-25.4,24C22,94.3,20,93.3,20,91.6V8.9c0-1.1,0.9-2,2-2h56
	c1.1,0,2,0.9,2,2v82.6C80,93.3,78,94.3,76.7,93.1z"/>
</svg>