<?xml version="1.0" encoding="utf-8"?>
<!-- Generator: Adobe Illustrator 25.2.0, SVG Export Plug-In . SVG Version: 6.00 Build 0)  -->
<svg version="1.1" id="Capa_1" xmlns="http://www.w3.org/2000/svg" xmlns:xlink="http://www.w3.org/1999/xlink" x="0px" y="0px"
	 viewBox="0 0 17 16" style="enable-background:new 0 0 17 16;" xml:space="preserve">
<style type="text/css">
	.st0{fill:#EE703F;}
</style>
<path class="st0" d="M8.9,7.4c0-0.5,0.4-0.8,0.8-0.8s0.8,0.4,0.8,0.8c0,0.5-0.4,0.8-0.8,0.8S8.9,7.9,8.9,7.4L8.9,7.4 M15.1,5.3
	c-0.2,2.9-2.6,5.2-5.6,5.2H7.3c-0.5,0-0.8,0.4-0.8,0.8s0.4,0.8,0.8,0.8h3.9c0.3,0,0.6,0.2,0.6,0.6s-0.2,0.6-0.6,0.6H7.8v1.1h2.2
	c0.3,0,0.6,0.2,0.6,0.6s-0.2,0.6-0.6,0.6H6.2c-3.1,0-5.6-2.5-5.6-5.6s2.5-5.6,5.6-5.6h8.1c0.5,0,0.8-0.4,0.8-0.8
	c0-0.5-0.4-0.8-0.8-0.8H8.4C7.5,2.7,6.7,1.9,6.7,1c0-0.3,0.2-0.6,0.6-0.6S7.8,0.7,7.8,1s0.2,0.6,0.6,0.6h5.9c1.1,0,2,0.9,2,2
	C16.2,4.3,15.8,4.9,15.1,5.3 M3,13.1l2.3-1.6v-0.1c0-0.2,0-0.4,0.1-0.5L1.8,9.1C1.5,10.6,2,12,3,13.1L3,13.1z M5.7,12.5l-1.8,1.3
	c0.7,0.4,1.4,0.6,2.2,0.6h0.6v-1.2C6.3,13.1,6,12.8,5.7,12.5L5.7,12.5z M6.7,9.4v-4H6.2c-1.8,0-3.3,1-4.1,2.6L6,9.8
	C6.2,9.6,6.4,9.5,6.7,9.4 M13.9,5.4H7.8v3.9h1.7C11.8,9.4,13.6,7.7,13.9,5.4"/>
</svg>
