<?xml version="1.0" encoding="utf-8"?>
<!-- Generator: Adobe Illustrator 25.2.0, SVG Export Plug-In . SVG Version: 6.00 Build 0)  -->
<svg version="1.1" id="Capa_1" xmlns="http://www.w3.org/2000/svg"
	xmlns:xlink="http://www.w3.org/1999/xlink" x="0px" y="0px"
	viewBox="0 0 70 20" style="enable-background:new 0 0 70 20;" xml:space="preserve">
<style type="text/css">
	.st0{fill:#020203;}
	.st1{fill:#EE703F;}
	.st2{fill:#FBFBFB;}
	.st3{fill:#3964FE;}
</style>
<path class="st3" d="M8.95,9.4c0-0.46,0.37-0.84,0.84-0.84s0.84,0.37,0.84,0.84c0,0.46-0.37,0.84-0.84,0.84S8.95,9.87,8.95,9.4
	L8.95,9.4 M15.07,7.27c-0.2,2.93-2.63,5.2-5.56,5.2H7.28c-0.46,0-0.84,0.37-0.84,0.84s0.37,0.84,0.84,0.84h3.9
	c0.31,0,0.56,0.25,0.56,0.56s-0.25,0.56-0.56,0.56H7.84v1.12h2.23c0.31,0,0.56,0.25,0.56,0.56s-0.25,0.56-0.56,0.56h-3.9
	c-3.08,0-5.58-2.5-5.58-5.58s2.5-5.58,5.58-5.58h8.09c0.46,0,0.84-0.37,0.84-0.84c0-0.46-0.37-0.84-0.84-0.84H8.39
	c-0.92,0-1.67-0.75-1.67-1.67c0-0.31,0.25-0.56,0.56-0.56c0.31,0,0.56,0.25,0.56,0.56s0.25,0.56,0.56,0.56h5.86
	c1.08,0,1.95,0.88,1.95,1.95C16.2,6.26,15.76,6.95,15.07,7.27 M3.01,15.07l2.32-1.65v-0.11c0-0.18,0.02-0.35,0.07-0.52l-3.63-1.65
	C1.51,12.57,1.98,14.04,3.01,15.07L3.01,15.07z M5.73,14.5l-1.79,1.28c0.68,0.39,1.44,0.6,2.22,0.6h0.56v-1.2
	C6.33,15.06,5.98,14.82,5.73,14.5L5.73,14.5z M6.72,11.44V7.45H6.16c-1.75,0-3.33,1.02-4.06,2.61L6,11.84
	C6.21,11.65,6.45,11.52,6.72,11.44 M13.93,7.45h-6.1v3.9h1.67C11.76,11.35,13.65,9.68,13.93,7.45"/>
<g>
	<path class="st3" d="M21.49,17.55c-0.87,0-1.62-0.15-2.26-0.45c-0.64-0.3-1.14-0.74-1.51-1.31c-0.37-0.57-0.64-1.22-0.82-1.95
		c-0.17-0.73-0.26-1.56-0.26-2.5c0-0.69,0.04-1.32,0.11-1.87c0.07-0.55,0.19-1.09,0.36-1.59c0.17-0.51,0.4-0.94,0.69-1.31
		c0.3-0.37,0.66-0.69,1.08-0.96c0.43-0.27,0.95-0.48,1.56-0.62c0.61-0.14,1.31-0.21,2.09-0.21c0.35,0,0.69,0.02,1.01,0.06
		c0.32,0.04,0.59,0.09,0.82,0.15C24.59,5.07,24.8,5.14,25,5.23c0.2,0.09,0.36,0.16,0.47,0.23c0.12,0.07,0.22,0.14,0.32,0.22
		c0.1,0.08,0.16,0.13,0.18,0.16C26,5.86,26.02,5.88,26.04,5.9l-0.16,2.42h-1.92l-0.6-1.4c-0.15-0.08-0.4-0.13-0.75-0.13
		c-0.28,0-0.51,0.02-0.69,0.07c-0.18,0.05-0.36,0.15-0.54,0.31c-0.18,0.16-0.32,0.39-0.42,0.68c-0.1,0.3-0.18,0.7-0.25,1.21
		c-0.06,0.51-0.1,1.13-0.1,1.86c0,1.52,0.08,2.65,0.25,3.39c0.17,0.74,0.5,1.11,1,1.11c0.25,0,0.45-0.02,0.62-0.07
		c0.17-0.05,0.33-0.13,0.47-0.25c0.15-0.12,0.26-0.31,0.33-0.55c0.07-0.24,0.11-0.55,0.11-0.93v-1.07l-1.39-0.32v-2.15h4.69
		l-0.01,7.25h-1.87l-0.13-1.12C23.78,17.11,22.72,17.55,21.49,17.55z"/>
	<path class="st3" d="M32.44,16.51c-0.07,0.08-0.18,0.18-0.32,0.3c-0.14,0.11-0.31,0.22-0.49,0.34c-0.19,0.11-0.41,0.21-0.68,0.29
		c-0.27,0.08-0.54,0.12-0.82,0.12c-1.9,0-2.84-0.94-2.84-2.81c0-0.37,0.07-0.7,0.2-1.01s0.31-0.56,0.52-0.77
		c0.21-0.21,0.46-0.4,0.76-0.56c0.29-0.16,0.59-0.3,0.89-0.39c0.3-0.1,0.61-0.17,0.94-0.24c0.33-0.06,0.62-0.11,0.89-0.13
		c0.26-0.02,0.51-0.03,0.75-0.03v-0.19c0-0.43-0.11-0.73-0.34-0.91c-0.23-0.18-0.59-0.26-1.1-0.26c-0.44,0-0.89,0.05-1.36,0.15
		c-0.47,0.1-0.84,0.22-1.11,0.36l-0.67-1.43c0.48-0.31,1.1-0.58,1.86-0.82c0.76-0.24,1.54-0.35,2.34-0.35c0.7,0,1.28,0.07,1.74,0.21
		c0.46,0.14,0.83,0.37,1.11,0.7c0.28,0.33,0.49,0.74,0.61,1.24c0.12,0.5,0.18,1.14,0.18,1.91v4.29l0.29,0.82h-2.89l-0.34-0.94
		L32.44,16.51z M31.97,15.64c0.08-0.04,0.16-0.1,0.25-0.17v-2.53c-0.43,0-0.77,0.12-1.02,0.35c-0.25,0.24-0.38,0.6-0.38,1.09
		c0,0.88,0.3,1.32,0.9,1.32C31.8,15.7,31.89,15.68,31.97,15.64z"/>
	<path class="st3" d="M36.78,17.33v-6.81l-0.63-0.39V9l2.26-0.62h1.79v1.36c0.03-0.05,0.09-0.11,0.15-0.19c0.07-0.08,0.19-0.21,0.37-0.38
		c0.18-0.18,0.37-0.33,0.56-0.46c0.19-0.13,0.43-0.25,0.71-0.36c0.28-0.11,0.55-0.16,0.83-0.16c0.7,0,1.24,0.13,1.61,0.4
		c0.37,0.27,0.64,0.7,0.79,1.31c0.24-0.41,0.61-0.8,1.1-1.16c0.49-0.36,1.04-0.54,1.64-0.54c0.66,0,1.17,0.11,1.54,0.34
		c0.37,0.23,0.64,0.62,0.81,1.16c0.17,0.55,0.25,1.32,0.25,2.32v5.34h-3.42v-5.64c0-0.31-0.07-0.55-0.22-0.73
		c-0.15-0.18-0.37-0.26-0.67-0.26c-0.2,0-0.48,0.17-0.83,0.51c0.02,0.34,0.03,0.7,0.03,1.09v5.03h-3.48v-5.64
		c0.02-0.66-0.26-0.99-0.84-0.99c-0.04,0-0.08,0-0.12,0.01c-0.04,0.01-0.07,0.01-0.11,0.02c-0.03,0.01-0.07,0.02-0.11,0.04
		c-0.04,0.02-0.07,0.03-0.1,0.04c-0.03,0.01-0.06,0.03-0.1,0.05c-0.03,0.02-0.06,0.04-0.08,0.06c-0.02,0.01-0.05,0.04-0.09,0.07
		c-0.04,0.03-0.07,0.05-0.08,0.07c-0.02,0.01-0.05,0.04-0.08,0.07c-0.04,0.03-0.06,0.05-0.08,0.07v6.14H36.78z"/>
	<path class="st3" d="M55.14,16.84v0.49h-3.43V5.42l-0.63-0.38V4.06l3.38-0.53h0.68V9.2c0.11-0.13,0.24-0.25,0.37-0.36
		c0.13-0.11,0.3-0.22,0.48-0.33c0.19-0.11,0.41-0.19,0.65-0.25c0.24-0.06,0.5-0.09,0.77-0.09c1.16,0,2.01,0.4,2.55,1.19
		c0.54,0.79,0.82,1.89,0.82,3.3c0,0.66-0.07,1.27-0.22,1.83c-0.15,0.56-0.37,1.05-0.65,1.48c-0.29,0.43-0.66,0.76-1.11,1.01
		c-0.45,0.24-0.97,0.36-1.55,0.36C56.46,17.33,55.76,17.17,55.14,16.84z M57.11,13.71v-1.79c0-0.6-0.11-1.07-0.33-1.4
		c-0.22-0.33-0.5-0.49-0.85-0.49c-0.26,0-0.52,0.09-0.79,0.28v5.48c0.11,0.03,0.2,0.05,0.3,0.06c0.09,0.01,0.18,0.02,0.26,0.02
		C56.64,15.87,57.11,15.15,57.11,13.71z"/>
	<path class="st3" d="M66.37,16.51c-0.07,0.08-0.18,0.18-0.32,0.3c-0.14,0.11-0.31,0.22-0.49,0.34c-0.19,0.11-0.41,0.21-0.68,0.29
		c-0.27,0.08-0.54,0.12-0.82,0.12c-1.9,0-2.84-0.94-2.84-2.81c0-0.37,0.07-0.7,0.2-1.01c0.13-0.31,0.31-0.56,0.52-0.77
		c0.21-0.21,0.46-0.4,0.76-0.56c0.29-0.16,0.59-0.3,0.89-0.39c0.3-0.1,0.61-0.17,0.94-0.24c0.33-0.06,0.62-0.11,0.89-0.13
		c0.26-0.02,0.51-0.03,0.75-0.03v-0.19c0-0.43-0.11-0.73-0.34-0.91c-0.23-0.18-0.59-0.26-1.1-0.26c-0.44,0-0.89,0.05-1.36,0.15
		c-0.47,0.1-0.84,0.22-1.11,0.36l-0.67-1.43c0.48-0.31,1.1-0.58,1.86-0.82c0.76-0.24,1.54-0.35,2.34-0.35c0.7,0,1.28,0.07,1.74,0.21
		c0.46,0.14,0.83,0.37,1.11,0.7s0.49,0.74,0.61,1.24c0.12,0.5,0.18,1.14,0.18,1.91v4.29l0.29,0.82h-2.89l-0.34-0.94L66.37,16.51z
		 M65.9,15.64c0.08-0.04,0.16-0.1,0.25-0.17v-2.53c-0.43,0-0.77,0.12-1.02,0.35c-0.25,0.24-0.38,0.6-0.38,1.09
		c0,0.88,0.3,1.32,0.9,1.32C65.73,15.7,65.82,15.68,65.9,15.64z"/>
</g>
</svg>