<?xml version="1.0" encoding="utf-8"?>
<!-- Generator: Adobe Illustrator 25.0.1, SVG Export Plug-In . SVG Version: 6.00 Build 0)  -->
<svg version="1.1" xmlns="http://www.w3.org/2000/svg" xmlns:xlink="http://www.w3.org/1999/xlink" x="0px" y="0px"
	 viewBox="0 0 100 100" style="enable-background:new 0 0 100 100;" xml:space="preserve">
<style type="text/css">
	.st0{display:none;}
	.st1{fill:#FAFAFA;}
	.st2{fill:#FE7139;}
	.st3{fill:none;stroke:#000000;stroke-miterlimit:10;}
	.st4{fill:#FED339;}
	.st5{fill:#FAFAFA;stroke:#000000;stroke-miterlimit:10;}
	.st6{fill:#FFFFFF;stroke:#000000;stroke-miterlimit:10;}
	.st7{fill:#754C24;stroke:#000000;stroke-miterlimit:10;}
	.st8{fill:#FFFFFF;}
	.st9{fill:none;stroke:#FFFFFF;stroke-width:2;stroke-miterlimit:10;}
	.st10{fill:none;}
	.st11{fill:#3964FE;}
	.st12{fill:none;stroke:#3964FE;stroke-miterlimit:10;}
	.st13{fill:none;stroke:#FE7139;stroke-miterlimit:10;}
</style>
<g id="Capa_2" class="st0">
</g>
<g id="CHICOPAN">
</g>
<g id="CHICAPASTEL">
</g>
<g id="CHICAMOBIL">
</g>
<g id="CHICOREVIEW">
</g>
<g id="CHICAESTADISTICAS">
</g>
<g id="HAMBURGUESA">
	<g>
		<path class="st3" d="M12.02,70.32c0,0,1.16,8.09,6.41,8.09s62.54,0,62.54,0s6.83-1.68,7.57-8.3"/>
		<g>
			<path d="M83.62,60.55H17.3c-3.08,0-5.57-2.49-5.57-5.57s2.49-5.57,5.57-5.57h66.32c3.08,0,5.57,2.49,5.57,5.57
				S86.69,60.55,83.62,60.55z"/>
		</g>
		<g>
			<path class="st4" d="M83.72,49.49H17.4c-2.05,0-3.71-1.66-3.71-3.71s1.66-3.71,3.71-3.71h66.32c2.05,0,3.71,1.66,3.71,3.71
				S85.77,49.49,83.72,49.49z"/>
		</g>
		<path class="st2" d="M18.32,60.23c0,0-8.83-0.84-8.72,9.98c0,0,1.89,4.1,9.35,0.32s10.93-2.31,14.5-0.21
			c3.57,2.1,7.25,2.31,11.46,0.21s7.25-2.63,11.67,0.11c4.41,2.73,9.46,0.74,11.98-0.63c2.52-1.37,7.36-3.36,12.09-0.42
			c4.73,2.94,8.09,1.89,9.14,0.74c1.05-1.16,1.79-7.46-7.15-9.88L18.32,60.23z"/>
		<path class="st3" d="M85.48,42.29H16.22c0,0-6.36,0.15-3.05-5.89c2.47-4.5,12.4-15.56,36.68-15.56S86.43,32.2,87.9,36.51
			C89.37,40.82,88.22,42.29,85.48,42.29z"/>
	</g>
</g>
<g id="PIZZA">
</g>
<g id="TACO">
</g>
<g id="POKE">
</g>
<g id="INDIO">
</g>
</svg>
