<?xml version="1.0" encoding="utf-8"?>
<!-- Generator: Adobe Illustrator 25.0.1, SVG Export Plug-In . SVG Version: 6.00 Build 0)  -->
<svg version="1.1" xmlns="http://www.w3.org/2000/svg" xmlns:xlink="http://www.w3.org/1999/xlink" x="0px" y="0px"
	 viewBox="0 0 100 100" style="enable-background:new 0 0 100 100;" xml:space="preserve">
<style type="text/css">
	.st0{display:none;}
	.st1{fill:#FAFAFA;}
	.st2{fill:#FE7139;}
	.st3{fill:none;stroke:#000000;stroke-miterlimit:10;}
	.st4{fill:#FED339;}
	.st5{fill:#FAFAFA;stroke:#000000;stroke-miterlimit:10;}
	.st6{fill:#FFFFFF;stroke:#000000;stroke-miterlimit:10;}
	.st7{fill:#754C24;stroke:#000000;stroke-miterlimit:10;}
	.st8{fill:#FFFFFF;}
	.st9{fill:none;stroke:#FFFFFF;stroke-width:2;stroke-miterlimit:10;}
	.st10{fill:none;}
	.st11{fill:#3964FE;}
	.st12{fill:none;stroke:#3964FE;stroke-miterlimit:10;}
	.st13{fill:none;stroke:#FE7139;stroke-miterlimit:10;}
</style>
<g id="Capa_2" class="st0">
</g>
<g id="CHICOPAN">
</g>
<g id="CHICAPASTEL">
</g>
<g id="CHICAMOBIL">
</g>
<g id="CHICOREVIEW">
</g>
<g id="CHICAESTADISTICAS">
</g>
<g id="HAMBURGUESA">
</g>
<g id="PIZZA">
</g>
<g id="TACO">
	<g>
		<path class="st4" d="M11.73,52.22c-4.83,1.11-8.42,5.31-8.42,10.33c0,4.56,2.97,8.43,7.12,9.94c0.09-6.15,1.56-11.96,4.14-17.14
			C13.53,54.49,12.56,53.44,11.73,52.22z"/>
		<path class="st2" d="M16.37,52.12c2.25-3.65,5.08-6.9,8.35-9.65c-1.03-1.84-1.54-3.84-1.55-5.78c-3.18-2.1-6.9-2.57-9.85-0.87
			c-4.6,2.65-5.58,9.57-2.19,15.44c0.19,0.33,0.4,0.65,0.61,0.97c0.82-0.19,1.67-0.3,2.55-0.3C14.99,51.92,15.69,51.99,16.37,52.12z
			"/>
		<path class="st2" d="M14.57,55.35c0.55-1.11,1.15-2.18,1.79-3.23c-0.68-0.13-1.37-0.2-2.09-0.2c-0.88,0-1.73,0.11-2.55,0.3
			C12.56,53.44,13.53,54.49,14.57,55.35z"/>
		<path class="st4" d="M27.12,40.6c3.94-2.83,8.4-4.97,13.23-6.22c-0.06-0.6-0.1-1.2-0.1-1.82c0-1.28,0.14-2.51,0.39-3.68
			c-3.6-3.06-8.69-3.71-12.66-1.23c-3.14,1.96-4.83,5.41-4.82,9.04C24.64,37.66,26.01,38.98,27.12,40.6z"/>
		<path class="st4" d="M27.12,40.6c-1.12-1.63-2.48-2.94-3.96-3.92c0.01,1.95,0.52,3.94,1.55,5.78
			C25.49,41.82,26.29,41.2,27.12,40.6z"/>
		<path class="st2" d="M43.08,31.7c0.39,0.62,0.71,1.27,0.97,1.92c2.06-0.33,4.16-0.5,6.31-0.5c1.86,0,3.69,0.14,5.49,0.39
			c0.73-2.15,2.12-4.03,4.12-5.31c-1.37-5.29-5.13-9.11-9.58-9.11c-4.64,0-8.53,4.14-9.74,9.79C41.56,29.67,42.39,30.6,43.08,31.7z"
			/>
		<path class="st2" d="M40.35,34.39c1.21-0.31,2.45-0.57,3.7-0.77c-0.26-0.66-0.58-1.3-0.97-1.92c-0.68-1.09-1.51-2.03-2.44-2.82
			c-0.25,1.17-0.39,2.41-0.39,3.68C40.24,33.18,40.29,33.79,40.35,34.39z"/>
		<path class="st4" d="M60.41,34.4c4.57,1.19,8.82,3.17,12.6,5.79c1.2-1.03,2.49-1.85,3.82-2.43c-0.12-1.9-0.7-3.83-1.8-5.6
			c-3.32-5.32-10.04-7.12-14.99-4.02c-0.03,0.02-0.05,0.04-0.08,0.05c0.35,1.37,0.56,2.84,0.56,4.37
			C60.51,33.19,60.47,33.8,60.41,34.4z"/>
		<path class="st4" d="M55.84,33.5c1.55,0.21,3.08,0.51,4.57,0.9c0.06-0.6,0.1-1.21,0.1-1.84c0-1.53-0.2-3-0.56-4.37
			C57.96,29.47,56.57,31.36,55.84,33.5z"/>
		<path class="st2" d="M76.09,42.55c3.4,2.87,6.31,6.3,8.6,10.14c0.48-0.07,0.97-0.11,1.47-0.11c0.53,0,1.05,0.05,1.56,0.12
			c3.32-4.49,3.68-10.11,0.53-13.47c-2.7-2.88-7.22-3.3-11.41-1.47C76.93,39.42,76.68,41.05,76.09,42.55z"/>
		<path class="st2" d="M76.09,42.55c0.59-1.49,0.84-3.13,0.74-4.79c-1.33,0.58-2.62,1.4-3.82,2.43
			C74.07,40.92,75.1,41.71,76.09,42.55z"/>
		<path class="st4" d="M96.69,62.78c0-5.12-3.9-9.35-8.98-10.08c-0.54,0.73-1.16,1.44-1.86,2.1c2.7,5.23,4.28,11.13,4.41,17.38
			C94.04,70.63,96.69,67,96.69,62.78z"/>
		<path class="st4" d="M84.69,52.68c0.41,0.69,0.8,1.4,1.17,2.11c0.7-0.66,1.31-1.36,1.86-2.1c-0.51-0.07-1.03-0.12-1.56-0.12
			C85.65,52.57,85.17,52.62,84.69,52.68z"/>
		<path d="M88.61,73.05c0,2.62-14.37,5.45-37.59,5.45c-23.28,0-38.92-2.82-38.92-5.45c0-0.03,0-0.06,0-0.08
			c-0.57-0.11-1.13-0.28-1.66-0.47c0,0.19-0.01,0.37-0.01,0.56c0,1.57,1.37,3.86,13.19,5.53c7.3,1.03,17.04,1.6,27.41,1.6
			c6.56,0,39.27-0.34,39.27-7.13c0-0.29-0.02-0.58-0.02-0.87c-0.53,0.22-1.09,0.39-1.66,0.52C88.6,72.82,88.61,72.93,88.61,73.05z"
			/>
		<path d="M15.94,56.35c-0.47-0.3-0.92-0.64-1.37-1c-2.57,5.18-4.05,11-4.14,17.14c0.54,0.2,1.09,0.36,1.66,0.47
			C12.11,67.01,13.49,61.38,15.94,56.35z"/>
		<path d="M25.63,43.89c-0.22-0.29-0.43-0.59-0.62-0.9c-0.11-0.17-0.2-0.35-0.29-0.52c-3.27,2.75-6.09,6-8.35,9.65
			c0.58,0.11,1.15,0.27,1.69,0.46C20.14,49.32,22.69,46.39,25.63,43.89z"/>
		<path d="M16.37,52.12c-0.65,1.05-1.24,2.12-1.79,3.23c0.44,0.37,0.9,0.71,1.37,1c0.63-1.3,1.35-2.56,2.12-3.77
			C17.51,52.39,16.95,52.23,16.37,52.12z"/>
		<path d="M27.99,42.04c3.75-2.72,8.01-4.77,12.61-5.98c-0.11-0.54-0.19-1.1-0.25-1.67c-4.82,1.25-9.29,3.39-13.23,6.22
			c0.23,0.33,0.45,0.68,0.66,1.04C27.85,41.77,27.91,41.91,27.99,42.04z"/>
		<path d="M25.63,43.89c0.76-0.65,1.55-1.26,2.36-1.85c-0.07-0.13-0.13-0.27-0.21-0.4c-0.21-0.36-0.43-0.7-0.66-1.04
			c-0.83,0.59-1.63,1.21-2.41,1.87c0.1,0.17,0.19,0.35,0.29,0.52C25.2,43.3,25.41,43.6,25.63,43.89z"/>
		<path d="M50.36,34.79c1.72,0,3.41,0.13,5.07,0.35c0.1-0.56,0.24-1.1,0.42-1.64c-1.79-0.25-3.62-0.39-5.49-0.39
			c-2.15,0-4.25,0.18-6.31,0.5c0.21,0.53,0.38,1.07,0.52,1.61C46.45,34.94,48.39,34.79,50.36,34.79z"/>
		<path d="M44.56,35.23c-0.13-0.54-0.3-1.08-0.52-1.61c-1.25,0.2-2.49,0.45-3.7,0.77c0.06,0.57,0.14,1.13,0.25,1.67
			C41.9,35.72,43.22,35.44,44.56,35.23z"/>
		<path d="M71.77,41.37c0.24-0.25,0.48-0.51,0.74-0.75c0.16-0.15,0.33-0.28,0.49-0.43c-3.78-2.61-8.03-4.6-12.6-5.79
			c-0.06,0.57-0.14,1.13-0.25,1.67C64.35,37.18,68.27,38.99,71.77,41.37z"/>
		<path d="M60.16,36.07c0.11-0.54,0.2-1.1,0.25-1.67c-1.49-0.39-3.02-0.68-4.57-0.9c-0.18,0.53-0.32,1.08-0.42,1.64
			C57.03,35.35,58.61,35.66,60.16,36.07z"/>
		<path d="M82.96,53.06c0.56-0.17,1.14-0.29,1.73-0.37c-2.29-3.84-5.2-7.27-8.6-10.14c-0.21,0.54-0.48,1.05-0.78,1.54
			C78.29,46.66,80.88,49.68,82.96,53.06z"/>
		<path d="M71.77,41.37c1.24,0.84,2.41,1.75,3.54,2.72c0.3-0.49,0.56-1.01,0.78-1.54c-0.99-0.83-2.01-1.62-3.08-2.36
			c-0.16,0.14-0.33,0.28-0.49,0.43C72.25,40.86,72.01,41.11,71.77,41.37z"/>
		<path d="M85.82,54.83c-0.41,0.39-0.85,0.74-1.29,1.07c2.55,5.06,4.01,10.77,4.07,16.8c0.57-0.13,1.13-0.3,1.66-0.52
			c-0.14-6.25-1.71-12.15-4.41-17.38C85.84,54.8,85.83,54.82,85.82,54.83z"/>
		<path d="M82.96,53.06c0.57,0.92,1.09,1.87,1.58,2.84c0.44-0.33,0.87-0.68,1.29-1.07c0.01-0.01,0.02-0.02,0.03-0.03
			c-0.37-0.72-0.76-1.42-1.17-2.11C84.09,52.76,83.51,52.88,82.96,53.06z"/>
	</g>
</g>
<g id="POKE">
</g>
<g id="INDIO">
</g>
</svg>
