<?xml version="1.0" encoding="utf-8"?>
<!-- Generator: Adobe Illustrator 25.2.0, SVG Export Plug-In . SVG Version: 6.00 Build 0)  -->
<svg version="1.1" xmlns="http://www.w3.org/2000/svg" xmlns:xlink="http://www.w3.org/1999/xlink" x="0px" y="0px"
	 viewBox="0 0 100 100" style="enable-background:new 0 0 100 100;" xml:space="preserve">
<style type="text/css">
	.st0{display:none;}
	.st1{fill:#FAFAFA;}
	.st2{fill:#FE7139;}
	.st3{fill:none;stroke:#000000;stroke-miterlimit:10;}
	.st4{fill:#FED339;}
	.st5{fill:#FAFAFA;stroke:#000000;stroke-miterlimit:10;}
	.st6{fill:#FFFFFF;stroke:#000000;stroke-miterlimit:10;}
	.st7{fill:#754C24;stroke:#000000;stroke-miterlimit:10;}
	.st8{fill:#FFFFFF;}
	.st9{fill:none;stroke:#FFFFFF;stroke-width:2;stroke-miterlimit:10;}
	.st10{fill:none;}
	.st11{fill:#3964FE;}
	.st12{fill:none;stroke:#3964FE;stroke-miterlimit:10;}
	.st13{fill:none;stroke:#FE7139;stroke-miterlimit:10;}
	.st14{fill:none;stroke:#FED339;stroke-miterlimit:10;}
	.st15{fill:none;stroke:#FED339;stroke-width:2;stroke-miterlimit:10;}
	.st16{fill:#FAFAFA;stroke:#000000;stroke-width:2;stroke-miterlimit:10;}
	.st17{fill:#FF0000;}
</style>
<g id="Capa_2" class="st0">
</g>
<g id="CHICOPAN">
</g>
<g id="CHICAPASTEL">
</g>
<g id="CHICAMOBIL">
</g>
<g id="CHICOREVIEW">
</g>
<g id="CHICAESTADISTICAS">
</g>
<g id="AMERICANO">
</g>
<g id="PIZZA">
</g>
<g id="MEXICANO">
</g>
<g id="POKE">
</g>
<g id="INDIO">
</g>
<g id="GRIEGO">
</g>
<g id="TAILANDES">
</g>
<g id="COREANA">
</g>
<g id="COLOMPIANA">
</g>
<g id="PERUANO">
	<path class="st3" d="M49.87,69.36c0,0-0.92-8.15-6.36-11.43C28.22,48.68,29.64,38.4,27.38,38.06s-4.67,5.29-6.23,5.72
		c-3.09,0.85-11.28-2.98-13.53-0.4c-1.92,2.21,2.21,9,1.47,10.08c-0.74,1.08-7.17,2.76-6.17,6.68c1.38,5.38,8.15,3.96,9.26,9.17
		L49.87,69.36z"/>
	<path class="st3" d="M34.02,69.58c0,0-10.13-12.45-16.3-17.55"/>
	<path class="st3" d="M28.06,62c0,0-4.98,1.92-12.4,2.89"/>
	<path class="st3" d="M23.72,57.36c0,0,2.77-5.15,3.17-9.74"/>
	<path class="st3" d="M32.6,67.32c0,0,4.3-3.85,4.98-7.42"/>
	<g>
		<path class="st2" d="M75.19,52.39c1.07-2.46,3.68-6.9,8.89-8.29c-1.8-1.21-6.97-3.74-10.15,0.84
			C71.53,48.39,74.34,51.56,75.19,52.39z"/>
		<path class="st2" d="M85.16,44.89c-5.67,1.04-8.26,5.87-9.19,8.19c0.88,0.81,2.56,2.6,2.85,4.75c2.73-1.43,7.56-3.08,12.5-0.52
			c0-0.23,0.02-0.45,0.02-0.69C91.14,49.97,87.34,46.55,85.16,44.89z"/>
		<path class="st2" d="M78.84,58.93c-0.13,1.27-0.8,2.61-2.41,3.93c-0.31,0.26-0.64,0.45-0.97,0.61c-0.05,1.26,0.06,3.55,1.25,5.32
			l-0.75,0.5l8.57,0.17c0,0,6.06-3.69,6.74-11.06C86.23,55.53,81.32,57.5,78.84,58.93z"/>
		<path class="st2" d="M74.46,63.86c-1.93,0.47-3.93-0.3-5.34-1.3c-1.08,0.71-3.69,2.67-4.33,5.32c0.53,0.42,1.13,0.84,1.82,1.23
			l9.24,0.18C74.65,67.48,74.44,65.29,74.46,63.86z"/>
		<path class="st2" d="M63.96,67.14c0.84-2.56,3.11-4.41,4.34-5.25c-0.5-0.46-0.87-0.93-1.04-1.31c0,0-1.39-2.2-3.36-2.23
			c0.56-0.37,4.7-3.31,2.48-9.32c0,0-4.6,2.55-4.93,6.73c0,0-0.93-4.87-5.22-4.97c0,0,0.03,6.36,5.2,8.37c0,0,0.03,0.15,0.09,0.39
			c-1.09,1.62,0.11,4.19,0.11,4.19S62.16,65.39,63.96,67.14z"/>
	</g>
	<g>
		<path class="st3" d="M92.48,77.4H6.97c-2.2,0-4-1.8-4-4v0c0-2.2,1.8-4,4-4h85.51c2.2,0,4,1.8,4,4v0
			C96.48,75.6,94.68,77.4,92.48,77.4z"/>
		<path class="st3" d="M77.79,90.64H21.66c-1.43,0-2.77-0.69-3.6-1.85l-8.1-11.28H89.5l-8.1,11.28
			C80.56,89.95,79.22,90.64,77.79,90.64z"/>
	</g>
	<g>
		<path class="st4" d="M60.62,10.75l-5.63,14.67l13.89-6.62C67.23,15.24,64.38,12.33,60.62,10.75z"/>
		<path class="st4" d="M60.52,9.61c8.7,3.34,13.03,13.28,9.97,22.47l3.16,1.21c4.11-10.7-1.24-22.7-11.93-26.8
			c-10.7-4.11-22.7,1.24-26.8,11.93l3.16,1.21C41.95,10.76,51.82,6.27,60.52,9.61z"/>
		<path class="st4" d="M54.02,25.14l5.66-14.75c-3.88-1.35-7.97-1.08-11.58,0.48L54.02,25.14z"/>
		<path class="st4" d="M55.45,26.3l14.12,5.42c1.35-4.09,1.15-8.33-0.3-12.01L55.45,26.3z"/>
		<path class="st4" d="M53.04,25.38L47.2,11.29c-3.51,1.77-6.48,4.77-8.2,8.7L53.04,25.38z"/>
	</g>
	<line class="st14" x1="45.66" y1="30.36" x2="46.23" y2="33.53"/>
	<line class="st14" x1="53.76" y1="34.66" x2="52.33" y2="37.55"/>
	<line class="st14" x1="48.4" y1="43.58" x2="49.43" y2="46.63"/>
	<line class="st14" x1="64.42" y1="33.9" x2="61.69" y2="35.62"/>
</g>
<g id="Turco">
</g>
</svg>
